<svg width="464" height="489" viewBox="0 0 464 489" fill="none" xmlns="http://www.w3.org/2000/svg">
<path fill-rule="evenodd" clip-rule="evenodd" d="M275.76 653.288C222.359 635.604 161.372 637.379 120.396 598.839C75.9776 557.061 39.1031 497.441 45.6027 436.81C51.9469 377.629 110.913 341.856 152.508 299.282C186.104 264.894 225.395 242.118 263.915 213.352C323.763 168.66 365.675 84.7561 440.368 84.319C515.217 83.8809 576.734 149.42 618.882 211.275C659.448 270.807 666.203 344.553 666.782 416.59C667.347 486.971 665.44 562.184 622.148 617.678C579.981 671.73 509.815 698.203 441.62 705.213C382.546 711.286 332.135 671.957 275.76 653.288Z" fill="#3C519C"/>
<path d="M427.366 99.7328C434.748 99.7328 440.733 93.7485 440.733 86.3664C440.733 78.9844 434.748 73 427.366 73C419.984 73 414 78.9844 414 86.3664C414 93.7485 419.984 99.7328 427.366 99.7328Z" fill="#F9C669"/>
<path d="M253.5 474C257.09 474 260 471.09 260 467.5C260 463.91 257.09 461 253.5 461C249.91 461 247 463.91 247 467.5C247 471.09 249.91 474 253.5 474Z" fill="#F9C669"/>
<path d="M462.5 347C464.985 347 467 344.985 467 342.5C467 340.015 464.985 338 462.5 338C460.015 338 458 340.015 458 342.5C458 344.985 460.015 347 462.5 347Z" fill="#F9C669"/>
<path d="M365.22 312.123H327.517C320.782 312.123 315.277 306.611 315.277 299.884C315.277 293.15 320.79 287.646 327.517 287.646H365.22C371.955 287.646 377.46 293.158 377.46 299.884C377.467 306.611 371.955 312.123 365.22 312.123Z" fill="#F9C669"/>
</svg>
