<svg width="91" height="72" viewBox="0 0 91 72" fill="none" xmlns="http://www.w3.org/2000/svg">
<path d="M6.42616 71.65L0.285156 68.334L9.56804 61.2497L13.1384 66.6006L6.42616 71.65Z" fill="black"/>
<path d="M23.5945 48.7849L7.48535 61.0287L12.7016 68.6735L28.8108 56.4296L23.5945 48.7849Z" fill="#46959F"/>
<path d="M22.0642 56.5018L20.8503 54.7684C17.7084 50.1712 20.4218 47.4581 24.135 44.5943L78.8325 1.48607C80.4035 0.280246 82.4743 0.430974 83.474 1.86289L89.7578 11.1327C90.7575 12.5646 90.2576 14.7501 88.6153 15.8806L33.2036 56.4264C29.2049 59.5917 25.5631 61.7019 22.0642 56.5018Z" fill="#46959F"/>
<path d="M36.3458 54.0901L27.9912 41.8812L76.5478 3.2948L86.4019 17.614L36.3458 54.0901Z" fill="#BAC2D9"/>
</svg>
