<svg width="671" height="900" viewBox="0 0 671 900" fill="none" xmlns="http://www.w3.org/2000/svg">
<g clip-path="url(#clip0)">
<path d="M-36.418 959.004C-26.818 942.204 -37.718 921.804 -44.318 903.604C-52.418 881.404 -53.918 857.504 -55.418 834.004C-73.918 530.704 -92.518 227.504 -111.018 -75.696C-111.818 -89.196 -112.118 -104.296 -103.118 -114.196C-94.518 -123.696 -80.518 -125.296 -67.818 -126.196C-26.418 -128.796 15.082 -128.996 56.482 -129.196C260.982 -129.696 465.382 -127.696 669.682 -123.096V-123.296C672.782 -131.096 660.882 -77.196 663.982 -84.996C640.782 10.304 569.082 58.904 476.882 92.304C419.382 113.204 354.482 116.904 304.382 152.004C270.782 175.504 246.782 212.404 238.782 252.604C224.582 324.404 259.782 400.504 239.482 470.704C220.482 536.404 159.082 578.604 107.182 623.004C59.382 663.804 19.582 714.604 0.68203 774.504C-19.518 838.604 -18.818 892.304 -36.718 957.104L-36.418 959.004Z" fill="#3C519C"/>
<path d="M539 77C543.971 77 548 72.9706 548 68C548 63.0294 543.971 59 539 59C534.029 59 530 63.0294 530 68C530 72.9706 534.029 77 539 77Z" fill="#F9C669"/>
<path d="M29.7764 592.469C38.4613 592.469 45.502 585.428 45.502 576.743C45.502 568.058 38.4613 561.017 29.7764 561.017C21.0914 561.017 14.0508 568.058 14.0508 576.743C14.0508 585.428 21.0914 592.469 29.7764 592.469Z" fill="#F9C669"/>
<path d="M73 154C76.3137 154 79 151.314 79 148C79 144.686 76.3137 142 73 142C69.6863 142 67 144.686 67 148C67 151.314 69.6863 154 73 154Z" fill="#F9C669"/>
</g>
<path d="M258.424 222.25H220.721C213.986 222.25 208.481 216.738 208.481 210.012C208.481 203.277 213.994 197.773 220.721 197.773H258.424C265.159 197.773 270.664 203.285 270.664 210.012C270.672 216.738 265.159 222.25 258.424 222.25Z" fill="#F9C669"/>
<defs>
<clipPath id="clip0">
<rect width="782.6" height="1090.1" fill="white" transform="translate(-111.918 -129.696)"/>
</clipPath>
</defs>
</svg>
