<svg width="59" height="81" viewBox="0 0 59 81" fill="none" xmlns="http://www.w3.org/2000/svg">
<path d="M37.3563 80.5568L5.67516 72.5957C2.75784 71.9231 0.944525 69.0062 1.61719 66.0966L15.2898 2.88255C16.2988 1.15727 18.4558 -0.443742 22.3895 0.418899L54.8018 7.92681C57.7191 8.59937 59.5324 11.5163 58.8597 14.4259L44.5802 76.0462C43.1471 80.608 39.3304 80.9516 37.3563 80.5568Z" fill="#CF3D7F"/>
<path d="M36.6104 80.4398L4.19811 72.9319C1.28078 72.2594 -0.532525 69.3425 0.140141 66.4329L14.4197 4.81251C15.0924 1.89562 18.0097 0.0826057 20.9197 0.755174L53.332 8.26308C56.2493 8.93565 58.0626 11.8525 57.3899 14.7621L43.1104 76.3825C42.4377 79.2994 39.5277 81.1197 36.6104 80.4398Z" fill="#E8AECC"/>
<path d="M36.3109 73.8458L32.655 72.9977C31.5656 72.7419 30.8856 71.6526 31.1342 70.5633L34.7243 55.0577C34.9802 53.9685 36.0696 53.2886 37.1591 53.5371L40.8149 54.3852C41.9044 54.641 42.5843 55.7303 42.3357 56.8196L38.7457 72.3252C38.4898 73.4218 37.4003 74.1016 36.3109 73.8458Z" fill="#F9C669"/>
<path d="M23.8004 70.9508L19.8814 70.0443C18.8651 69.8103 18.229 68.7942 18.463 67.7707L19.3696 63.8522C19.6036 62.8361 20.6199 62.2001 21.6435 62.434L25.5625 63.3405C26.5788 63.5744 27.2149 64.5906 26.9809 65.6141L26.0743 69.5325C25.833 70.556 24.8167 71.1847 23.8004 70.9508Z" fill="#CF3D7F"/>
<path d="M26.5426 59.1005L22.6236 58.194C21.6073 57.96 20.9712 56.9439 21.2052 55.9204L22.1118 52.002C22.3458 50.9858 23.3621 50.3498 24.3857 50.5837L28.3047 51.4902C29.321 51.7242 29.9571 52.7403 29.7231 53.7638L28.8165 57.6822C28.5825 58.6984 27.5662 59.3344 26.5426 59.1005Z" fill="#CF3D7F"/>
<path d="M12.2552 68.2752L8.33602 67.3686C7.3197 67.1347 6.68362 66.1185 6.91759 65.0951L7.82424 61.1766C8.05821 60.1605 9.07453 59.5245 10.0982 59.7584L14.0172 60.6649C15.0336 60.8988 15.6697 61.915 15.4357 62.9385L14.5291 66.8569C14.2878 67.8804 13.2715 68.5164 12.2552 68.2752Z" fill="#CF3D7F"/>
<path d="M14.9974 56.4248L11.0782 55.5183C10.0619 55.2844 9.42581 54.2682 9.65978 53.2447L10.5664 49.3263C10.8004 48.3101 11.8167 47.6741 12.8404 47.9081L16.7594 48.8146C17.7757 49.0485 18.4119 50.0647 18.1779 51.0881L17.2713 55.0066C17.0373 56.0301 16.021 56.6587 14.9974 56.4248Z" fill="#CF3D7F"/>
<path d="M41.933 50.1743L38.0139 49.2678C36.9975 49.0338 36.3613 48.0177 36.5953 46.9942L37.502 43.0758C37.736 42.0596 38.7523 41.4236 39.7759 41.6575L43.6951 42.564C44.7115 42.798 45.3476 43.8141 45.1136 44.8376L44.2069 48.756C43.973 49.7795 42.9566 50.4155 41.933 50.1743Z" fill="#CF3D7F"/>
<path d="M29.2912 47.2501L25.3721 46.3436C24.3558 46.1096 23.7198 45.0935 23.9537 44.07L24.8604 40.1516C25.0943 39.1354 26.1107 38.4994 27.1343 38.7333L31.0533 39.6398C32.0697 39.8738 32.7057 40.8899 32.4718 41.9134L31.5651 45.8318C31.3238 46.848 30.3075 47.484 29.2912 47.2501Z" fill="#CF3D7F"/>
<path d="M17.7461 44.5744L13.8272 43.6679C12.8109 43.434 12.1748 42.4178 12.4088 41.3943L13.3154 37.4759C13.5494 36.4597 14.5657 35.8237 15.5893 36.0577L19.5082 36.9642C20.5245 37.1981 21.1607 38.2143 20.9267 39.2377L20.0201 43.1562C19.7788 44.1797 18.7624 44.8084 17.7461 44.5744Z" fill="#CF3D7F"/>
<path d="M44.6825 38.3239L40.7634 37.4174C39.747 37.1835 39.1109 36.1673 39.3448 35.1438L40.2515 31.2254C40.4855 30.2092 41.5018 29.5732 42.5255 29.8072L46.4446 30.7137C47.4609 30.9476 48.0971 31.9638 47.8631 32.9872L46.9565 36.9057C46.7152 37.9291 45.6988 38.5652 44.6825 38.3239Z" fill="#CF3D7F"/>
<path d="M32.0334 35.3997L28.1143 34.4932C27.098 34.2593 26.4619 33.2431 26.6959 32.2196L27.6026 28.3012C27.8365 27.285 28.8528 26.649 29.8765 26.883L33.7955 27.7895C34.8118 28.0234 35.4479 29.0396 35.2139 30.063L34.3073 33.9815C34.0733 34.9976 33.057 35.6336 32.0334 35.3997Z" fill="#CF3D7F"/>
<path d="M20.4883 32.7241L16.5694 31.8176C15.5531 31.5836 14.917 30.5675 15.151 29.544L16.0576 25.6256C16.2916 24.6094 17.3079 23.9734 18.3315 24.2073L22.2504 25.1138C23.2667 25.3478 23.9029 26.3639 23.6689 27.3874L22.7623 31.3058C22.5283 32.3293 21.5119 32.958 20.4883 32.7241Z" fill="#CF3D7F"/>
<path d="M46.335 26.6783L18.6166 20.2597C17.4541 19.9892 16.7303 18.8268 16.9935 17.6645L18.9603 9.16963C19.2308 8.00725 20.3934 7.28351 21.5559 7.54669L49.2743 13.9653C50.4369 14.2358 51.1607 15.3982 50.8975 16.5606L48.9306 25.0554C48.6674 26.2178 47.5049 26.9488 46.335 26.6783Z" fill="#514F51"/>
<path d="M45.3697 13.0661L38.3433 24.8214L40.8585 25.4063L47.8704 13.6436L45.3697 13.0661Z" fill="#6C7072"/>
</svg>
