<svg width="158" height="53" viewBox="0 0 158 53" fill="none" xmlns="http://www.w3.org/2000/svg">
<path d="M112.147 52.845L116.56 40.5571L122.534 52.845H134.424C141.408 52.845 147.073 47.1077 147.073 40.0349V26.6575C147.073 19.234 141.128 13.2131 133.798 13.2131H24.2766C17.293 13.2131 11.6279 18.9506 11.6279 26.0235V40.0423C11.6279 47.1152 17.293 52.8525 24.2766 52.8525H112.147V52.845Z" fill="#F9C669"/>
<path d="M148.989 33.541H8.70114C4.17642 33.541 0.509766 30.3838 0.509766 26.4879V7.05289C0.509766 3.15704 4.17642 0 8.70114 0H148.315C153.213 0 157.181 3.41603 157.181 7.6339V26.4943C157.174 30.3838 153.507 33.541 148.989 33.541Z" fill="#5DBEBD"/>
</svg>
