<svg width="174" height="174" viewBox="0 0 174 174" fill="none" xmlns="http://www.w3.org/2000/svg">
<path d="M144.754 1.25288L1.24414 28.1019L28.2771 172.595L171.787 145.746L144.754 1.25288Z" fill="#E8AECC"/>
<path d="M144.754 1.25288L1.24414 28.1019L5.28989 49.7267L148.8 22.8777L144.754 1.25288Z" fill="#46959F"/>
<path d="M59.3588 84.594L60.521 90.8774L70.4919 89.0332L71.092 92.2782L61.1211 94.1224L62.5834 102.028L58.7484 102.738L54.9291 82.0878L70.0034 79.2997L70.5982 82.5152L59.3588 84.594ZM89.1473 92.1727L78.8224 94.0823L77.6709 99.2377L73.7179 99.9689L79.191 77.6004L82.9669 76.902L96.1082 95.8276L92.0962 96.5697L89.1473 92.1727ZM87.3223 89.3983L81.7588 81.0916L79.5639 90.8333L87.3223 89.3983ZM120.628 93.4281C120.089 94.3617 119.396 95.1205 118.548 95.7044C117.719 96.2848 116.764 96.6749 115.683 96.875C114.267 97.1369 112.909 97.0525 111.609 96.6217C110.312 96.2107 108.762 95.3585 106.956 94.0653C105.02 94.2608 103.207 94.0266 101.518 93.3627C99.8252 92.6791 98.4143 91.6485 97.2849 90.2709C96.1519 88.8737 95.4108 87.2311 95.0616 85.3431C94.6906 83.3371 94.8378 81.4387 95.5031 79.6478C96.1649 77.8373 97.2578 76.3233 98.7817 75.1058C100.302 73.8686 102.114 73.0555 104.219 72.6663C106.323 72.2771 108.306 72.3882 110.169 72.9997C112.027 73.5915 113.588 74.6047 114.849 76.0391C116.111 77.4735 116.93 79.2035 117.304 81.2292C117.606 82.8615 117.562 84.4358 117.171 85.9522C116.777 87.4488 116.09 88.7962 115.112 89.9941C114.13 91.1724 112.912 92.1197 111.458 92.8361C112.141 93.3402 112.783 93.6791 113.385 93.8525C113.986 94.026 114.602 94.0546 115.231 93.9382C116.588 93.6872 117.666 92.9183 118.466 91.6314L120.628 93.4281ZM98.926 84.6284C99.1807 86.005 99.7263 87.1956 100.563 88.2002C101.396 89.1851 102.421 89.8904 103.639 90.316C104.853 90.722 106.149 90.7977 107.525 90.5431C108.902 90.2884 110.084 89.7544 111.073 88.9411C112.058 88.1081 112.763 87.0827 113.189 85.865C113.611 84.6276 113.695 83.3206 113.44 81.9439C113.185 80.5673 112.641 79.3865 111.808 78.4016C110.972 77.397 109.946 76.6917 108.732 76.2857C107.515 75.8601 106.217 75.7746 104.841 76.0292C103.464 76.2838 102.283 76.8277 101.298 77.6607C100.31 78.474 99.6045 79.4994 99.1826 80.7368C98.7569 81.9545 98.6714 83.2517 98.926 84.6284Z" fill="black"/>
</svg>
