<svg width="1440" height="1185" viewBox="0 0 1440 1185" fill="none" xmlns="http://www.w3.org/2000/svg">
<path d="M94.0097 10.7748C-44.9903 34.3392 -48.4902 155.608 -61.4902 181.775L-219.49 363.775L-471.49 899.775C-458.99 961.775 -517.763 1184.28 -314.49 1184.28C-32.4902 1184.28 -1.49023 1012.78 -61.4902 685.275C-77.3318 598.807 -34.4902 431.275 89.0098 489.275C155.115 520.321 360.51 692.775 613.51 716.275C866.51 739.775 978.982 667.887 1072.51 750.275C1274.01 927.775 1382.01 992.775 1546.51 884.275C1623.12 833.745 1573.8 639.988 1508.51 575.275C1224.51 293.775 1067.01 461.775 836.51 426.775C656.417 399.429 574.01 139.775 501.51 94.7748C429.01 49.7748 327.01 -28.7251 94.0097 10.7748Z" fill="#3C519C"/>
<path d="M322.51 650C338.526 650 351.51 637.016 351.51 621C351.51 604.984 338.526 592 322.51 592C306.494 592 293.51 604.984 293.51 621C293.51 637.016 306.494 650 322.51 650Z" fill="#F9C669"/>
<path d="M1357.51 471C1370.21 471 1380.51 460.703 1380.51 448C1380.51 435.297 1370.21 425 1357.51 425C1344.81 425 1334.51 435.297 1334.51 448C1334.51 460.703 1344.81 471 1357.51 471Z" fill="#F9C669"/>
<path d="M1334.11 942.481C1342.46 942.481 1349.22 935.719 1349.22 927.378C1349.22 919.037 1342.46 912.275 1334.11 912.275C1325.77 912.275 1319.01 919.037 1319.01 927.378C1319.01 935.719 1325.77 942.481 1334.11 942.481Z" fill="#F9C669"/>
<rect x="1022.51" y="768" width="146" height="48" rx="24" fill="#F9C669"/>
</svg>
