<svg width="96" height="113" viewBox="0 0 96 113" fill="none" xmlns="http://www.w3.org/2000/svg">
<path d="M75.8721 22.9017L73.2335 12.0633C73.0869 11.4623 73.4607 10.8468 74.0617 10.7002L78.0196 9.74021C78.6206 9.59365 79.2362 9.96739 79.3828 10.5683L82.0213 21.4068C82.1679 22.0077 81.7942 22.6233 81.1932 22.7698L77.2354 23.7298C76.6344 23.8764 76.0187 23.5027 75.8721 22.9017Z" fill="#F15C4B"/>
<path d="M79.8077 38.9507L77.169 28.1122C77.0225 27.5113 77.3963 26.8957 77.9973 26.7492L81.9552 25.7892C82.5562 25.6426 83.1719 26.0163 83.3184 26.6173L85.9571 37.4558C86.1037 38.0567 85.7299 38.6723 85.1289 38.8188L81.171 39.7788C80.5626 39.9254 79.9543 39.5516 79.8077 38.9507Z" fill="#CF3D7F"/>
<path d="M83.7437 54.9922L81.1051 44.1537C80.9585 43.5528 81.3323 42.9372 81.9333 42.7907L85.8912 41.8307C86.4922 41.6841 87.1079 42.0578 87.2545 42.6587L89.8931 53.4972C90.0397 54.0982 89.6659 54.7137 89.0649 54.8603L85.107 55.8203C84.4987 55.9742 83.883 55.6005 83.7437 54.9922Z" fill="#46959F"/>
<path d="M86.7268 95.9939L29.8291 111.64C27.557 110.137 24.53 108.423 23.7678 105.286L3.23093 20.8867C2.46868 17.7502 4.39638 14.5844 7.53334 13.8222L63.4196 0.228358C66.5565 -0.53378 68.1322 0.704684 72.1414 2.56606L91.0291 88.9294C91.7914 92.0659 89.8638 95.2317 86.7268 95.9939Z" fill="#46959F"/>
<path d="M92.364 97.8626L33.0916 112.277C30.8855 112.812 28.6647 111.464 28.1223 109.258L6.76457 21.4803C6.22953 19.2745 7.57812 17.054 9.78426 16.5117L69.0567 2.09707C71.2628 1.56211 73.4836 2.91051 74.026 5.11631L95.3837 92.894C95.9261 95.0998 94.5702 97.3276 92.364 97.8626Z" fill="#5DBEBD"/>
<path d="M64.4606 35.4478L29.4338 43.9706C27.5868 44.4176 25.7179 43.289 25.2708 41.435L22.2071 28.8524C21.76 27.0056 22.8888 25.1369 24.7431 24.6899L59.7699 16.1672C61.6168 15.7201 63.4859 16.8487 63.9329 18.7027L66.9966 31.2853C67.4436 33.1321 66.3076 35.0008 64.4606 35.4478Z" fill="white"/>
<path d="M9.82046 28.0536C8.84565 28.7205 7.03526 29.2921 5.56206 29.3873C4.14016 29.4753 2.73294 29.3067 2 28.7718" stroke="#F9C669" stroke-width="4" stroke-miterlimit="10" stroke-linecap="round"/>
<path d="M12.4658 38.1227C11.4911 38.7895 9.68069 39.3611 8.20751 39.4564C6.78564 39.5443 5.37843 39.3758 4.64551 38.8408" stroke="#F9C669" stroke-width="4" stroke-miterlimit="10" stroke-linecap="round"/>
<path d="M15.1267 48.1917C14.1519 48.8585 12.3415 49.4301 10.8683 49.5254C9.44635 49.6133 8.0391 49.4448 7.30615 48.9098" stroke="#F9C669" stroke-width="4" stroke-miterlimit="10" stroke-linecap="round"/>
<path d="M17.6916 58.2534C16.7167 58.9203 14.9064 59.4919 13.4332 59.5871C12.0113 59.6751 10.604 59.5065 9.87109 58.9716" stroke="#F9C669" stroke-width="4" stroke-miterlimit="10" stroke-linecap="round"/>
<path d="M20.3384 68.3224C19.3636 68.9893 17.5532 69.5609 16.0801 69.6562C14.6582 69.7441 13.251 69.5755 12.5181 69.0406" stroke="#F9C669" stroke-width="4" stroke-miterlimit="10" stroke-linecap="round"/>
<path d="M23.1386 78.941C22.1638 79.6079 20.3535 80.1795 18.8803 80.2748C17.4585 80.3627 16.0513 80.1942 15.3184 79.6592" stroke="#F9C669" stroke-width="4" stroke-miterlimit="10" stroke-linecap="round"/>
<path d="M25.7111 89.0906C24.7363 89.7574 22.926 90.329 21.4528 90.4243C20.0309 90.5122 18.6236 90.3437 17.8906 89.8087" stroke="#F9C669" stroke-width="4" stroke-miterlimit="10" stroke-linecap="round"/>
<path d="M28.3784 99.3868C27.4037 100.054 25.5933 100.625 24.1201 100.721C22.6982 100.809 21.291 100.64 20.5581 100.105" stroke="#F9C669" stroke-width="4" stroke-miterlimit="10" stroke-linecap="round"/>
</svg>
