<svg width="94" height="117" viewBox="0 0 94 117" fill="none" xmlns="http://www.w3.org/2000/svg">
<path d="M34.9518 37.2237C31.4949 49.8121 22.9703 56.893 13.7389 61.0235C-1.38554 67.7909 -3.54381 94.658 17.0785 109.607C32.3166 120.653 61.4671 119.638 80.5194 101.542C99.5718 83.4467 96.0372 48.6318 84.6451 33.093C67.6526 9.91535 39.273 21.4883 34.9518 37.2237Z" fill="#A7A7A7"/>
<path d="M32.9518 36.8755C29.4949 49.4638 20.9703 56.5447 11.7389 60.6753C-3.38554 67.4427 -5.54381 94.3097 15.0785 109.259C30.3166 120.304 59.4671 119.29 78.5194 101.194C97.5718 83.0984 94.0372 48.2836 82.6451 32.7448C65.6526 9.56708 37.273 21.14 32.9518 36.8755Z" fill="white"/>
<circle cx="59.9704" cy="34.6443" r="7.4963" fill="#E8AECC"/>
<ellipse cx="76.6666" cy="54.4073" rx="7.83704" ry="7.4963" fill="#F15D4B"/>
<circle cx="73.5998" cy="82.348" r="7.4963" fill="#F9C669"/>
<circle cx="50.089" cy="100.407" r="7.83704" fill="#5DBEBD"/>
<ellipse cx="21.8072" cy="94.9554" rx="8.17778" ry="7.83704" fill="#3C519C"/>
<path d="M31.4362 5.31966C32.1979 3.20515 34.5099 2.08704 36.6404 2.80282C38.7708 3.5186 39.9387 5.80581 39.2692 7.95129L23.2327 59.3397C22.8588 60.5382 22.0713 61.5648 21.0108 62.2367C18.1696 64.0365 14.3921 62.7674 13.2141 59.6172C12.7743 58.4413 12.7665 57.1475 13.1919 55.9663L31.4362 5.31966Z" fill="#F9C669"/>
<path d="M19.2415 70.959C18.6843 72.5231 17.8443 74.3731 15.2581 76.5534C12.672 78.7336 8.66562 79.8211 7.69005 79.512C7.30915 79.3913 8.61666 78.3219 8.62845 75.862C8.63798 73.8748 7.08769 70.5363 8.1851 67.4558C9.47302 63.8405 12.9921 61.6939 16.0453 62.6613C19.0984 63.6287 20.5294 67.3437 19.2415 70.959Z" fill="#D5D5D5"/>
<mask id="mask0" mask-type="alpha" maskUnits="userSpaceOnUse" x="7" y="62" width="13" height="18">
<path d="M19.2404 70.9591C18.6832 72.5232 17.8432 74.3733 15.2569 76.5537C12.6707 78.7341 8.66433 79.8217 7.68877 79.5126C7.30786 79.3919 8.6154 78.3225 8.62723 75.8624C8.63679 73.8752 7.08654 70.5365 8.18401 67.4559C9.47199 63.8404 12.9912 61.6937 16.0443 62.661C19.0974 63.6284 20.5284 67.3436 19.2404 70.9591Z" fill="#5DBEBD"/>
</mask>
<g mask="url(#mask0)">
<path d="M8.96891 71.3473C7.63362 71.4385 7.60377 68.9148 7.42169 68.0715L3.5628 79.9196L8.79122 82.0048C11.5909 80.7491 17.401 77.7474 18.2444 75.7862C19.2987 73.3347 19.7356 72.616 19.0344 71.5367C18.3333 70.4574 16.4991 74.5903 15.8233 73.9477C15.1475 73.305 15.6962 71.7647 15.0458 71.5586C13.9077 71.198 13.0846 73.5085 12.5892 71.8516C12.4279 71.3124 12.4062 70.0794 12.2741 69.1804C12.0099 67.3825 10.638 71.2333 8.96891 71.3473Z" fill="#5DBEBD"/>
</g>
<rect x="12.2988" y="59.5071" width="10.0294" height="2.96915" rx="1.48458" transform="rotate(18.5708 12.2988 59.5071)" fill="#F15D4B"/>
</svg>
