<svg width="119" height="129" viewBox="0 0 119 129" fill="none" xmlns="http://www.w3.org/2000/svg">
<path d="M75.7331 7.5839L0 24.4412L23.1539 128.432L98.887 111.574L75.7331 7.5839Z" fill="#E8E8E8"/>
<path d="M28.0015 115.457L89.0214 101.876" stroke="#6C7072" stroke-miterlimit="10" stroke-linecap="round"/>
<path d="M26.4346 108.423L87.4547 94.8348" stroke="#6C7072" stroke-miterlimit="10" stroke-linecap="round"/>
<path d="M24.8667 101.389L85.8867 87.8009" stroke="#6C7072" stroke-miterlimit="10" stroke-linecap="round"/>
<path d="M23.2993 94.355L84.3192 80.767" stroke="#6C7072" stroke-miterlimit="10" stroke-linecap="round"/>
<path d="M21.7314 87.321L82.759 73.733" stroke="#6C7072" stroke-miterlimit="10" stroke-linecap="round"/>
<path d="M20.1641 80.2871L81.1915 66.6991" stroke="#6C7072" stroke-miterlimit="10" stroke-linecap="round"/>
<path d="M18.5967 73.2456L79.6241 59.6652" stroke="#6C7072" stroke-miterlimit="10" stroke-linecap="round"/>
<path d="M17.0293 66.2116L78.0568 52.6311" stroke="#6C7072" stroke-miterlimit="10" stroke-linecap="round"/>
<path d="M15.4688 59.1777L76.4888 45.5972" stroke="#6C7072" stroke-miterlimit="10" stroke-linecap="round"/>
<path d="M13.9019 52.1436L74.922 38.5557" stroke="#6C7072" stroke-miterlimit="10" stroke-linecap="round"/>
<path d="M12.3345 45.1097L73.3545 31.5217" stroke="#6C7072" stroke-miterlimit="10" stroke-linecap="round"/>
<path d="M10.7666 38.0758L71.7866 24.4878" stroke="#6C7072" stroke-miterlimit="10" stroke-linecap="round"/>
<path d="M115.882 -8.53679e-06L38.3252 2.17212L41.3087 108.666L118.865 106.494L115.882 -8.53679e-06Z" fill="white"/>
<path d="M48.5293 96.8446L111.019 95.0898" stroke="#6C7072" stroke-miterlimit="10" stroke-linecap="round"/>
<path d="M48.3267 89.6382L110.824 87.8834" stroke="#6C7072" stroke-miterlimit="10" stroke-linecap="round"/>
<path d="M48.1245 82.4317L110.622 80.6844" stroke="#6C7072" stroke-miterlimit="10" stroke-linecap="round"/>
<path d="M47.9219 75.2329L110.419 73.4781" stroke="#6C7072" stroke-miterlimit="10" stroke-linecap="round"/>
<path d="M47.7197 68.0264L110.217 66.2716" stroke="#6C7072" stroke-miterlimit="10" stroke-linecap="round"/>
<path d="M47.5166 60.8199L110.014 59.0652" stroke="#6C7072" stroke-miterlimit="10" stroke-linecap="round"/>
<path d="M47.3145 53.6135L109.812 51.8662" stroke="#6C7072" stroke-miterlimit="10" stroke-linecap="round"/>
<path d="M47.1118 46.4146L109.609 44.6599" stroke="#6C7072" stroke-miterlimit="10" stroke-linecap="round"/>
<path d="M46.9097 39.2081L109.407 37.4534" stroke="#6C7072" stroke-miterlimit="10" stroke-linecap="round"/>
<path d="M46.707 32.0017L109.205 30.2469" stroke="#6C7072" stroke-miterlimit="10" stroke-linecap="round"/>
<path d="M46.5127 24.8028L109.003 23.0481" stroke="#6C7072" stroke-miterlimit="10" stroke-linecap="round"/>
<path d="M46.3096 17.5964L108.8 15.8416" stroke="#6C7072" stroke-miterlimit="10" stroke-linecap="round"/>
<path d="M109.759 12.0397C109.324 13.8844 108.889 15.7216 108.454 17.5663C108.229 18.5187 108.754 19.6435 109.766 19.876C110.726 20.0935 111.829 19.591 112.076 18.5637C112.511 16.719 112.946 14.8817 113.381 13.037C113.606 12.0847 113.081 10.9598 112.069 10.7274C111.101 10.5174 109.999 11.0198 109.759 12.0397Z" fill="#F15C4B"/>
<path d="M107.861 16.5915C109.654 17.0114 111.446 17.4388 113.239 17.8588C114.191 18.0837 115.316 17.5588 115.549 16.5465C115.766 15.5866 115.264 14.4843 114.236 14.2368C112.444 13.8169 110.651 13.3894 108.859 12.9695C107.906 12.7445 106.781 13.2695 106.549 14.2818C106.331 15.2417 106.834 16.344 107.861 16.5915Z" fill="#F15C4B"/>
<path d="M95.8845 16.0815C97.6845 16.6065 99.477 17.1314 101.277 17.6563C102.222 17.9338 103.362 17.3264 103.587 16.344C103.812 15.3392 103.287 14.3343 102.275 14.0343C100.475 13.5094 98.682 12.9845 96.8821 12.4596C95.9371 12.1821 94.7971 12.7895 94.5721 13.7719C94.3471 14.7767 94.8721 15.7891 95.8845 16.0815Z" fill="#F15C4B"/>
<path d="M100.392 5.08821C100.564 11.0723 100.744 17.0489 100.917 23.033C100.984 25.4402 104.734 25.4477 104.667 23.033C104.494 17.0489 104.314 11.0723 104.142 5.08821C104.074 2.68106 100.324 2.66607 100.392 5.08821Z" fill="#F15C4B"/>
<path d="M99.6717 3.7909C96.3417 8.43271 93.0192 13.082 89.6892 17.7238C89.0967 18.5487 89.5466 19.8085 90.3641 20.2885C91.3091 20.8434 92.3366 20.4384 92.9291 19.6136C96.2591 14.9717 99.5817 10.3224 102.912 5.68062C103.504 4.85574 103.054 3.59593 102.237 3.116C101.292 2.56859 100.264 2.96602 99.6717 3.7909Z" fill="#F15C4B"/>
</svg>
