<svg width="292" height="284" viewBox="0 0 292 284" fill="none" xmlns="http://www.w3.org/2000/svg">
<path d="M232.77 79.7832L211.155 57.5416C203.055 49.2103 203.25 35.8923 211.583 27.7935L233.828 6.1817C242.16 -1.9171 255.48 -1.72213 263.58 6.60914L285.195 28.8508C293.295 37.1821 293.1 50.5001 284.768 58.5989L262.523 80.2107C254.19 88.3095 240.87 88.122 232.77 79.7832Z" fill="#E8AECC"/>
<path d="M269.94 73.0536L219 20.6377L196.527 42.4718L247.466 94.8877L269.94 73.0536Z" fill="#6C7072"/>
<path d="M260.765 63.6108L252.538 55.1455L230.064 76.9796L238.291 85.4449L260.765 63.6108Z" fill="white"/>
<path d="M196.509 42.4195L21.4497 212.499L72.3896 264.915L247.449 94.8355L196.509 42.4195Z" fill="#F9C669"/>
<path d="M37.2227 228.779L174.15 95.7485" stroke="#F15C4B" stroke-width="9" stroke-miterlimit="10" stroke-linecap="round"/>
<path d="M1.5 282.846L72.3672 264.946L21.4349 212.529L1.5 282.846Z" fill="#E8E8E8"/>
<path d="M3.56982 280.836L14.8575 277.986L6.74239 269.64L3.56982 280.836Z" fill="#514F51" stroke="#525051" stroke-width="4" stroke-miterlimit="10"/>
</svg>
