<svg width="69" height="71" viewBox="0 0 69 71" fill="none" xmlns="http://www.w3.org/2000/svg">
<path d="M42.1276 2.32614L46.405 23.4259C46.5141 23.9642 46.8851 24.4151 47.387 24.6333L67.1951 33.0776C68.4681 33.6231 68.5699 35.3905 67.3624 36.0742L48.6091 46.664C48.129 46.9331 47.8162 47.4205 47.7653 47.9733L45.8594 69.4222C45.7357 70.8041 44.0845 71.4441 43.066 70.5059L27.2006 55.9447C26.7932 55.5738 26.2332 55.4211 25.6948 55.5448L4.70831 60.3597C3.35527 60.6724 2.23495 59.2977 2.8169 58.0395L11.7644 38.4526C11.9899 37.9507 11.9608 37.3688 11.6771 36.8961L0.612831 18.4219C-0.100057 17.2364 0.860146 15.7454 2.235 15.9054L23.6289 18.3638C24.1744 18.4292 24.7201 18.2183 25.0765 17.8037L39.2252 1.57697C40.1345 0.515069 41.8512 0.966033 42.1276 2.32614Z" fill="#F9C669"/>
</svg>
