<svg width="149" height="258" viewBox="0 0 149 258" fill="none" xmlns="http://www.w3.org/2000/svg">
<path d="M120.333 257.188L2.68021 240.248C0.970204 240.001 -0.214819 238.419 0.0326814 236.709L0.782682 231.482C1.03018 229.773 2.61275 228.588 4.32276 228.835L121.975 245.775C123.685 246.023 124.87 247.605 124.623 249.315L123.873 254.541C123.625 256.244 122.043 257.428 120.333 257.188Z" fill="#514F51"/>
<path d="M89.2457 217.437L57.9631 212.93L47.9656 225.633C46.1731 227.905 47.6581 230.312 50.5231 230.725L91.3607 236.604C94.2257 237.016 96.3258 235.127 95.2533 232.442L89.2457 217.437Z" fill="#CF3D7F"/>
<path d="M84.723 111.02C84.1455 110.938 83.6055 111.343 83.523 111.92L81.063 128.987C80.9655 129.64 81.1905 130.285 81.648 130.667L81.663 130.675C82.653 131.514 83.343 133.442 83.133 134.867L77.0204 177.393C76.9604 177.79 76.9754 178.195 77.0504 178.577L77.9654 183.182C78.0179 183.452 78.333 183.497 78.4605 183.257L80.6579 178.93C80.8379 178.578 80.9654 178.195 81.0254 177.798L87.138 135.271C87.3405 133.847 88.5481 132.362 89.7331 131.837L89.748 131.829C90.2881 131.59 90.6856 131.035 90.7831 130.382L93.2431 113.315C93.3256 112.737 92.9206 112.197 92.3431 112.115L84.723 111.02Z" fill="#CF3D7F"/>
<path opacity="0.3" d="M108.168 2.7136L100.413 1.59627C99.4157 1.45379 98.4856 2.14369 98.3431 3.14104L80.1556 129.407C80.0581 130.067 80.3356 130.735 80.8756 131.132L80.8906 131.14C82.0606 132.017 82.6606 133.457 82.4581 134.904L76.3456 177.355C76.2856 177.76 76.3081 178.173 76.4056 178.57L77.7931 184.104C77.8606 184.382 78.2281 184.434 78.3781 184.187L81.2731 179.267C81.4831 178.915 81.6181 178.525 81.6781 178.12L87.7906 135.669C88.0006 134.222 88.9831 133.007 90.3556 132.497L90.3706 132.489C91.0006 132.257 91.4506 131.702 91.5481 131.035L109.736 4.76831C109.856 3.77846 109.166 2.85608 108.168 2.7136Z" fill="white"/>
<path opacity="0.3" d="M96.7904 232.749L82.8179 197.835C82.4954 197.04 82.398 196.17 82.518 195.323L84.8204 179.35C84.9329 178.555 84.3854 177.82 83.5904 177.708L74.5904 176.41C73.7954 176.298 73.0605 176.845 72.948 177.64L70.6454 193.613C70.5254 194.46 70.1804 195.263 69.6479 195.937L46.3904 225.491C44.4854 227.913 45.9179 231.497 48.9704 231.932L92.4929 238.201C95.5529 238.644 97.9379 235.614 96.7904 232.749Z" fill="white"/>
<path d="M146.291 108.388L23.8309 90.7505C23.1334 90.6531 22.6459 90.0007 22.7434 89.3033L23.1484 86.5137C23.2459 85.8163 23.8983 85.3289 24.5959 85.4264L147.056 103.064C147.754 103.161 148.241 103.814 148.144 104.511L147.739 107.301C147.641 108.005 146.996 108.485 146.291 108.388Z" fill="#6C7072"/>
<path d="M12.2732 236.492L9.52814 236.094C8.81565 235.989 8.32067 235.329 8.42567 234.617L42.0555 1.11638C42.1605 0.40399 42.8205 -0.0909377 43.533 0.0140468L46.278 0.411487C46.9905 0.516471 47.4855 1.17637 47.3805 1.88877L13.7506 235.389C13.6456 236.102 12.9857 236.589 12.2732 236.492Z" fill="#6C7072"/>
<path d="M83.3504 101.939L82.0455 101.751C81.6329 101.691 81.3479 101.309 81.4079 100.897L82.6979 91.9429C82.7579 91.5305 83.1404 91.2455 83.5529 91.3055L84.858 91.4929C85.2705 91.5529 85.5554 91.9354 85.4954 92.3478L84.2055 101.302C84.1455 101.714 83.7629 101.999 83.3504 101.939Z" fill="#514F51"/>
<path d="M97.518 103.979L96.2129 103.791C95.8003 103.731 95.5154 103.349 95.5754 102.936L96.8654 93.9826C96.9254 93.5702 97.3079 93.2853 97.7204 93.3453L99.0255 93.5327C99.438 93.5927 99.723 93.9752 99.663 94.3876L98.3729 103.341C98.3129 103.754 97.9305 104.039 97.518 103.979Z" fill="#514F51"/>
<path d="M28.1502 92.093L26.9204 91.913C26.3654 91.8305 25.9829 91.3206 26.0654 90.7731L26.7478 86.0488C26.8303 85.4939 27.3403 85.1114 27.8878 85.1939L29.1177 85.3739C29.6727 85.4564 30.0552 85.9663 29.9727 86.5138L29.2902 91.2381C29.2152 91.7855 28.7052 92.168 28.1502 92.093Z" fill="#514F51"/>
<path d="M77.2907 152.406L75.1231 152.092C74.4706 151.994 74.0206 151.394 74.1106 150.742L75.0856 143.985C75.1831 143.333 75.7831 142.883 76.4356 142.973L78.6032 143.288C79.2557 143.385 79.7057 143.985 79.6157 144.638L78.6408 151.394C78.5508 152.047 77.9432 152.496 77.2907 152.406Z" fill="#514F51"/>
<path d="M33.6852 97.0871L28.3227 96.3147C27.8052 96.2397 27.4451 95.7598 27.5201 95.2424L29.3577 82.4943C29.4327 81.9769 29.9127 81.6169 30.4302 81.6919L35.7927 82.4643C36.3103 82.5393 36.6702 83.0192 36.5952 83.5366L34.7577 96.2847C34.6827 96.8022 34.2027 97.1621 33.6852 97.0871Z" fill="#514F51"/>
<path d="M95.8678 153.254L78.4828 150.749C77.1628 150.562 76.2402 149.332 76.4352 148.012L76.5178 147.435C76.7053 146.115 77.9352 145.193 79.2552 145.388L96.6404 147.892C97.9604 148.08 98.8828 149.31 98.6878 150.629L98.6054 151.207C98.4179 152.527 97.1878 153.441 95.8678 153.254Z" fill="#514F51"/>
<path d="M92.1031 159.68C91.2706 159.56 90.6931 158.788 90.8131 157.956L93.1832 141.511C93.3032 140.678 94.0756 140.101 94.9081 140.221C95.7406 140.341 96.3182 141.113 96.1982 141.946L93.8282 158.391C93.7082 159.223 92.9356 159.8 92.1031 159.68Z" fill="#6C7072"/>
<path d="M84.1229 159.005L79.323 158.316C78.9555 158.263 78.7004 157.918 78.7529 157.551L81.4979 138.504C81.5504 138.136 81.8954 137.881 82.2629 137.934L87.0629 138.624C87.4304 138.676 87.6854 139.021 87.6329 139.388L84.8879 158.436C84.8354 158.803 84.4979 159.058 84.1229 159.005Z" fill="#6C7072"/>
<path d="M87.2059 140.641L81.5583 139.831C80.8008 139.718 80.2757 139.021 80.3882 138.263C80.5007 137.506 81.1983 136.981 81.9558 137.094L87.6033 137.904C88.3608 138.016 88.8859 138.713 88.7734 139.471C88.6609 140.221 87.9559 140.746 87.2059 140.641Z" fill="#6C7072"/>
</svg>
