<svg width="252" height="146" viewBox="0 0 252 146" fill="none" xmlns="http://www.w3.org/2000/svg">
<g clip-path="url(#clip0)">
<path d="M231.39 119.81C228.682 121.049 226.653 123.612 224.832 126C223.519 127.748 222.161 129.641 221.724 131.817C221.118 135.297 223.049 138.6 224.878 141.474C220.65 140.093 216.217 139.128 211.769 138.715C212.61 132.2 214.134 125.736 216.366 119.49C216.683 118.711 216.952 117.838 217.672 117.263C218.787 116.41 220.391 116.744 221.714 117.231C225.424 118.532 229.253 119.95 231.39 119.81Z" fill="#FFECC7"/>
<path d="M82.1026 73.712C80.4363 72.3227 78.2742 70.7808 76.2416 71.5897C75.5405 71.8521 75.0071 72.3255 74.4513 72.8716C71.094 76.2214 69.3806 81.0333 69.0768 85.8008C68.9643 87.6786 68.9934 89.6001 69.6788 91.4048C70.2934 93.1877 71.6091 94.7082 73.3578 95.326C75.1064 95.9438 77.2843 95.4186 78.3178 93.8241C78.7767 93.0888 79.0455 92.2152 79.2435 91.3199C80.5917 85.6785 81.9175 80.1098 82.1026 73.712Z" fill="#FFECC7"/>
<path d="M222.621 115.04L80.2305 71.2238L73.2639 93.8631L215.654 137.679L222.621 115.04Z" fill="#FFECC7"/>
<path d="M74.0443 70.9139C74.3131 70.0404 75.2455 69.5304 76.0956 69.792L234.921 118.666C235.771 118.927 236.255 119.873 235.986 120.747C235.718 121.62 234.785 122.13 233.935 121.869L75.1808 73.0168C74.2375 72.8062 73.7531 71.8603 74.0443 70.9139Z" fill="#2D7680"/>
<path d="M227.981 141.472L69.156 92.5987C68.9435 92.5333 68.7794 92.5625 68.6378 92.5189C69.5956 93.6902 69.4612 94.127 70.6764 95.2182C71.7015 96.1711 72.8423 97.0003 74.0986 97.7056L227.044 144.77C227.894 145.032 228.827 144.522 229.095 143.648C229.364 142.775 228.902 141.756 227.981 141.472Z" fill="#2C7580"/>
<path d="M80.3565 73.3344C78.2125 72.9934 76.6613 72.9942 75.3965 74.8363C72.3372 79.234 70.6087 84.5991 70.5955 89.9341C70.5877 90.9676 71.4711 91.877 71.109 92.8015C70.9298 93.3839 72.6524 93.8343 74.114 94.1247C73.8923 88.797 74.2821 83.4981 76.346 78.5551C77.3873 75.9271 78.7599 74.9947 80.3565 73.3344Z" fill="#2D7680"/>
<path d="M79.8055 71.093L26.8066 1.39296L182.657 49.3512L235.655 119.051L79.8055 71.093Z" fill="#4295A0"/>
<path d="M68.2796 92.1697C69.5953 93.6902 69.3192 94.0834 70.5829 95.2692C70.8923 95.5237 71.1793 95.8511 71.5595 96.1275C70.9508 88.5292 71.0892 77.4951 80.2087 71.2965C68.0409 42.2911 29.0184 1.51554 26.8072 1.39293C22.2916 1.19871 15.8735 22.8115 18.8998 27.0896C36.7183 52.0964 50.0136 67.105 67.9702 91.9151C68.0895 92.0315 68.1603 92.0533 68.2796 92.1697Z" fill="#4295A0"/>
<path d="M32.8538 4.92719C51.0694 25.1155 66.5247 47.7216 84.136 68.3614C83.0583 68.5876 82.104 67.6564 81.3623 66.7907C76.8598 61.2614 72.3574 55.7321 67.8326 50.2756C55.1154 34.6481 42.3274 18.9988 29.5879 3.44406C31.0604 4.45501 32.6038 5.48776 32.8538 4.92719Z" fill="#2D7680"/>
<path d="M88.0763 73.9565C86.5663 73.5715 85.1495 73.1355 83.6394 72.7505C84.0947 71.775 84.3599 70.6612 84.2969 69.6059C85.6683 71.7014 87.4575 73.4473 88.0763 73.9565Z" fill="#2D7680"/>
<path d="M31.9076 2.9625C32.1013 3.34088 32.0377 3.79945 31.7841 4.11983C30.1026 3.28367 28.701 2.29452 27.0195 1.45836C28.5072 1.91614 29.924 2.35213 31.9076 2.9625Z" fill="#2D7680"/>
</g>
<defs>
<clipPath id="clip0">
<rect width="238.367" height="78.1441" fill="white" transform="translate(23.7617 0.455597) rotate(17.1042)"/>
</clipPath>
</defs>
</svg>
