<svg width="206" height="165" viewBox="0 0 206 165" fill="none" xmlns="http://www.w3.org/2000/svg">
<g clip-path="url(#clip0)">
<path d="M144.345 79.7356C145.649 78.123 147.397 76.3945 149.341 77.0258C149.961 77.212 150.608 77.7129 151.098 78.1476C154.608 81.2627 156.821 86.0689 157.819 90.8173C158.207 92.7651 158.445 94.7253 158.069 96.5779C157.692 98.4306 156.777 100.169 155.326 100.923C153.8 101.683 151.801 101.294 150.619 99.8074C150.028 99.0643 149.731 98.2178 149.428 97.2925C147.457 91.7535 145.486 86.2144 144.345 79.7356Z" fill="#FFECC7"/>
<path d="M145.708 76.9855L22.5215 133.42L32.0656 155.91L155.252 99.4763L145.708 76.9855Z" fill="#FFECC7"/>
<path d="M151.694 77.1477L150.849 75.1585C150.666 74.7777 150.278 74.6514 149.984 74.755L11.0632 138.512C10.7005 138.701 10.5828 139.106 10.6839 139.415L11.5293 141.404C11.7121 141.785 12.1008 141.911 12.3948 141.807L151.322 78.1289C151.684 77.9405 151.877 77.5286 151.694 77.1477Z" fill="#D13A7F"/>
<path d="M21.4605 160.857L158.861 97.9378C159.005 97.8467 159.155 97.8343 159.306 97.8219C158.658 99.1425 158.766 99.5296 157.88 100.712C157.057 101.73 156.152 102.676 155.158 103.471L22.8607 164.067C22.1354 164.444 21.1882 163.968 20.8096 163.049C20.3623 162.215 20.7286 161.155 21.4605 160.857Z" fill="#D13A7F"/>
<path d="M145.958 79.1269C147.885 78.6507 149.306 78.454 150.74 80.2362C154.116 84.4711 156.519 89.7369 157.274 95.218C157.434 96.2343 156.767 97.319 157.221 98.2319C157.492 98.7638 155.96 99.4449 154.702 99.7865C154.178 94.3654 153.053 88.9939 150.457 84.1401C149.034 81.5651 147.604 80.7331 145.958 79.1269Z" fill="#D13A7F"/>
<path d="M146.07 76.821L184.319 1.43188L49.5448 63.1831L11.2959 138.572L146.07 76.821Z" fill="#D466A4"/>
<path d="M159.567 97.3251C158.57 98.9914 158.903 99.3598 157.874 100.633C157.674 100.966 157.393 101.227 157.119 101.566C156.55 93.7732 154.862 82.5087 145.707 77.0094C152.641 46.5002 182.378 1.75077 184.319 1.4319C188.432 0.854173 197.323 22.3728 195.132 26.9888C182.532 53.9277 172.543 70.3552 159.698 97.0767C159.705 97.1553 159.636 97.2402 159.567 97.3251Z" fill="#D466A4"/>
<path d="M179.364 5.5638C165.678 27.6031 154.83 51.942 141.715 74.4884C142.712 74.6436 143.453 73.5527 143.983 72.6378C147.272 66.6638 150.635 60.6836 153.917 54.6309C163.335 37.6963 172.671 20.6892 182.089 3.75453C180.896 4.88271 179.635 6.09576 179.364 5.5638Z" fill="#D13A7F"/>
<path d="M138.961 80.4975C140.281 79.9924 141.519 79.4148 142.839 78.9097C142.303 77.9244 141.912 76.8481 141.746 75.7531C140.863 77.8852 139.435 79.8248 138.961 80.4975Z" fill="#D13A7F"/>
<path d="M179.947 3.45653C179.829 3.86225 179.943 4.32798 180.194 4.62397C181.626 3.63446 182.743 2.5125 184.174 1.52299C182.936 2.10057 181.623 2.68436 179.947 3.45653Z" fill="#D13A7F"/>
</g>
<defs>
<clipPath id="clip0">
<rect width="193.689" height="148.854" fill="white" transform="translate(0.53125 16.6308) rotate(-4.72745)"/>
</clipPath>
</defs>
</svg>
