<svg width="597" height="469" viewBox="0 0 597 469" fill="none" xmlns="http://www.w3.org/2000/svg">
<g clip-path="url(#clip0)">
<path d="M-156 -57.4279C-147.1 -78.5279 -115.9 -73.6279 -95.4002 -63.5279C-20.3002 -26.6279 43.7998 32.2721 87.0998 103.972C115.8 151.472 136 205.172 175 244.672C225.6 295.872 299.2 314.872 367.3 338.172C444.9 364.672 520.9 399.972 581.8 454.872C676.5 540.172 726 664.572 758.8 787.772C761 796.172 763.2 805.272 760.4 813.472C756.8 824.072 746.2 830.472 736.1 835.472C645.5 880.672 541.5 891.172 440.3 889.172C339.1 887.172 238.3 873.772 137.1 874.372C57.9998 874.872 -20.9002 883.872 -100 882.172C-145.9 881.172 -196.5 874.172 -226.3 839.272C-245.7 816.672 -252.6 786.172 -256.9 756.772C-279.7 600.672 -245.9 441.172 -261.3 284.172C-267.3 222.872 -280.8 160.772 -269 100.272C-253.3 19.7721 -195.5 -45.0279 -138.3 -103.828" fill="#3C519C"/>
<path d="M453.134 420.14C453.134 424.894 449.281 428.747 444.527 428.747C439.773 428.747 435.92 424.894 435.92 420.14C435.92 415.387 439.773 411.533 444.527 411.533C449.281 411.533 453.134 415.387 453.134 420.14Z" fill="#F9C669"/>
<path d="M162.328 375.681C162.328 385.128 154.67 392.787 145.223 392.787C135.776 392.787 128.117 385.128 128.117 375.681C128.117 366.234 135.776 358.576 145.223 358.576C154.67 358.576 162.328 366.234 162.328 375.681Z" fill="#F9C669"/>
<rect x="99.1816" y="178.744" width="63.1474" height="22.8405" rx="11.4203" fill="#F9C669"/>
</g>
<defs>
<clipPath id="clip0">
<rect width="871" height="889" fill="white" transform="translate(-274)"/>
</clipPath>
</defs>
</svg>
