<svg width="194" height="193" viewBox="0 0 194 193" fill="none" xmlns="http://www.w3.org/2000/svg">
<path d="M188.599 55.6156C158.013 41.4134 129.379 23.8793 103.254 3.51444C81.9712 46.553 44.795 81.7294 4.62474 110.804C35.0019 138.5 67.5126 164.078 101.946 187.314C102.913 187.973 103.879 188.633 105.087 188.585C106.43 188.591 107.608 187.789 108.721 187.047C154.45 155.836 186.915 106.778 188.599 55.6156Z" fill="#EDEDED"/>
<path d="M167.036 74.4252C162.569 71.8687 158.167 69.2515 153.765 66.6343C149.361 63.959 144.956 61.2838 140.55 58.5505C136.21 55.8146 131.938 53.0761 127.665 50.3375C123.39 47.5409 119.116 44.7443 114.906 41.8871C110.696 39.0298 106.483 36.1145 102.271 33.1992C101.785 32.8114 101.235 32.4842 100.75 32.0964C100.405 31.8774 99.9517 32.3021 100.296 32.5211C104.441 35.4391 108.654 38.3544 112.864 41.2116C117.074 44.0689 121.351 46.9235 125.626 49.7201C129.9 52.5167 134.242 55.3107 138.582 58.0466C142.921 60.7825 147.326 63.4577 151.73 66.133C156.135 68.8082 160.604 71.4228 165.006 74.04C165.556 74.3671 166.106 74.6943 166.657 75.0214C167.131 75.119 167.379 74.5861 167.036 74.4252Z" fill="#2A2E74"/>
<path d="M156.755 88.0247C148.207 82.4896 139.729 77.0098 131.18 71.4167C122.699 65.8789 114.217 60.2831 105.734 54.6872C100.976 51.5609 96.2854 48.4319 91.5251 45.2474C91.1806 45.0285 90.7271 45.4532 91.0716 45.6722C99.487 51.2706 107.972 56.9245 116.452 62.4623C124.935 68.0581 133.415 73.5959 141.962 79.131C146.72 82.2574 151.476 85.3257 156.299 88.3914C156.646 88.6684 157.099 88.2437 156.755 88.0247Z" fill="#2A2E74"/>
<path d="M146.197 99.6587C137.913 93.997 129.695 88.2745 121.411 82.6128C113.127 76.951 104.908 71.2286 96.6249 65.5668L82.6794 56.0004C82.3349 55.7814 81.8814 56.2061 82.2259 56.4251C90.5095 62.0869 98.7283 67.8093 107.012 73.4711C115.296 79.1328 123.514 84.8553 131.798 90.517C136.424 93.7067 141.117 96.8938 145.743 100.083C146.09 100.36 146.544 99.9358 146.197 99.6587Z" fill="#2A2E74"/>
<path d="M137.654 114.759C129.514 109.325 121.438 103.829 113.492 98.2121C105.546 92.5952 97.7321 86.915 89.9805 81.116C85.6203 77.8577 81.2579 74.5414 76.9626 71.2225C76.6181 71.0035 76.1646 71.4282 76.5091 71.6472C84.1982 77.5649 91.952 83.4218 99.7684 89.1601C107.585 94.8984 115.531 100.515 123.539 106.013C128.027 109.092 132.581 112.169 137.203 115.242C137.545 115.403 137.998 114.978 137.654 114.759Z" fill="#2A2E74"/>
<path d="M133.718 127.412C129.443 124.615 125.233 121.758 121.025 118.959C116.815 116.102 112.675 113.3 108.529 110.382C104.386 107.522 100.241 104.604 96.0983 101.744C91.9531 98.8261 87.8749 95.9056 83.7968 92.985C79.7186 90.0644 75.6382 87.0858 71.6248 84.1045C71.1394 83.7167 70.5868 83.3315 70.1013 82.9437C69.8239 82.7221 69.4352 83.0861 69.7126 83.3077C73.793 86.2864 77.8735 89.265 81.9539 92.2436C86.0321 95.1642 90.1125 98.1428 94.2577 101.061C98.4029 103.979 102.479 106.841 106.691 109.757C110.834 112.616 115.044 115.474 119.187 118.334C123.397 121.191 127.605 123.99 131.813 126.789C132.363 127.116 132.848 127.504 133.399 127.831C133.607 127.998 133.995 127.634 133.718 127.412Z" fill="#2A2E74"/>
<path d="M122.041 139.671C117.755 136.584 113.469 133.498 109.18 130.353C104.894 127.266 100.608 124.179 96.3195 121.034C92.0333 117.948 87.7471 114.861 83.4586 111.716C79.1724 108.629 74.8862 105.542 70.5977 102.398C66.3115 99.3108 62.0252 96.2241 57.7368 93.0792C57.1842 92.694 56.6987 92.3062 56.1462 91.921C55.8017 91.702 55.3482 92.1268 55.6927 92.3458C59.9789 95.4326 64.2651 98.5193 68.5536 101.664C72.8398 104.751 77.126 107.838 81.4145 110.983C85.7007 114.069 89.9869 117.156 94.2754 120.301C98.5616 123.388 102.848 126.475 107.136 129.619C111.423 132.706 115.709 135.793 119.997 138.938C120.55 139.323 121.035 139.711 121.588 140.096C121.935 140.373 122.388 139.948 122.041 139.671Z" fill="#2A2E74"/>
<path d="M110.376 150.535C105.885 147.34 101.46 144.142 96.9653 140.889C92.5381 137.634 88.1132 134.436 83.686 131.181C79.2588 127.925 74.8316 124.669 70.4692 121.353C66.1091 118.095 61.6796 114.781 57.3172 111.465C52.9547 108.148 48.5923 104.832 44.2947 101.455C43.7399 101.012 43.1873 100.627 42.6325 100.183C42.288 99.9644 41.8345 100.389 42.179 100.608C46.4766 103.985 50.839 107.301 55.2014 110.618C59.5638 113.934 63.9262 117.25 68.3534 120.506C72.7159 123.822 77.1431 127.078 81.5703 130.334C85.9975 133.589 90.4247 136.845 94.8519 140.101C99.2791 143.356 103.771 146.551 108.263 149.746C108.816 150.131 109.37 150.575 109.99 150.957C110.267 151.179 110.721 150.754 110.376 150.535Z" fill="#2A2E74"/>
<path d="M97.2498 161.805C89.5516 155.655 81.7863 149.508 74.0881 143.358L50.8571 124.856C46.4901 121.423 42.1879 117.93 37.8209 114.498C37.4742 114.221 37.0229 114.704 37.3674 114.923C45.0656 121.073 52.8309 127.22 60.5291 133.37C68.2273 139.519 75.9926 145.667 83.6908 151.816C88.0578 155.249 92.36 158.742 96.7269 162.174C97.0737 162.451 97.5272 162.027 97.2498 161.805Z" fill="#2A2E74"/>
<path d="M174.749 58.7177C170.922 60.4957 167.165 62.3292 163.413 64.2787C162.953 64.5293 163.378 65.0939 163.838 64.8433C167.195 63.0837 170.556 61.4402 173.92 59.8547C172.286 62.7092 170.994 65.7246 170.242 68.835C170.127 69.3046 170.938 69.4471 171.054 68.9775C171.926 65.5136 173.341 62.2027 175.301 59.1029C175.56 58.8602 175.079 58.5885 174.749 58.7177Z" fill="#B30024"/>
<path d="M171.328 63.9676C168.921 62.5508 166.387 61.3134 163.73 60.3715C163.254 60.2158 162.874 60.8121 163.351 60.9677C166.01 61.9677 168.542 63.147 170.948 64.5638C171.362 64.8382 171.742 64.242 171.328 63.9676Z" fill="#B30024"/>
<path d="M176.44 64.1735C176.097 65.6984 175.752 67.1652 175.409 68.69C175.293 69.1596 176.105 69.3021 176.22 68.8325C176.564 67.3077 176.909 65.8408 177.252 64.316C177.303 63.9071 176.491 63.7646 176.44 64.1735Z" fill="#B30024"/>
<path d="M178.762 66.8144C177.129 66.2972 175.437 65.9569 173.751 65.7906C173.549 65.7985 173.283 65.8671 173.29 66.0412C173.23 66.218 173.373 66.4449 173.575 66.437C175.26 66.6032 176.953 66.9436 178.586 67.4607C178.789 67.5109 179.053 67.3842 179.046 67.2101C179.106 67.0333 178.965 66.8645 178.762 66.8144Z" fill="#B30024"/>
</svg>
