<svg width="453" height="1593" viewBox="0 0 453 1593" fill="none" xmlns="http://www.w3.org/2000/svg">
<g clip-path="url(#clip0)">
<path d="M650.029 452.413C576.283 458.593 497.127 478.785 452.472 537.765C418.437 582.872 410.757 643.116 379.945 690.634C349.693 737.422 300.097 767.491 254.662 799.726C209.185 831.806 163.798 871.203 149.419 925.022C140.153 959.899 145.076 996.991 154.496 1031.82C168.51 1083.48 219.046 1086.76 243.451 1134.44C271.728 1189.54 324.374 1231.95 365.821 1278.09C407.267 1324.24 466.908 1416.42 507.698 1549.43C580.474 1561.45 620.455 1414.03 680.573 1371.61C740.847 1329.16 789.234 1272.62 838.584 1217.84C938.096 1107.56 1043.98 1002.45 1131.19 882.204C1218.59 762.073 1287.1 623.769 1299.64 475.738C1301.62 452.192 1302.12 427.782 1293.19 405.92C1285.24 386.475 1270.55 370.625 1255.42 355.973C1216.15 318.099 1154.81 259.13 1095.5 258.95C1053.28 258.722 1026.29 292.226 999.651 320.383C957.577 364.755 915.019 406.333 855.904 426.876C789.983 449.783 718.63 446.66 650.029 452.413Z" fill="#3C519C"/>
<path d="M318.939 796.506L254.271 796.506C242.719 796.506 233.277 787.052 233.277 775.515C233.277 763.964 242.732 754.523 254.271 754.523L318.939 754.523C330.491 754.523 339.933 763.977 339.933 775.514C339.946 787.052 330.491 796.506 318.939 796.506Z" fill="#F9C669"/>
<circle cx="353.845" cy="940.161" r="13.9117" fill="#F9C669"/>
<rect x="336.184" y="1275.65" width="63.1474" height="22.8405" rx="11.4203" fill="#F9C669"/>
</g>
<g clip-path="url(#clip1)">
<path d="M180.948 1002.94C154.814 1025.17 128.77 1047.29 102.636 1069.52C99.7709 1071.93 96.8165 1074.45 95.578 1078C93.6892 1083.03 95.5738 1088.56 97.6054 1093.58C121.008 1151.16 163.691 1200.8 217.093 1232.73C252.624 1202.27 286.326 1169.7 318.029 1135.32C289.741 1119.57 261.58 1103.11 236.862 1082.06C212.144 1061.01 191.047 1035.16 180.948 1002.94Z" fill="#EDEDED"/>
<path d="M181.072 1045.55C173.157 1051.61 165.253 1057.76 157.449 1063.9C149.644 1070.05 141.74 1076.2 134.046 1082.43C129.693 1086 125.241 1089.59 120.888 1093.16C120.332 1093.62 121.043 1094.65 121.588 1094.09C129.273 1087.76 137.067 1081.51 144.861 1075.27C152.655 1069.03 160.46 1062.89 168.364 1056.73C172.826 1053.25 177.289 1049.77 181.762 1046.39C182.328 1046.03 181.617 1044.99 181.072 1045.55Z" fill="#3F4381"/>
<path d="M191.621 1066.67C176.003 1076.95 160.636 1087.7 145.62 1098.92C141.424 1102.07 137.229 1105.23 133.044 1108.48C132.389 1108.95 133.1 1109.98 133.744 1109.41C148.63 1097.9 163.778 1086.97 179.265 1076.41C183.58 1073.44 187.995 1070.47 192.421 1067.59C192.987 1067.23 192.286 1066.3 191.621 1066.67Z" fill="#3F4381"/>
<path d="M198.255 1082.07C184.626 1092.14 170.898 1102.22 157.27 1112.28C153.441 1115.1 149.612 1117.91 145.694 1120.83C145.04 1121.3 145.74 1122.23 146.395 1121.76C160.023 1111.7 173.751 1101.62 187.38 1091.55C191.209 1088.73 195.037 1085.92 198.955 1083C199.62 1082.63 198.909 1081.6 198.255 1082.07Z" fill="#3F4381"/>
<path d="M217.632 1092.41C209.247 1097.81 200.893 1103.51 192.759 1109.38C184.625 1115.26 176.601 1121.23 168.708 1127.48C164.245 1130.96 159.892 1134.53 155.549 1138.2C154.994 1138.66 155.705 1139.69 156.25 1139.13C163.924 1132.7 171.818 1126.45 179.831 1120.39C187.845 1114.32 195.979 1108.45 204.234 1102.76C208.926 1099.55 213.629 1096.45 218.333 1093.34C218.998 1092.97 218.297 1092.04 217.632 1092.41Z" fill="#3F4381"/>
<path d="M232.165 1107.38C223.606 1114.01 215.037 1120.53 206.478 1127.16C197.919 1133.78 189.35 1140.31 180.792 1146.93C175.952 1150.65 171.112 1154.37 166.183 1158.21C165.528 1158.68 166.239 1159.71 166.884 1159.14C175.442 1152.52 184.011 1145.99 192.57 1139.37C201.129 1132.74 209.698 1126.22 218.257 1119.59C223.096 1115.87 227.936 1112.15 232.865 1108.32C233.431 1107.96 232.72 1106.92 232.165 1107.38Z" fill="#3F4381"/>
<path d="M250.886 1117.19C242.379 1124.32 233.872 1131.44 225.355 1138.46C216.748 1145.59 208.132 1152.62 199.515 1159.66C194.696 1163.58 189.877 1167.5 184.959 1171.43C184.304 1171.9 185.114 1172.92 185.659 1172.36C194.286 1165.43 202.903 1158.4 211.42 1151.38C220.037 1144.34 228.643 1137.21 237.15 1130.09C241.958 1126.07 246.767 1122.05 251.487 1118.14C252.141 1117.67 251.441 1116.73 250.886 1117.19Z" fill="#3F4381"/>
<path d="M271.408 1127.92C261.571 1135.79 251.854 1143.84 242.467 1152.16C233.08 1160.48 223.802 1168.88 214.766 1177.67C209.642 1182.53 204.639 1187.57 199.735 1192.61C199.19 1193.17 200.168 1193.87 200.724 1193.41C209.541 1184.45 218.489 1175.77 227.756 1167.27C236.923 1158.77 246.321 1150.55 255.839 1142.52C261.192 1137.94 266.666 1133.54 272.239 1129.14C272.664 1128.39 271.963 1127.46 271.408 1127.92Z" fill="#3F4381"/>
</g>
<defs>
<clipPath id="clip0">
<rect width="837.241" height="1354.89" fill="white" transform="translate(683.791 0.395264) rotate(30.3007)"/>
</clipPath>
<clipPath id="clip1">
<rect width="216.7" height="232.3" fill="white" transform="translate(87.3555 1012.7) rotate(-5.95752)"/>
</clipPath>
</defs>
</svg>
