<svg width="359" height="876" viewBox="0 0 359 876" fill="none" xmlns="http://www.w3.org/2000/svg">
<g clip-path="url(#clip0)">
<path d="M556.029 -83.5871C482.283 -77.4071 403.127 -57.2151 358.472 1.76489C324.437 46.8719 316.757 107.116 285.945 154.634C255.693 201.422 206.097 231.491 160.662 263.726C115.185 295.806 69.7981 335.203 55.4191 389.022C46.1531 423.899 51.0761 460.991 60.4961 495.82C74.5101 547.48 125.046 550.76 149.451 598.44C177.728 653.54 230.374 695.95 271.821 742.09C313.267 788.24 372.908 880.42 413.698 1013.43C486.474 1025.45 526.455 878.03 586.573 835.61C646.847 793.16 695.234 736.62 744.584 681.84C844.096 571.56 949.98 466.45 1037.19 346.204C1124.59 226.073 1193.1 87.7689 1205.64 -60.2621C1207.62 -83.8081 1208.12 -108.218 1199.19 -130.08C1191.24 -149.525 1176.55 -165.375 1161.42 -180.027C1122.15 -217.901 1060.81 -276.87 1001.5 -277.05C959.28 -277.278 932.29 -243.774 905.651 -215.617C863.577 -171.245 821.019 -129.667 761.904 -109.124C695.983 -86.2171 624.63 -89.3401 556.029 -83.5871Z" fill="#3C519C"/>
<path d="M224.939 260.506H160.271C148.719 260.506 139.277 251.052 139.277 239.515C139.277 227.964 148.732 218.523 160.271 218.523H224.939C236.491 218.523 245.933 227.977 245.933 239.514C245.946 251.052 236.491 260.506 224.939 260.506Z" fill="#F9C669"/>
<path d="M259.845 418.072C267.529 418.072 273.757 411.844 273.757 404.161C273.757 396.477 267.529 390.249 259.845 390.249C252.162 390.249 245.934 396.477 245.934 404.161C245.934 411.844 252.162 418.072 259.845 418.072Z" fill="#F9C669"/>
<path d="M293.911 739.65H253.604C247.297 739.65 242.184 744.763 242.184 751.07C242.184 757.377 247.297 762.49 253.604 762.49H293.911C300.218 762.49 305.331 757.377 305.331 751.07C305.331 744.763 300.218 739.65 293.911 739.65Z" fill="#F9C669"/>
<path d="M86.948 466.94C60.814 489.17 34.77 511.29 8.63602 533.52C5.77092 535.93 2.81652 538.45 1.57802 542C-0.310781 547.03 1.57382 552.56 3.60542 557.58C27.008 615.16 69.691 664.8 123.093 696.73C158.624 666.27 192.326 633.7 224.029 599.32C195.741 583.57 167.58 567.11 142.862 546.06C118.144 525.01 97.047 499.16 86.948 466.94Z" fill="#EDEDED"/>
<path d="M87.072 509.55C79.157 515.61 71.253 521.76 63.449 527.9C55.644 534.05 47.74 540.2 40.046 546.43C35.693 550 31.241 553.59 26.888 557.16C26.332 557.62 27.043 558.65 27.588 558.09C35.273 551.76 43.067 545.51 50.861 539.27C58.655 533.03 66.46 526.89 74.364 520.73C78.826 517.25 83.289 513.77 87.762 510.39C88.328 510.03 87.617 508.99 87.072 509.55Z" fill="#3F4381"/>
<path d="M97.6211 530.67C82.0031 540.95 66.6361 551.7 51.6201 562.92C47.4241 566.07 43.2291 569.23 39.0441 572.48C38.3891 572.95 39.1001 573.98 39.7441 573.41C54.6301 561.9 69.7781 550.97 85.2651 540.41C89.5801 537.44 93.9951 534.47 98.4211 531.59C98.9871 531.23 98.2861 530.3 97.6211 530.67Z" fill="#3F4381"/>
<path d="M104.255 546.07C90.6263 556.14 76.8983 566.22 63.2703 576.28C59.4413 579.1 55.6122 581.91 51.6942 584.83C51.0402 585.3 51.7403 586.23 52.3953 585.76C66.0233 575.7 79.7513 565.62 93.3803 555.55C97.2093 552.73 101.037 549.92 104.955 547C105.62 546.63 104.909 545.6 104.255 546.07Z" fill="#3F4381"/>
<path d="M123.632 556.41C115.247 561.81 106.893 567.51 98.759 573.38C90.625 579.26 82.601 585.23 74.708 591.48C70.245 594.96 65.892 598.53 61.549 602.2C60.994 602.66 61.705 603.69 62.25 603.13C69.924 596.7 77.818 590.45 85.831 584.39C93.845 578.32 101.979 572.45 110.234 566.76C114.926 563.55 119.629 560.45 124.333 557.34C124.998 556.97 124.297 556.04 123.632 556.41Z" fill="#3F4381"/>
<path d="M138.165 571.38C129.606 578.01 121.037 584.53 112.478 591.16C103.919 597.78 95.3502 604.31 86.7922 610.93C81.9522 614.65 77.1122 618.37 72.1832 622.21C71.5282 622.68 72.2392 623.71 72.8842 623.14C81.4422 616.52 90.0112 609.99 98.5702 603.37C107.129 596.74 115.698 590.22 124.257 583.59C129.096 579.87 133.936 576.15 138.865 572.32C139.431 571.96 138.72 570.92 138.165 571.38Z" fill="#3F4381"/>
<path d="M156.886 581.19C148.379 588.32 139.872 595.44 131.355 602.46C122.748 609.59 114.132 616.62 105.515 623.66C100.696 627.58 95.8771 631.5 90.9591 635.43C90.3041 635.9 91.1141 636.92 91.6591 636.36C100.286 629.43 108.903 622.4 117.42 615.38C126.037 608.34 134.643 601.21 143.15 594.09C147.958 590.07 152.767 586.05 157.487 582.14C158.141 581.67 157.441 580.73 156.886 581.19Z" fill="#3F4381"/>
<path d="M177.408 591.92C167.571 599.79 157.854 607.84 148.467 616.16C139.08 624.48 129.802 632.88 120.766 641.67C115.642 646.53 110.639 651.57 105.735 656.61C105.19 657.17 106.168 657.87 106.724 657.41C115.541 648.45 124.489 639.77 133.756 631.27C142.923 622.77 152.321 614.55 161.839 606.52C167.192 601.94 172.666 597.54 178.239 593.14C178.664 592.39 177.963 591.46 177.408 591.92Z" fill="#3F4381"/>
</g>
<defs>
<clipPath id="clip0">
<rect width="359" height="876" fill="white"/>
</clipPath>
</defs>
</svg>
