<svg width="594" height="635" viewBox="0 0 594 635" fill="none" xmlns="http://www.w3.org/2000/svg">
<g clip-path="url(#clip0)">
<path d="M617.336 -215.701C620.08 -160.931 622.824 -105.624 610.73 -51.5432C598.635 2.5378 570.686 56.0825 519.464 95.0728C428.299 164.627 275.647 180.867 204.199 262.525C149.927 324.572 159.379 405.923 128.991 476.704C105.005 532.546 56.7298 580.346 8.35269 626.384C-30.3694 663.306 -69.7012 699.845 -109.643 736.001C-146.942 638.104 -162.898 536.3 -172.96 434.649C-193.287 229.739 -189.425 20.386 -112.184 -176.711C-103.037 -199.768 -92.1621 -223.591 -69.498 -240.52C-37.9918 -264.037 9.47065 -269.552 53.5792 -271.544C165.274 -276.676 277.171 -267.177 388.357 -257.755" fill="#3C519C"/>
<path d="M566.734 83.7381H529.031C522.296 83.7381 516.791 78.2264 516.791 71.4999C516.791 64.7659 522.303 59.2617 529.031 59.2617H566.734C573.469 59.2617 578.974 64.7734 578.974 71.4999C578.981 78.2264 573.469 83.7381 566.734 83.7381Z" fill="#F9C669"/>
<path d="M350 133C353.314 133 356 130.314 356 127C356 123.686 353.314 121 350 121C346.686 121 344 123.686 344 127C344 130.314 346.686 133 350 133Z" fill="#F9C669"/>
<path d="M152.054 366.642C159.737 366.642 165.966 360.413 165.966 352.73C165.966 345.047 159.737 338.818 152.054 338.818C144.371 338.818 138.142 345.047 138.142 352.73C138.142 360.413 144.371 366.642 152.054 366.642Z" fill="#F9C669"/>
<path d="M43.7369 231.507H3.43007C-2.87719 231.507 -7.99023 236.62 -7.99023 242.927C-7.99023 249.234 -2.87719 254.347 3.43007 254.347H43.7369C50.0441 254.347 55.1572 249.234 55.1572 242.927C55.1572 236.62 50.0441 231.507 43.7369 231.507Z" fill="#F9C669"/>
</g>
<defs>
<clipPath id="clip0">
<rect width="594" height="635" fill="white"/>
</clipPath>
</defs>
</svg>
