<svg width="40" height="60" viewBox="0 0 40 60" fill="none" xmlns="http://www.w3.org/2000/svg">
<path d="M9 12.8689C9 11.7643 9.89543 10.8689 11 10.8689L29.4075 10.8689C30.5121 10.8689 31.4075 11.7643 31.4075 12.8689L31.4075 55.3334C31.4075 56.9633 29.5624 57.9088 28.2394 56.9568L21.3718 52.0155C20.674 51.5134 19.7335 51.5134 19.0357 52.0155L12.1681 56.9568C10.8451 57.9088 9 56.9633 9 55.3334L9 12.8689Z" fill="#F15D4B"/>
<path d="M11.9121 10C11.9121 9.44771 12.3598 9 12.9121 9H27.4939C28.0462 9 28.4939 9.44772 28.4939 10L28.4939 51.4891C28.4939 52.3058 27.5678 52.7781 26.9067 52.2985L21.9647 48.7131C20.9139 47.9508 19.4921 47.9508 18.4413 48.7131L13.4993 52.2985C12.8382 52.7781 11.9121 52.3058 11.9121 51.4891L11.9121 10Z" stroke="#FFB55F" stroke-width="2"/>
<circle cx="19.9397" cy="19.9397" r="19.9397" fill="#F9C669"/>
<circle cx="19.9393" cy="19.9398" r="16.3143" fill="#F4B060"/>
<circle cx="19.8258" cy="19.8264" r="14.6149" fill="#F9C669"/>
<path d="M18.0321 11.338C18.7657 9.85146 20.8854 9.85146 21.619 11.338L22.9229 13.9799C23.2142 14.5702 23.7774 14.9793 24.4288 15.074L27.3444 15.4976C28.9848 15.736 29.6398 17.752 28.4528 18.909L26.3431 20.9655C25.8717 21.425 25.6566 22.087 25.7679 22.7358L26.2659 25.6396C26.5461 27.2734 24.8313 28.5193 23.364 27.7479L20.7563 26.3769C20.1736 26.0706 19.4775 26.0706 18.8949 26.3769L16.2871 27.7479C14.8199 28.5193 13.105 27.2734 13.3852 25.6396L13.8833 22.7358C13.9945 22.087 13.7794 21.425 13.3081 20.9655L11.1983 18.909C10.0113 17.752 10.6663 15.736 12.3068 15.4976L15.2223 15.074C15.8738 14.9793 16.4369 14.5702 16.7282 13.9799L18.0321 11.338Z" fill="#F4B060"/>
</svg>
