<svg width="810" height="1226" viewBox="0 0 810 1226" fill="none" xmlns="http://www.w3.org/2000/svg">
<path fill-rule="evenodd" clip-rule="evenodd" d="M730.305 1303.38C580.756 1324.63 426.439 1421.38 291.169 1354.16C150.254 1284.14 24.5672 1119.55 46.8844 963.784C70.0619 802.017 304.003 771.269 394.207 635.001C462.778 531.414 412.791 378.448 495.633 285.878C594.382 175.533 736.488 62.9377 882.108 89.81C1028.11 116.752 1061.63 314.754 1174.54 411.161C1296.48 515.283 1517.16 519.147 1564.37 672.387C1611 823.769 1494.86 984.724 1386.93 1100.66C1296.23 1198.08 1154.16 1210.34 1026.98 1249.6C928.541 1280 832.305 1288.89 730.305 1303.38Z" fill="#3C519C"/>
<rect x="741" y="872" width="165" height="48" rx="24" fill="#F9C669"/>
<rect x="403" y="526" width="50" height="18" rx="9" fill="#F9C669"/>
<rect x="232" y="747" width="59" height="21" rx="10.5" fill="#F9C669"/>
<circle cx="717.5" cy="352.5" r="3.5" fill="#F9C669"/>
<circle cx="625" cy="592" r="6" fill="#F9C669"/>
<circle cx="806.5" cy="546.5" r="15.5" fill="#F9C669"/>
<circle cx="777" cy="95" r="19" fill="#F9C669"/>
<circle cx="572.5" cy="1058.5" r="9.5" fill="#F9C669"/>
<circle cx="69.5" cy="1123.5" r="10.5" fill="#F9C669"/>
</svg>
