<svg width="604" height="462" viewBox="0 0 604 462" fill="none" xmlns="http://www.w3.org/2000/svg">
<g clip-path="url(#clip0)">
<path fill-rule="evenodd" clip-rule="evenodd" d="M54.3169 337.792C43.7622 301.397 76.3859 249.887 81.5589 210.398C88.0699 160.704 73.0259 107.267 110.816 64.824C149.38 21.512 211.578 -1.99406 268.935 -0.0500573C322.665 1.76994 355.982 39.415 396.816 64.824C429.918 85.422 515.026 118.292 545.149 151.83C575.272 185.367 597.532 209.928 587.441 259.779C577.286 309.943 523.506 355.431 469.317 380.712C420.915 403.291 335.516 378.076 283.816 386.292C234.146 394.186 188.268 434.614 143.269 423.183C98.0229 411.69 65.8689 377.625 54.3169 337.792Z" fill="#3C519C"/>
<path d="M209 41H324L321.181 124.111C320.199 153.049 296.456 176 267.502 176C239.044 176 215.526 153.803 213.882 125.392L209 41Z" fill="#F9C669"/>
<path d="M274.395 167.386H259.625V267.368H274.395V167.386Z" fill="#F9C669"/>
<path d="M320.204 254.871H216.09C210.015 254.871 205.09 259.796 205.09 265.871V293.862C205.09 299.937 210.015 304.862 216.09 304.862H320.204C326.279 304.862 331.204 299.937 331.204 293.862V265.871C331.204 259.796 326.279 254.871 320.204 254.871Z" fill="#F9C669"/>
<path d="M337.293 291.228H199C197.343 291.228 196 292.571 196 294.228V301.862C196 303.519 197.343 304.862 199 304.862H337.293C338.95 304.862 340.293 303.519 340.293 301.862V294.228C340.293 292.571 338.95 291.228 337.293 291.228Z" fill="#F9C669"/>
<path d="M414.619 66.3149C414.619 61.8959 418.201 58.3149 422.619 58.3149H521.464C525.882 58.3149 529.464 61.8959 529.464 66.3149V138.678C529.464 168.778 505.063 193.178 474.964 193.178H469.119C439.02 193.178 414.619 168.778 414.619 138.678V66.3149Z" fill="#F1B23F"/>
<path d="M478.886 177.374H465.189V270.093H478.886V177.374Z" fill="#F1B23F"/>
<path d="M520.571 258.503H425.619C419.544 258.503 414.619 263.428 414.619 269.503V293.862C414.619 299.937 419.544 304.862 425.619 304.862H520.571C526.646 304.862 531.571 299.937 531.571 293.862V269.503C531.571 263.428 526.646 258.503 520.571 258.503Z" fill="#F1B23F"/>
<path d="M482.5 250H461.5C456.806 250 453 253.806 453 258.5C453 263.194 456.806 267 461.5 267H482.5C487.194 267 491 263.194 491 258.5C491 253.806 487.194 250 482.5 250Z" fill="#F1B23F"/>
<path d="M532 55H411C407.686 55 405 57.6863 405 61C405 64.3137 407.686 67 411 67H532C535.314 67 538 64.3137 538 61C538 57.6863 535.314 55 532 55Z" fill="#F1B23F"/>
<path d="M536.999 292.218H409.189C407.532 292.218 406.189 293.561 406.189 295.218V301.862C406.189 303.518 407.532 304.862 409.189 304.862H536.999C538.656 304.862 539.999 303.518 539.999 301.862V295.218C539.999 293.561 538.656 292.218 536.999 292.218Z" fill="#F1B23F"/>
<path d="M360.891 139.438C360.891 136.676 363.129 134.438 365.891 134.438H435.276C438.038 134.438 440.276 136.676 440.276 139.438V187.968C440.276 209.89 422.505 227.661 400.583 227.661C378.662 227.661 360.891 209.89 360.891 187.968V139.438Z" fill="#FED17E"/>
<path d="M438 150.203C443.5 141.203 462.5 144.203 464.5 156.703C466.5 169.203 455 187.203 446 193.203C439.139 197.777 434.167 197.203 433 197.203" stroke="#FED17E" stroke-width="6" stroke-linecap="round"/>
<path d="M362.729 150.203C357.229 141.203 338.229 144.203 336.229 156.703C334.229 169.203 345.729 187.203 354.729 193.203C361.59 197.777 366.562 197.203 367.729 197.203" stroke="#FED17E" stroke-width="6" stroke-linecap="round"/>
<path d="M405.316 216.737H395.848V280.828H405.316V216.737Z" fill="#FED17E"/>
<path d="M435 276H368C364.134 276 361 279.134 361 283V298C361 301.866 364.134 305 368 305H435C438.866 305 442 301.866 442 298V283C442 279.134 438.866 276 435 276Z" fill="#FED17E"/>
<path d="M407.5 230H394.5C392.567 230 391 231.567 391 233.5C391 235.433 392.567 237 394.5 237H407.5C409.433 237 411 235.433 411 233.5C411 231.567 409.433 230 407.5 230Z" fill="#FED17E"/>
<path d="M446.557 296.122H356.062C355.51 296.122 355.062 296.57 355.062 297.122V303.862C355.062 304.414 355.51 304.862 356.062 304.862H446.557C447.11 304.862 447.557 304.414 447.557 303.862V297.122C447.557 296.57 447.11 296.122 446.557 296.122Z" fill="#FED17E"/>
<path d="M127.119 373.941C127.671 372.984 128.895 372.656 129.851 373.209L160.184 390.721C161.141 391.273 161.468 392.497 160.916 393.453L121.749 461.293C120.934 462.704 118.863 462.601 118.193 461.115L110.51 444.07C110.157 443.286 109.342 442.816 108.487 442.902L89.884 444.77C88.262 444.933 87.137 443.192 87.952 441.78L127.119 373.941Z" fill="#F15D4B"/>
<path d="M96.013 439.654L96.117 440.649L96.013 439.654ZM96.013 439.654C95.201 439.739 94.635 438.867 95.043 438.159L133.368 371.779C133.644 371.3 134.256 371.137 134.734 371.413L159.297 385.594C159.775 385.87 159.939 386.482 159.663 386.96L121.338 453.341C120.929 454.048 119.891 453.994 119.558 453.248L113.603 439.898C113.075 438.712 111.843 438.001 110.552 438.136L96.013 439.654Z" stroke="#FFB55F" stroke-width="2"/>
<path d="M147.082 393.453C146.53 392.497 146.857 391.274 147.814 390.721L178.147 373.209C179.103 372.656 180.327 372.984 180.879 373.941L220.046 441.78C220.861 443.192 219.736 444.933 218.114 444.77L199.511 442.902C198.656 442.816 197.841 443.286 197.488 444.07L189.805 461.115C189.135 462.601 187.064 462.705 186.249 461.293L147.082 393.453Z" fill="#F15D4B"/>
<path d="M188.439 453.248L189.352 453.655L188.439 453.248ZM188.439 453.248C188.106 453.994 187.068 454.048 186.66 453.341L148.335 386.96C148.059 386.482 148.223 385.87 148.701 385.594L173.263 371.413C173.742 371.136 174.353 371.3 174.629 371.779L212.954 438.159C213.363 438.867 212.797 439.739 211.984 439.654L197.445 438.136C196.154 438.001 194.923 438.712 194.394 439.898L188.439 453.248Z" stroke="#FFB55F" stroke-width="2"/>
<path d="M154.057 409.762C177.187 409.762 195.938 391.011 195.938 367.881C195.938 344.751 177.187 326 154.057 326C130.927 326 112.176 344.751 112.176 367.881C112.176 391.011 130.927 409.762 154.057 409.762Z" fill="#F9C669"/>
<path d="M154.055 402.147C172.98 402.147 188.321 386.806 188.321 367.881C188.321 348.956 172.98 333.615 154.055 333.615C135.13 333.615 119.789 348.956 119.789 367.881C119.789 386.806 135.13 402.147 154.055 402.147Z" fill="#F4B060"/>
<path d="M153.818 398.34C170.771 398.34 184.515 384.596 184.515 367.643C184.515 350.69 170.771 336.946 153.818 336.946C136.865 336.946 123.121 350.69 123.121 367.643C123.121 384.596 136.865 398.34 153.818 398.34Z" fill="#F9C669"/>
<path d="M152.024 345.815C152.757 344.329 154.877 344.329 155.611 345.815L160.835 356.4C161.126 356.991 161.689 357.4 162.341 357.495L174.022 359.192C175.663 359.43 176.318 361.446 175.131 362.603L166.678 370.843C166.206 371.302 165.991 371.964 166.103 372.613L168.098 384.248C168.378 385.881 166.663 387.127 165.196 386.356L154.748 380.863C154.165 380.557 153.469 380.557 152.886 380.863L142.438 386.356C140.971 387.127 139.256 385.881 139.536 384.248L141.532 372.613C141.643 371.964 141.428 371.302 140.956 370.843L132.504 362.603C131.317 361.446 131.972 359.43 133.612 359.192L145.294 357.495C145.945 357.4 146.508 356.991 146.799 356.4L152.024 345.815Z" fill="#F4B060"/>
<path d="M73.5 296H12.5C5.59644 296 0 301.596 0 308.5C0 315.404 5.59644 321 12.5 321H73.5C80.4036 321 86 315.404 86 308.5C86 301.596 80.4036 296 73.5 296Z" fill="#F9C669"/>
<path d="M374 395C377.314 395 380 392.314 380 389C380 385.686 377.314 383 374 383C370.686 383 368 385.686 368 389C368 392.314 370.686 395 374 395Z" fill="#F9C669"/>
<path d="M592 224C598.627 224 604 218.627 604 212C604 205.373 598.627 200 592 200C585.373 200 580 205.373 580 212C580 218.627 585.373 224 592 224Z" fill="#F9C669"/>
<path d="M328 34H206C202.134 34 199 37.134 199 41C199 44.866 202.134 48 206 48H328C331.866 48 335 44.866 335 41C335 37.134 331.866 34 328 34Z" fill="#F9C669"/>
</g>
<defs>
<clipPath id="clip0">
<rect width="604" height="462" fill="white"/>
</clipPath>
</defs>
</svg>
