<svg width="112" height="170" viewBox="0 0 112 170" fill="none" xmlns="http://www.w3.org/2000/svg">
<path d="M96.8541 160.37L66.1266 169.241C65.3391 169.466 64.5066 169.016 64.2816 168.221L63.0891 164.082C62.8641 163.295 63.3141 162.462 64.1091 162.237L94.8366 153.366C95.6241 153.141 96.4566 153.591 96.6816 154.386L97.8741 158.525C98.0991 159.32 97.6416 160.145 96.8541 160.37Z" fill="#F9C669"/>
<path d="M69.3845 115.838L65.623 116.924L77.5961 158.402L81.3576 157.317L69.3845 115.838Z" fill="#F9C669"/>
<path d="M28.1153 118.451L30.3802 112.13C30.8752 110.75 32.3978 110.03 33.7778 110.525C35.1578 111.02 35.8778 112.542 35.3828 113.922L33.1178 120.244C32.6228 121.623 31.1002 122.343 29.7202 121.848C28.3402 121.353 27.6203 119.831 28.1153 118.451Z" fill="#F9C669"/>
<path d="M67.6563 8.08261L69.9213 1.76104C70.4163 0.381246 71.9388 -0.338647 73.3188 0.15628C74.6988 0.651206 75.4188 2.17348 74.9238 3.55327L72.6588 9.87484C72.1638 11.2546 70.6413 11.9745 69.2613 11.4796C67.8813 10.9847 67.1613 9.4624 67.6563 8.08261Z" fill="#F9C669"/>
<path d="M32.6232 113.757L31.3633 117.266C62.4433 128.395 96.6584 112.227 107.788 81.1593C118.918 50.0839 102.748 15.874 71.6758 4.74561L70.4158 8.25508C99.3583 18.806 114.373 50.7588 103.971 79.7945C93.5683 108.83 61.6783 123.97 32.6232 113.757Z" fill="#F9C669"/>
<path d="M51.5159 112.317C79.8605 112.317 102.838 89.3427 102.838 61.0023C102.838 32.6618 79.8605 9.68738 51.5159 9.68738C23.1713 9.68738 0.193359 32.6618 0.193359 61.0023C0.193359 89.3427 23.1713 112.317 51.5159 112.317Z" fill="#2B3072"/>
<path d="M1.941 47.7216C1.941 47.7216 9.45596 53.3458 18.3134 50.7887C27.1634 48.2316 38.6084 39.9153 42.9884 45.577C47.3759 51.2386 59.0384 51.9285 53.6309 58.0251C48.2234 64.1217 34.7009 62.7719 37.6184 69.5734C40.5359 76.3749 48.7259 87.3758 47.2034 92.835C45.6734 98.2942 44.8634 102.104 40.9934 104.413C37.1234 106.723 39.3959 110.877 39.3959 110.877C39.3959 110.877 37.7309 110.45 36.9734 110.225C36.2234 110 34.2135 109.325 34.2135 109.325C34.2135 109.325 33.231 106.295 34.026 103.431C34.821 100.566 38.3159 96.5169 33.6884 96.6369C29.0609 96.7569 26.8634 90.9003 22.7834 92.5875C18.7034 94.2673 16.6485 98.6916 16.6485 98.6916C16.6485 98.6916 8.74344 91.1327 5.91594 84.5712C3.08844 78.0097 0.238457 71.4407 0.0209571 64.1442C-0.144043 58.76 0.681001 51.741 1.941 47.7216Z" fill="#46959F"/>
<path d="M58.9628 10.2197C58.9628 10.2197 45.3877 16.2263 51.1927 19.8033C56.9977 23.3803 59.5028 27.6696 52.9477 29.0869C46.4002 30.4967 42.4852 28.5245 34.8877 27.8496C27.2902 27.1747 21.2077 29.2594 19.3402 30.2342C17.4727 31.2091 11.8477 28.4195 11.8477 28.4195C11.8477 28.4195 20.3601 18.1985 28.9777 14.899C37.6027 11.5995 45.9502 8.06004 58.9628 10.2197Z" fill="#46959F"/>
<path d="M92.2338 29.7544C92.2338 29.7544 90.3138 34.9811 81.7338 35.2886C73.1538 35.596 65.5862 41.3027 69.5237 43.6873C73.4612 46.072 87.7038 46.5669 87.7938 54.4032C87.8838 62.2321 85.4313 67.8187 78.8988 70.5183C72.3587 73.2179 84.2313 77.1099 87.4338 82.4191C90.6363 87.7283 92.0463 92.5051 92.0463 92.5051C92.0463 92.5051 102.689 79.0746 102.831 62.517C102.974 45.9595 96.8613 35.0036 92.2338 29.7544C87.6063 24.5052 92.2338 29.7544 92.2338 29.7544Z" fill="#46959F"/>
</svg>
