<svg width="375" height="585" viewBox="0 0 375 585" fill="none" xmlns="http://www.w3.org/2000/svg">
<path d="M-3.84094 584.604C1.51965 575.465 -4.56686 564.368 -8.25227 554.467C-12.7753 542.391 -13.6129 529.389 -14.4504 516.605C-24.7808 351.614 -35.1669 186.678 -45.4972 21.7408C-45.9439 14.397 -46.1115 6.18278 -41.0859 0.797317C-36.2837 -4.37056 -28.4662 -5.24094 -21.3745 -5.73052C1.74301 -7.14489 24.9164 -7.25369 48.034 -7.36248C162.226 -7.63448 276.362 -6.5465 390.442 -4.04417V-4.15296C392.173 -8.39606 385.528 20.9248 387.259 16.6817C374.304 68.5237 334.267 94.9614 282.783 113.131C250.676 124.5 214.436 126.513 186.46 145.607C167.698 158.39 154.297 178.463 149.829 200.332C141.9 239.39 161.556 280.787 150.22 318.975C139.611 354.715 105.325 377.671 76.3446 401.824C49.6533 424.019 27.4292 451.653 16.8755 484.238C5.59593 519.108 5.98681 548.32 -4.00846 583.57L-3.84094 584.604Z" fill="#3C519C"/>
<path d="M33.1229 385.214C37.9725 385.214 41.904 381.384 41.904 376.659C41.904 371.934 37.9725 368.104 33.1229 368.104C28.2732 368.104 24.3418 371.934 24.3418 376.659C24.3418 381.384 28.2732 385.214 33.1229 385.214Z" fill="#F9C669"/>
<path d="M362.073 70.6048C366.194 70.6048 369.535 67.264 369.535 63.1429C369.535 59.0219 366.194 55.6811 362.073 55.6811C357.952 55.6811 354.611 59.0219 354.611 63.1429C354.611 67.264 357.952 70.6048 362.073 70.6048Z" fill="#F9C669"/>
<path d="M293.5 10C297.09 10 300 7.08985 300 3.5C300 -0.0898492 297.09 -3 293.5 -3C289.91 -3 287 -0.0898492 287 3.5C287 7.08985 289.91 10 293.5 10Z" fill="#F9C669"/>
</svg>
