<svg width="375" height="404" viewBox="0 0 375 404" fill="none" xmlns="http://www.w3.org/2000/svg">
<g clip-path="url(#clip0)">
<path fill-rule="evenodd" clip-rule="evenodd" d="M479.666 352.681C495.962 323.792 475.903 270.54 478.511 234.872C481.792 189.988 505.307 147.454 478.889 100.739C451.93 53.0682 399.883 16.4662 347.521 3.24318C298.471 -9.14482 261.307 14.9122 219.588 26.3802C185.771 35.6762 102.533 42.1172 69.0234 63.4342C35.5142 84.7522 10.7929 100.312 10.7292 146.263C10.665 192.504 51.0179 246.023 95.4765 282.085C135.186 314.294 217.273 314.582 262.628 335.165C306.202 354.941 340.326 402.007 383.237 403.772C426.383 405.546 461.831 384.298 479.666 352.681Z" fill="#3C519C"/>
<path d="M77 213C75.3431 213 74 211.657 74 210C74 208.343 75.3431 207 77 207C78.6569 207 80 208.343 80 210C80 211.657 78.6569 213 77 213Z" fill="#F9C669"/>
<path d="M335.105 390C330.411 390 326.605 386.194 326.605 381.5C326.605 376.806 330.411 373 335.105 373C339.799 373 343.605 376.806 343.605 381.5C343.605 386.194 339.799 390 335.105 390Z" fill="#F9C669"/>
<path d="M8.5 102H33.5C36.5376 102 39 104.462 39 107.5C39 110.538 36.5376 113 33.5 113H8.5C5.46243 113 3 110.538 3 107.5C3 104.462 5.46243 102 8.5 102Z" fill="#F9C669"/>
<path d="M355.127 9.25395C352.848 9.25395 351 7.40635 351 5.12722C351 2.84809 352.848 1.00049 355.127 1.00049C357.406 1.00049 359.254 2.84809 359.254 5.12722C359.254 7.40635 357.406 9.25395 355.127 9.25395Z" fill="#F9C669"/>
<path d="M150.617 138.352H226.839L224.97 193.438C224.32 212.617 208.583 227.829 189.392 227.829C170.53 227.829 154.942 213.117 153.853 194.287L150.617 138.352Z" fill="#F9C669"/>
<path d="M193.958 222.12H184.168V288.388H193.958V222.12Z" fill="#F9C669"/>
<path d="M220.613 280.105H159.025C152.95 280.105 148.025 285.03 148.025 291.105V302.239C148.025 308.314 152.95 313.239 159.025 313.239H220.613C226.688 313.239 231.613 308.314 231.613 302.239V291.105C231.613 285.03 226.688 280.105 220.613 280.105Z" fill="#F9C669"/>
<path d="M234.637 304.202H145C143.343 304.202 142 305.545 142 307.202V310.239C142 311.896 143.343 313.239 145 313.239H234.637C236.293 313.239 237.637 311.896 237.637 310.239V307.202C237.637 305.545 236.293 304.202 234.637 304.202Z" fill="#F9C669"/>
<path d="M229.325 134H148.693C146.134 134 144.059 136.075 144.059 138.634C144.059 141.193 146.134 143.268 148.693 143.268H229.325C231.884 143.268 233.959 141.193 233.959 138.634C233.959 136.075 231.884 134 229.325 134Z" fill="#F9C669"/>
<path d="M286.898 157.828C286.898 153.41 290.48 149.828 294.898 149.828H355.017C359.435 149.828 363.017 153.41 363.017 157.828V201.156C363.017 222.175 345.977 239.215 324.958 239.215C303.938 239.215 286.898 222.175 286.898 201.156V157.828Z" fill="#F1B23F"/>
<path d="M329.496 228.74H320.418V290.194H329.496V228.74Z" fill="#F1B23F"/>
<path d="M353.413 282.512H297.898C291.823 282.512 286.898 287.437 286.898 293.512V302.239C286.898 308.314 291.823 313.239 297.898 313.239H353.413C359.488 313.239 364.413 308.314 364.413 302.239V293.512C364.413 287.437 359.488 282.512 353.413 282.512Z" fill="#F1B23F"/>
<path d="M331.889 276.876H317.97C314.858 276.876 312.336 279.398 312.336 282.51C312.336 285.621 314.858 288.143 317.97 288.143H331.889C335 288.143 337.522 285.621 337.522 282.51C337.522 279.398 335 276.876 331.889 276.876Z" fill="#F1B23F"/>
<path d="M364.698 147.631H284.5C282.303 147.631 280.523 149.411 280.523 151.608C280.523 153.804 282.303 155.584 284.5 155.584H364.698C366.894 155.584 368.675 153.804 368.675 151.608C368.675 149.411 366.894 147.631 364.698 147.631Z" fill="#F1B23F"/>
<path d="M367.001 304.859H284.312C282.655 304.859 281.312 306.202 281.312 307.859V310.239C281.312 311.896 282.655 313.239 284.312 313.239H367.001C368.658 313.239 370.001 311.896 370.001 310.239V307.859C370.001 306.202 368.658 304.859 367.001 304.859Z" fill="#F1B23F"/>
<path d="M251.285 205.282C251.285 202.521 253.524 200.282 256.285 200.282H298.902C301.663 200.282 303.902 202.521 303.902 205.282V235.762C303.902 250.292 292.123 262.07 277.593 262.07C263.064 262.07 251.285 250.292 251.285 235.762V205.282Z" fill="#FED17E"/>
<path d="M302.394 210.731C306.039 204.766 318.633 206.754 319.958 215.039C321.284 223.324 313.662 235.255 307.696 239.231C303.149 242.263 299.853 241.883 299.08 241.883" stroke="#FED17E" stroke-width="6" stroke-linecap="round"/>
<path d="M252.5 210.731C248.855 204.766 236.262 206.754 234.936 215.039C233.611 223.324 241.233 235.255 247.198 239.231C251.746 242.263 255.041 241.883 255.814 241.883" stroke="#FED17E" stroke-width="6" stroke-linecap="round"/>
<path d="M280.73 254.83H274.455V297.309H280.73V254.83Z" fill="#FED17E"/>
<path d="M298.043 294.109H258.357C254.491 294.109 251.357 297.243 251.357 301.109V306.33C251.357 310.196 254.491 313.33 258.357 313.33H298.043C301.909 313.33 305.043 310.196 305.043 306.33V301.109C305.043 297.243 301.909 294.109 298.043 294.109Z" fill="#FED17E"/>
<path d="M282.178 263.62H273.562C272.281 263.62 271.242 264.659 271.242 265.94C271.242 267.221 272.281 268.26 273.562 268.26H282.178C283.459 268.26 284.498 267.221 284.498 265.94C284.498 264.659 283.459 263.62 282.178 263.62Z" fill="#FED17E"/>
<path d="M307.725 307.446H248.42C247.868 307.446 247.42 307.894 247.42 308.446V312.238C247.42 312.791 247.868 313.238 248.42 313.238H307.725C308.278 313.238 308.725 312.791 308.725 312.238V308.446C308.725 307.894 308.278 307.446 307.725 307.446Z" fill="#FED17E"/>
</g>
<defs>
<clipPath id="clip0">
<rect width="375" height="404" fill="white"/>
</clipPath>
</defs>
</svg>
