<svg width="68" height="45" viewBox="0 0 68 45" fill="none" xmlns="http://www.w3.org/2000/svg">
<g clip-path="url(#clip0)">
<path d="M63.7815 13.1065C66.8371 12.8587 69.0242 15.9992 67.7322 18.7793L60.2702 34.8351C59.7969 35.8535 59.7735 37.0239 60.2057 38.0604L67.0199 54.4016C68.1998 57.2311 65.8889 60.2817 62.8456 59.9119L45.2698 57.7767C44.155 57.6412 43.0346 57.9807 42.1824 58.712L28.7466 70.2425C26.4202 72.239 22.8049 70.9838 22.2161 67.9753L18.8157 50.5998C18.6 49.4977 17.9309 48.537 16.972 47.9525L1.85401 38.7375C-0.763652 37.1419 -0.687142 33.3157 1.99221 31.826L17.4665 23.2226C18.448 22.677 19.1549 21.7438 19.4145 20.6512L23.5068 3.42551C24.2154 0.442909 27.878 -0.666692 30.1227 1.42121L43.0868 13.4795C43.9091 14.2444 45.015 14.6283 46.1343 14.5375L63.7815 13.1065Z" fill="#F9C669"/>
</g>
<defs>
<clipPath id="clip0">
<rect width="68" height="45" fill="white"/>
</clipPath>
</defs>
</svg>
