<svg width="465" height="386" viewBox="0 0 465 386" fill="none" xmlns="http://www.w3.org/2000/svg">
<path fill-rule="evenodd" clip-rule="evenodd" d="M2.399 315.027C-9.84664 384.979 69.0771 438.91 123.941 485.438C169.313 523.917 226.055 542.778 284.915 554.62C338.027 565.306 389.647 555.6 443.544 549.74C514.611 542.014 596.617 561.682 649.76 514.955C704.803 466.557 722.074 384.385 713.273 312.576C704.917 244.407 647.612 196.197 604.081 142.289C562.415 90.6899 530.397 22.9327 465.461 5.69067C401.154 -11.3842 333.69 20.9562 277.2 55.4941C229.773 84.4904 217.278 144.034 177.056 182.02C122.655 233.399 15.1508 242.182 2.399 315.027Z" fill="#3C519C"/>
</svg>
