<svg width="310" height="265" viewBox="0 0 310 265" fill="none" xmlns="http://www.w3.org/2000/svg">
<path d="M141.2 120.967L99.5664 68.2201L105.029 69.8051L147.745 120.699L141.2 120.967Z" fill="white"/>
<path d="M221.605 44.1394L155.275 54.791L159.32 50.7934L224.571 38.302L221.605 44.1394Z" fill="white"/>
<path d="M167.561 42.0006L7.8605 59.6449C4.34557 60.0334 3.90803 64.9768 7.29766 65.9782L95.729 92.0403C99.9803 93.2883 104.435 93.675 108.836 93.1607L161.988 85.0093C180.27 82.4424 176.769 72.7261 163.478 69.4899L144.138 65.4579C140.877 64.4119 141.245 59.6698 144.644 59.1683L187.174 52.7988C190.615 52.2825 190.94 47.455 187.594 46.4817L174.194 42.5884C172.054 41.9431 169.791 41.7574 167.561 42.0006Z" fill="#F15D4B"/>
<path d="M4.79492 57.3755L4.98008 62.9754L7.97845 62.8764L7.8118 57.8365L4.79492 57.3755Z" fill="#F15D4B"/>
<path d="M174.619 77.8602L174.432 72.2128L171.155 72.3212L171.342 77.9686L174.619 77.8602Z" fill="#F15D4B"/>
<path d="M189.933 49.6588L189.738 43.7547L186.461 43.863L186.656 49.7671L189.933 49.6588Z" fill="#F15D4B"/>
<path d="M167.371 36.3653L7.68471 54.0095C4.15547 54.3981 3.71793 59.3415 7.12187 60.3428L95.5532 86.4048C99.8045 87.6528 104.259 88.0395 108.66 87.5252L161.812 79.3739C180.094 76.807 176.593 67.0907 163.302 63.8544L143.962 59.8225C140.701 58.7765 141.069 54.0343 144.468 53.5328L186.998 47.1634C190.44 46.647 190.764 41.8196 187.418 40.8462L174.018 36.9529C171.864 36.3078 169.6 36.1078 167.371 36.3653Z" fill="#F9C669"/>
<path d="M260.405 72.1655C260.405 72.1655 262.851 116.718 262.214 121.343C261.729 124.797 254.539 129.361 254.539 129.361L259.014 130.969C259.014 130.969 264.889 127.037 265.767 121.844C266.906 115.054 263.594 72.2874 263.594 72.2874L260.405 72.1655Z" fill="white"/>
<path d="M303.599 231.221C301.895 231.988 299.894 231.146 299.286 229.373C293.906 213.819 276.606 155.124 271.628 148.667C267.375 143.142 260.518 141.858 255.381 140.423C252.947 139.743 252.208 136.665 254.089 134.986L255.313 133.894C256.115 133.166 257.236 132.902 258.275 133.195C262.131 134.275 271.728 134.513 277.732 144.025C284.221 154.29 300.744 213.213 305.308 227.362C305.821 228.89 305.072 230.564 303.599 231.221Z" fill="white"/>
<path d="M244.266 263.143C242.413 263.463 240.694 262.14 240.546 260.262C239.233 243.86 235.42 173.514 233.218 165.668C232.084 161.608 224.106 158.426 219.495 155.756C217.317 154.495 217.366 151.333 219.608 150.162L221.069 149.404C222.023 148.908 223.182 148.917 224.116 149.466C227.581 151.468 237.604 154.005 240.036 161.812C243.637 173.408 246.036 244.971 246.909 259.818C246.99 261.451 245.86 262.874 244.266 263.143Z" fill="white"/>
<path d="M186.995 205.619C188.85 205.885 190.524 204.502 190.619 202.629C191.41 186.183 191.505 124.992 194.464 117.394C196.999 110.904 191.345 113.824 195.881 111.01C198.026 109.679 197.861 106.512 195.593 105.421L194.105 104.704C193.127 104.241 191.982 104.289 191.069 104.857C187.677 106.964 190.388 103.813 187.293 114.629C183.951 126.313 184.657 187.507 184.27 202.371C184.223 204.002 185.397 205.4 186.995 205.619Z" fill="white"/>
<path d="M106.527 227.639C108.1 228.35 109.914 227.41 110.423 225.631C114.927 209.882 132.593 141.984 136.138 134.785C137.977 131.053 145.728 129.642 150.375 128.03C152.572 127.268 153.163 124.16 151.413 122.552L150.263 121.504C149.513 120.807 148.478 120.582 147.532 120.921C144.042 122.148 134.594 122.469 130.856 129.587C125.295 140.151 108.64 209.533 104.849 223.856C104.443 225.398 105.158 227.025 106.527 227.639Z" fill="white"/>
<path d="M212.719 5.25383L277.774 21.5015C281.319 22.3893 283.757 25.6451 283.598 29.292L282.166 63.245C282.05 66.1341 279.855 68.523 276.985 68.8943C267.817 70.0828 248.081 72.3311 235.923 71.3118C223.151 70.2514 212.258 59.8247 208.168 55.4046C207.062 54.2084 206.465 52.6218 206.498 50.9763L207.341 9.38189C207.383 6.59146 210.014 4.5692 212.719 5.25383Z" fill="#46959F"/>
<path d="M273.833 70.8909L278.974 68.2698L279.031 65.4683L273.162 68.3316L273.833 70.8909Z" fill="#46959F"/>
<path d="M204.355 8.34398L209.503 5.70142L211.693 7.55684L207.673 11.2677L204.355 8.34398Z" fill="#46959F"/>
<path d="M224.835 62.7704C224.835 62.7704 214.966 106.286 213.076 110.556C211.667 113.749 203.504 116.16 203.504 116.16L207.369 118.929C207.369 118.929 214.11 116.761 216.367 112.012C219.326 105.802 227.877 63.7625 227.877 63.7625L224.835 62.7704Z" fill="white"/>
<path d="M207.224 8.07683L272.279 24.3245C275.824 25.2123 278.262 28.4681 278.103 32.115L276.671 66.068C276.555 68.9571 274.36 71.346 271.49 71.7173C262.322 72.9058 242.585 75.154 230.428 74.1348C217.656 73.0744 206.762 62.6477 202.673 58.2276C201.567 57.0314 200.97 55.4448 201.003 53.7993L201.846 12.2049C201.888 9.41446 204.519 7.3922 207.224 8.07683Z" fill="#5DBEBD"/>
<path d="M188.045 107.545C190.734 106.36 193.919 106.646 196.328 108.261C204.695 113.868 217.027 118.214 233.73 122.282C245.71 125.208 280.202 125.023 280.114 127.545C280.026 130.031 279.979 133.224 277.35 134.228L218.933 156.606C212.116 159.219 207.751 159.851 201.624 157.526L134.653 129.18C131.049 127.899 130.844 123.286 134.329 121.762L188.045 107.545Z" fill="#46959F"/>
<path d="M131.742 120.981L131.819 125.501L134.215 125.683L134.31 121.008L131.742 120.981Z" fill="#46959F"/>
<path d="M187.951 103.06C190.64 101.876 193.825 102.163 196.234 103.778C204.603 109.387 216.937 113.737 233.642 117.81C245.622 120.739 265.506 123.49 276.145 124.469C280.885 124.906 281.427 129.305 277.566 130.407L218.843 152.117C212.028 154.729 207.663 155.36 201.535 153.033L134.569 124.668C130.964 123.386 130.757 118.773 134.242 117.249L187.951 103.06Z" fill="#5DBEBD"/>
</svg>
