<svg width="224" height="293" viewBox="0 0 224 293" fill="none" xmlns="http://www.w3.org/2000/svg">
<g clip-path="url(#clip0)">
<path d="M49.9231 159.788V212.088H35.1231V191.688H15.0231V212.088H0.223145V159.788H15.0231V179.388H35.2231V159.788H49.9231Z" fill="#CFD8EE"/>
<path d="M95.423 201.888H73.323L69.223 212.088H54.123L77.223 159.788H91.823L114.923 212.088H99.523L95.423 201.888ZM91.023 190.988L84.323 174.288L77.623 190.988H91.023Z" fill="#CFD8EE"/>
<path d="M126.923 209.588C122.523 207.288 119.123 204.088 116.623 199.888C114.123 195.788 112.923 191.088 112.923 185.888C112.923 180.688 114.123 175.988 116.623 171.888C119.123 167.788 122.523 164.488 126.923 162.188C131.323 159.888 136.223 158.688 141.623 158.688C146.423 158.688 150.723 159.488 154.523 161.188C158.323 162.888 161.523 165.288 164.123 168.488L154.723 176.988C151.323 172.888 147.223 170.888 142.423 170.888C139.623 170.888 137.023 171.488 134.823 172.788C132.623 173.988 130.923 175.788 129.623 178.088C128.423 180.388 127.823 182.988 127.823 185.888C127.823 188.788 128.423 191.388 129.623 193.688C130.823 195.988 132.523 197.688 134.823 198.988C137.023 200.188 139.523 200.888 142.423 200.888C147.223 200.888 151.323 198.888 154.723 194.788L164.123 203.288C161.623 206.488 158.423 208.888 154.523 210.588C150.723 212.288 146.423 213.088 141.623 213.088C136.223 213.088 131.323 211.988 126.923 209.588Z" fill="#CFD8EE"/>
<path d="M190.923 193.088L185.423 198.988V212.088H170.823V159.788H185.423V181.488L205.623 159.788H221.923L200.623 182.888L223.123 211.988H205.923L190.923 193.088Z" fill="#CFD8EE"/>
<path d="M35.3231 251.288H19.2231V239.488H66.0231V251.188H50.0231V291.688H35.3231V251.288Z" fill="#CFD8EE"/>
<path d="M121.323 239.488V291.788H106.523V271.388H86.323V291.788H71.623V239.488H86.423V259.088H106.623V239.488H121.323Z" fill="#CFD8EE"/>
<path d="M129.323 239.488H144.123V291.788H129.323V239.488Z" fill="#CFD8EE"/>
<path d="M160.623 291.288C156.623 290.288 153.423 288.888 150.923 287.088L155.823 276.188C158.123 277.688 160.923 278.988 163.923 279.888C167.023 280.788 170.023 281.288 173.023 281.288C178.723 281.288 181.523 279.888 181.523 276.988C181.523 275.488 180.723 274.388 179.123 273.688C177.523 272.988 174.923 272.188 171.323 271.388C167.423 270.588 164.123 269.588 161.423 268.688C158.823 267.688 156.523 266.188 154.623 263.988C152.723 261.888 151.823 258.988 151.823 255.288C151.823 252.088 152.723 249.188 154.423 246.688C156.123 244.088 158.723 242.088 162.223 240.588C165.723 239.088 169.923 238.388 174.923 238.388C178.323 238.388 181.723 238.788 185.123 239.588C188.423 240.388 191.423 241.488 193.923 242.988L189.323 253.988C184.323 251.288 179.523 249.988 174.823 249.988C171.923 249.988 169.723 250.388 168.423 251.288C167.123 252.188 166.423 253.288 166.423 254.688C166.423 256.088 167.223 257.088 168.823 257.788C170.423 258.488 173.023 259.188 176.523 259.988C180.523 260.788 183.823 261.788 186.423 262.688C189.023 263.688 191.323 265.188 193.223 267.288C195.123 269.388 196.123 272.288 196.123 275.888C196.123 278.988 195.223 281.888 193.523 284.388C191.823 286.888 189.123 288.988 185.723 290.488C182.223 291.988 178.023 292.788 173.023 292.788C168.723 292.788 164.623 292.288 160.623 291.288Z" fill="#CFD8EE"/>
<path d="M82.7231 81.6878L84.6231 83.0878L110.823 66.5878" fill="#DD5847"/>
<path d="M113.623 31.5878L139.623 15.8878C139.623 17.1878 139.623 20.6878 139.623 20.6878V50.2878C139.623 51.0878 138.723 50.5878 138.023 50.1878L111.423 33.6878C110.623 33.3878 112.923 32.0878 113.623 31.5878Z" fill="#B6463C"/>
<path d="M82.7231 81.6878L168.423 32.0878L196.023 47.4878C196.023 47.4878 194.023 49.0878 193.023 49.5878L113.323 98.0878C113.323 98.0878 112.123 100.988 111.623 100.788L82.7231 81.6878Z" fill="#EE8374"/>
<path d="M111.923 0.487793L139.623 15.9878L111.523 33.3878L169.323 65.8878L139.623 83.1878L82.5232 51.4878L56.0232 67.5878L26.5232 50.1878L111.923 0.487793Z" fill="#F37964"/>
<path d="M82.7233 81.6878L82.6233 51.3878L109.623 66.2878L82.7233 81.6878Z" fill="#DD5847"/>
<path d="M82.6233 114.188L82.7233 81.6877L112.223 98.7878L112.123 130.688L82.6233 114.188Z" fill="#DD5847"/>
<path d="M55.9231 99.2878L56.1231 66.6878L82.6231 51.3878L82.7231 81.6878L55.9231 99.2878Z" fill="#B6463C"/>
<path d="M26.7233 80.8878V50.0878L56.1233 66.6878L55.9233 99.2878L26.6233 82.8878L26.7233 80.8878Z" fill="#DD5847"/>
<path d="M112.123 130.688L112.223 98.7878L196.023 47.4878V79.4878L112.123 130.688Z" fill="#B6463C"/>
</g>
<defs>
<clipPath id="clip0">
<rect width="222.8" height="292.3" fill="white" transform="translate(0.223145 0.487793)"/>
</clipPath>
</defs>
</svg>
