<svg width="104" height="106" viewBox="0 0 104 106" fill="none" xmlns="http://www.w3.org/2000/svg">
<path d="M28.2336 27.124L21.8566 35.0504C19.4681 38.0205 15.1244 38.4896 12.1546 36.1006L4.22915 29.7224C1.25931 27.3335 0.790221 22.9891 3.17874 20.0189L9.55565 12.0926C11.9442 9.12238 16.2879 8.65337 19.2577 11.0423L27.1832 17.4205C30.153 19.8095 30.6245 24.1535 28.2336 27.124Z" fill="#E8AECC"/>
<path d="M24.5555 15.2912L9.52734 33.9712L17.5343 40.4148L32.5625 21.7348L24.5555 15.2912Z" fill="#6C7072"/>
<path d="M21.848 18.6561L19.4209 21.673L27.4279 28.1166L29.855 25.0998L21.848 18.6561Z" fill="white"/>
<path d="M17.5165 40.4223L79.8877 90.6155L94.9159 71.9355L32.5446 21.7423L17.5165 40.4223Z" fill="#F9C669"/>
<path d="M84.5591 84.8302L35.7744 45.5702" stroke="#F15C4B" stroke-width="4" stroke-miterlimit="10" stroke-linecap="round"/>
<path d="M103.59 94.2986L94.9291 71.9423L79.9002 90.6199L103.59 94.2986Z" fill="#E8E8E8"/>
<path d="M102.853 93.705L101.474 90.144L99.0812 93.1197L102.853 93.705Z" fill="#514F51" stroke="#525051" stroke-miterlimit="10"/>
</svg>
