<svg width="340" height="353" viewBox="0 0 340 353" fill="none" xmlns="http://www.w3.org/2000/svg">
<path fill-rule="evenodd" clip-rule="evenodd" d="M295.359 -35.2086C283.171 41.6953 173.128 55.799 127.475 118.875C91.4165 168.697 112.517 251.055 62.3863 286.683C11.3102 322.983 -59.9345 310.24 -120.794 295.321C-179.031 281.046 -228.607 247.124 -271.192 204.912C-315.009 161.48 -361.162 113.094 -366.632 51.6421C-372.024 -8.93673 -335.259 -64.0054 -299.506 -113.205C-267.618 -157.087 -219.627 -180.836 -175.138 -211.873C-119.517 -250.676 -74.7444 -314.855 -6.96923 -317.289C64.8663 -319.868 129.367 -273.731 181.925 -224.693C237.1 -173.214 307.171 -109.74 295.359 -35.2086Z" fill="#3C519C"/>
</svg>
