<svg width="482" height="570" viewBox="0 0 482 570" fill="none" xmlns="http://www.w3.org/2000/svg">
<path fill-rule="evenodd" clip-rule="evenodd" d="M308.197 -209.796C401.347 -136.319 367.419 6.08839 391.175 122.298C415.999 243.733 517.96 372.933 448.268 475.391C378.536 577.907 221.72 536.248 98.7365 552.224C-13.8405 566.848 -125.114 609.843 -228.697 563.331C-352.239 507.857 -486.516 417.565 -500.944 282.946C-515.112 150.752 -383.271 58.2642 -293.316 -39.5978C-220.718 -118.576 -143.613 -188.895 -40.3706 -218.108C75.8693 -250.998 213.323 -284.634 308.197 -209.796Z" fill="#3C519C"/>
<rect x="-43" y="510" width="86" height="25" rx="12.5" fill="#F9C669"/>
<rect x="356" y="42" width="47" height="17" rx="8.5" fill="#F9C669"/>
<circle cx="300.5" cy="544.5" r="3.5" fill="#F9C669"/>
<circle cx="380" cy="257" r="6" fill="#F9C669"/>
<circle cx="470" cy="415" r="12" fill="#F9C669"/>
<circle cx="320.5" cy="17.5" r="3.5" fill="#F9C669"/>
</svg>
