<svg width="600" height="200" viewBox="0 0 600 200" fill="none" xmlns="http://www.w3.org/2000/svg">
<path d="M457.538 78.8319C451.721 75.7466 447.152 71.4505 443.828 65.9425C440.505 60.4359 438.844 54.1972 438.844 47.2306C438.844 40.2639 440.505 34.0266 443.828 28.5186C447.154 23.012 451.721 18.7147 457.538 15.6294C463.353 12.544 469.918 11 477.228 11C483.609 11 489.357 12.1294 494.475 14.3867C499.593 16.6413 503.848 19.8933 507.238 24.1387L494.676 35.4853C490.155 30.0453 484.672 27.3253 478.225 27.3253C474.437 27.3253 471.063 28.1546 468.106 29.812C465.148 31.4706 462.853 33.812 461.228 36.8293C459.599 39.8493 458.785 43.3159 458.785 47.2306C458.785 51.1466 459.597 54.6133 461.227 57.6306C462.853 60.6519 465.148 62.9906 468.106 64.6479C471.063 66.3079 474.437 67.1372 478.225 67.1372C484.671 67.1372 490.155 64.4172 494.676 58.9746L507.238 70.3212C503.848 74.5692 499.593 77.8212 494.475 80.0759C489.357 82.3305 483.609 83.4598 477.228 83.4598C469.917 83.4598 463.353 81.9172 457.538 78.8332V78.8319ZM542.929 56.7853L535.552 64.6479V82.0665H516.011V12.3947H535.55V41.3586L562.569 12.3947H584.303L555.789 43.2493L585.799 82.0665H562.868L542.929 56.7853ZM308.285 133.572H286.85V117.945H349.36V133.572H328.025V187.618H308.285V133.572ZM423.137 117.945V187.617H403.397V160.444H376.478V187.617H356.738V117.944H376.478V144.121H403.397V117.944L423.137 117.945ZM433.805 117.945H453.544V187.618H433.805V117.945ZM475.677 186.921C470.359 185.528 466.039 183.67 462.716 181.348L469.196 166.814C472.321 168.873 475.942 170.533 480.063 171.793C484.183 173.054 488.238 173.684 492.227 173.684C499.803 173.684 503.593 171.793 503.593 168.01C503.593 166.02 502.511 164.544 500.352 163.581C498.191 162.62 494.72 161.608 489.934 160.545C484.682 159.418 480.296 158.206 476.772 156.913C473.249 155.618 470.226 153.546 467.7 150.692C465.176 147.838 463.911 143.99 463.911 139.145C463.911 134.9 465.074 131.068 467.402 127.65C469.727 124.233 473.2 121.529 477.82 119.538C482.438 117.548 488.105 116.552 494.818 116.552C499.405 116.552 503.923 117.066 508.377 118.096C512.828 119.125 516.752 120.633 520.143 122.624L514.06 137.254C507.414 133.672 500.966 131.88 494.721 131.88C490.796 131.88 487.94 132.462 486.147 133.621C484.35 134.784 483.453 136.293 483.453 138.15C483.453 140.009 484.515 141.402 486.645 142.332C488.77 143.261 492.191 144.222 496.911 145.218C502.229 146.346 506.634 147.557 510.123 148.85C513.611 150.144 516.635 152.202 519.195 155.022C521.753 157.842 523.033 161.674 523.033 166.516C523.033 170.698 521.871 174.48 519.544 177.862C517.217 181.249 513.727 183.952 509.075 185.976C504.422 188 498.772 189.01 492.127 189.01C486.478 189.01 480.993 188.314 475.677 186.921" fill="#D3D9F1"/>
<path d="M354.7 12.3932V82.0652H334.96V54.8932H308.041V82.0652H288.301V12.3932H308.041V38.5692H334.96V12.3932H354.7ZM409.633 53.9982L400.66 31.7022L391.687 53.9982H409.633ZM415.417 68.5302H385.905L380.423 82.0662H360.283L391.089 12.3922H410.532L441.437 82.0662H420.9L415.417 68.5302Z" fill="#D3D9F1"/>
<path d="M90.0582 121.653L92.541 123.556L127.546 101.557" fill="#DE423F"/>
<path d="M131.283 54.8786L165.985 33.9773V40.3894L165.973 79.8786C165.969 81.0079 164.761 80.2812 163.782 79.7186L128.271 57.7747C127.288 57.2107 130.304 55.4506 131.283 54.8786" fill="#B53637"/>
<path d="M90.0582 121.653L204.533 55.5479L241.377 76.0212C241.377 76.0212 238.66 78.1371 237.431 78.8798L130.93 143.586C130.93 143.586 129.308 147.518 128.705 147.152L90.0582 121.653Z" fill="#EF6B6A"/>
<path d="M129.083 13.3601L165.985 33.976L128.453 57.2373L205.741 100.615L165.986 123.594L89.7057 81.3759L54.3188 102.849L15 79.6506L129.083 13.3601Z" fill="#F35F57"/>
<path d="M90.0582 121.653L89.9366 81.1919L126.009 101.103L90.0582 121.653ZM89.938 164.969L90.0582 121.653L129.385 144.476L129.313 186.969L89.938 164.969Z" fill="#DE423F"/>
<path d="M54.2706 145.085L54.5164 101.674L89.9367 81.1918L90.0582 121.653L54.2706 145.085Z" fill="#B53637"/>
<path d="M15.1868 120.597L15.2322 79.5731L54.5149 101.674L54.2705 145.085L15.1454 123.202C15.1387 123.19 15.1908 120.608 15.1854 120.597" fill="#DE423F"/>
<path d="M129.314 186.969L129.386 144.476L241.377 76.0226L241.373 118.645L129.314 186.969Z" fill="#B53637"/>
</svg>
