<svg width="149" height="49" viewBox="0 0 149 49" fill="none" xmlns="http://www.w3.org/2000/svg">
<path d="M44.6548 0.959839H49.0723V7.86632H55.9048V0.959839H60.3223V17.8923H55.9048V11.3983H49.0723V17.8923H44.6548V0.959839Z" fill="#514F51"/>
<path d="M76.0575 17.8923L74.895 14.9003H67.575L66.39 17.8923H61.8525L69.12 0.959839H73.665L80.7675 17.8923H76.0575ZM68.91 11.5108H73.5975L71.28 5.47417L68.91 11.5108Z" fill="#514F51"/>
<path d="M92.1224 5.05422C91.3649 4.64178 90.6149 4.43931 89.8799 4.43931C89.0249 4.43931 88.2524 4.64928 87.5474 5.07672C86.8499 5.50415 86.2949 6.08907 85.8899 6.83896C85.4849 7.58885 85.2824 8.42122 85.2824 9.33609C85.2824 10.251 85.4849 11.0833 85.8899 11.8332C86.2949 12.5831 86.8424 13.168 87.5474 13.5955C88.2449 14.0229 89.0249 14.2329 89.8799 14.2329C90.5699 14.2329 91.2974 14.0529 92.0549 13.7004C92.8124 13.348 93.4874 12.8606 94.0874 12.2532L96.6749 15.0277C95.7599 15.9951 94.6649 16.76 93.4049 17.3374C92.1374 17.9073 90.8924 18.1923 89.6474 18.1923C87.9749 18.1923 86.4599 17.8098 85.1024 17.03C83.7524 16.2576 82.6874 15.2002 81.9149 13.8654C81.1424 12.5306 80.7524 11.0308 80.7524 9.37358C80.7524 7.73133 81.1499 6.24655 81.9374 4.92674C82.7249 3.60694 83.8124 2.56459 85.1849 1.8147C86.5649 1.05731 88.1024 0.682373 89.8124 0.682373C91.0649 0.682373 92.31 0.944831 93.5325 1.46975C94.755 1.99468 95.7974 2.70707 96.6449 3.60694L94.0874 6.69648C93.5324 6.01408 92.8799 5.46666 92.1224 5.05422Z" fill="#514F51"/>
<path d="M114.825 17.8923H109.537L105.09 11.3233L102.967 13.693V17.8923H98.5498V0.959839H102.967V8.30125L109.32 0.959839H114.442L108.165 7.9413L114.825 17.8923Z" fill="#514F51"/>
<path d="M44.5874 30.783H49.0049V47.7155H44.5874V30.783Z" fill="#514F51"/>
<path d="M52.2974 30.783H56.7149V43.9435H63.8924V47.708H52.2974V30.783Z" fill="#514F51"/>
<path d="M67.2451 30.783H71.6626V43.9435H78.8401V47.708H67.2451V30.783Z" fill="#514F51"/>
<path d="M81.3076 30.783H85.7251V47.7155H81.3076V30.783Z" fill="#514F51"/>
<path d="M101.04 30.783H105.142V47.7155H101.28L93.5998 37.5995V47.7155H89.4673V30.783H93.3598L101.062 40.974L101.04 30.783Z" fill="#514F51"/>
<path d="M121.657 31.6528C123.052 32.4102 124.147 33.4451 124.942 34.7649C125.737 36.0847 126.135 37.5695 126.135 39.2117C126.135 40.869 125.737 42.3687 124.942 43.7035C124.147 45.0383 123.052 46.0957 121.657 46.8681C120.262 47.6405 118.71 48.0304 116.985 48.0304C115.26 48.0304 113.7 47.648 112.312 46.8831C110.917 46.1182 109.822 45.0608 109.027 43.7185C108.232 42.3762 107.835 40.8765 107.835 39.2117C107.835 37.5695 108.232 36.0847 109.027 34.7649C109.822 33.4451 110.917 32.4027 112.312 31.6528C113.707 30.8954 115.26 30.5205 116.985 30.5205C118.71 30.513 120.262 30.8954 121.657 31.6528ZM114.705 34.9148C113.985 35.3498 113.422 35.9497 113.002 36.7146C112.582 37.4795 112.372 38.3193 112.372 39.2342C112.372 40.1716 112.582 41.0189 113.01 41.7838C113.437 42.5487 114.007 43.1486 114.712 43.5986C115.417 44.041 116.197 44.266 117.03 44.266C117.87 44.266 118.635 44.0485 119.34 43.5986C120.037 43.1561 120.592 42.5487 120.997 41.7838C121.402 41.0189 121.605 40.1716 121.605 39.2342C121.605 38.3193 121.402 37.472 120.997 36.7146C120.592 35.9497 120.045 35.3498 119.34 34.9148C118.642 34.4799 117.87 34.2624 117.03 34.2624C116.197 34.2624 115.417 34.4799 114.705 34.9148Z" fill="#514F51"/>
<path d="M128.123 30.783H132.54V47.7155H128.123V30.783Z" fill="#514F51"/>
<path d="M144.39 34.5699C143.37 34.2324 142.508 34.06 141.818 34.06C141.27 34.06 140.843 34.1575 140.528 34.3599C140.213 34.5624 140.055 34.8549 140.055 35.2448C140.055 35.6122 140.19 35.9272 140.468 36.1747C140.738 36.4221 141.083 36.6246 141.48 36.7821C141.885 36.9395 142.478 37.1345 143.265 37.3745C144.443 37.7119 145.41 38.0494 146.175 38.3868C146.94 38.7243 147.6 39.2417 148.14 39.9466C148.688 40.644 148.965 41.5589 148.965 42.6837C148.965 43.8085 148.665 44.7759 148.073 45.5708C147.48 46.3657 146.663 46.9656 145.62 47.3705C144.578 47.7754 143.423 47.9779 142.155 47.9779C140.753 47.9779 139.358 47.7305 137.963 47.243C136.568 46.7556 135.368 46.0807 134.355 45.2258L136.073 41.7688C136.928 42.5262 137.94 43.1411 139.103 43.6286C140.273 44.1085 141.308 44.3559 142.208 44.3559C142.868 44.3559 143.385 44.236 143.768 43.996C144.143 43.756 144.338 43.4036 144.338 42.9312C144.338 42.5412 144.195 42.2263 143.918 41.9638C143.633 41.7088 143.28 41.4989 142.853 41.3489C142.425 41.1989 141.825 41.0189 141.053 40.809C139.89 40.4865 138.938 40.1641 138.18 39.8341C137.423 39.5042 136.778 39.0017 136.238 38.3343C135.698 37.6669 135.428 36.7746 135.428 35.6647C135.428 34.6224 135.705 33.7 136.26 32.9126C136.815 32.1253 137.603 31.5178 138.63 31.0904C139.65 30.663 140.843 30.453 142.193 30.453C143.415 30.453 144.623 30.6255 145.815 30.9704C147.008 31.3154 148.05 31.7803 148.958 32.3577L147.293 35.8822C146.37 35.3498 145.41 34.9148 144.39 34.5699Z" fill="#514F51"/>
<path d="M9.24129 19.2646H23.0338V10.5434H32.1538V0H6.12129L0.00878906 10.5434H9.24129V19.2646Z" fill="#F15C4B"/>
<path d="M23.0325 28.4733H9.24V37.1945H0V47.738H26.2725L32.1525 37.1945H23.0325V28.4733Z" fill="#F15C4B"/>
</svg>
