<svg width="84" height="27" viewBox="0 0 84 27" fill="none" xmlns="http://www.w3.org/2000/svg">
<path d="M25.1021 0.539581H27.5853V4.42202H31.4262V0.539581H33.9094V10.0581H31.4262V6.4075H27.5853V10.0581H25.1021V0.539581Z" fill="white"/>
<path d="M42.7558 10.0581L42.1023 8.37612H37.9874L37.3212 10.0581H34.7705L38.8559 0.539581H41.4108L45.4035 10.0581H42.7558ZM38.7378 6.47073H41.3729L40.0701 3.07729L38.7378 6.47073Z" fill="white"/>
<path d="M51.7866 2.84122C51.3608 2.60936 50.9392 2.49555 50.526 2.49555C50.0454 2.49555 49.6111 2.61358 49.2148 2.85386C48.8227 3.09414 48.5107 3.42295 48.283 3.8445C48.0554 4.26604 47.9415 4.73395 47.9415 5.24824C47.9415 5.76253 48.0554 6.23044 48.283 6.65199C48.5107 7.07353 48.8185 7.40234 49.2148 7.64262C49.6069 7.8829 50.0454 8.00094 50.526 8.00094C50.9139 8.00094 51.3228 7.89976 51.7487 7.70164C52.1745 7.50351 52.5539 7.22951 52.8912 6.88805L54.3458 8.44777C53.8314 8.99157 53.2158 9.42155 52.5075 9.74614C51.795 10.0665 51.0952 10.2267 50.3953 10.2267C49.4551 10.2267 48.6035 10.0117 47.8403 9.5733C47.0815 9.13911 46.4828 8.54473 46.0485 7.79438C45.6143 7.04403 45.395 6.20094 45.395 5.26932C45.395 4.34613 45.6185 3.51147 46.0612 2.76955C46.5038 2.02763 47.1152 1.44168 47.8867 1.02014C48.6625 0.594377 49.5268 0.383606 50.488 0.383606C51.1921 0.383606 51.892 0.531145 52.5792 0.826227C53.2664 1.12131 53.8525 1.52178 54.3289 2.02763L52.8912 3.7644C52.5792 3.38079 52.2124 3.07307 51.7866 2.84122Z" fill="white"/>
<path d="M64.5483 10.0581H61.576L59.0758 6.36534L57.8827 7.69743V10.0581H55.3994V0.539581H57.8827V4.66651L61.4537 0.539581H64.3333L60.8044 4.46417L64.5483 10.0581Z" fill="white"/>
<path d="M25.0649 17.3044H27.5482V26.823H25.0649V17.3044Z" fill="white"/>
<path d="M29.3994 17.3044H31.8827V24.7026H35.9175V26.8187H29.3994V17.3044Z" fill="white"/>
<path d="M37.8022 17.3044H40.2855V24.7026H44.3203V26.8187H37.8022V17.3044Z" fill="white"/>
<path d="M45.7065 17.3044H48.1898V26.823H45.7065V17.3044Z" fill="white"/>
<path d="M56.7989 17.3044H59.1051V26.823H56.9338L52.6165 21.1363V26.823H50.2935V17.3044H52.4816L56.8115 23.0333L56.7989 17.3044Z" fill="white"/>
<path d="M68.3889 17.7935C69.1731 18.2192 69.7886 18.801 70.2355 19.5429C70.6824 20.2848 70.9059 21.1195 70.9059 22.0426C70.9059 22.9743 70.6824 23.8173 70.2355 24.5677C69.7886 25.318 69.1731 25.9124 68.3889 26.3466C67.6047 26.7808 66.732 27 65.7623 27C64.7926 27 63.9156 26.785 63.1357 26.355C62.3515 25.9251 61.7359 25.3307 61.289 24.5761C60.8421 23.8216 60.6187 22.9785 60.6187 22.0426C60.6187 21.1195 60.8421 20.2848 61.289 19.5429C61.7359 18.801 62.3515 18.215 63.1357 17.7935C63.9198 17.3677 64.7926 17.1569 65.7623 17.1569C66.732 17.1527 67.6047 17.3677 68.3889 17.7935ZM64.4806 19.6272C64.0758 19.8717 63.7596 20.2089 63.5235 20.6389C63.2874 21.0689 63.1694 21.541 63.1694 22.0553C63.1694 22.5822 63.2874 23.0586 63.5277 23.4885C63.7681 23.9185 64.0885 24.2557 64.4848 24.5087C64.8811 24.7574 65.3196 24.8839 65.7876 24.8839C66.2598 24.8839 66.6898 24.7616 67.0861 24.5087C67.4782 24.26 67.7902 23.9185 68.0179 23.4885C68.2455 23.0586 68.3594 22.5822 68.3594 22.0553C68.3594 21.541 68.2455 21.0646 68.0179 20.6389C67.7902 20.2089 67.4824 19.8717 67.0861 19.6272C66.694 19.3827 66.2598 19.2604 65.7876 19.2604C65.3196 19.2604 64.8811 19.3827 64.4806 19.6272Z" fill="white"/>
<path d="M72.0229 17.3044H74.5062V26.823H72.0229V17.3044Z" fill="white"/>
<path d="M81.168 19.4332C80.5946 19.2435 80.1097 19.1466 79.7219 19.1466C79.4141 19.1466 79.1738 19.2014 78.9967 19.3152C78.8196 19.429 78.7311 19.5934 78.7311 19.8126C78.7311 20.0192 78.807 20.1962 78.963 20.3354C79.1147 20.4745 79.3087 20.5883 79.5321 20.6768C79.7598 20.7653 80.0929 20.8749 80.5356 21.0098C81.1975 21.1995 81.7414 21.3892 82.1714 21.5789C82.6014 21.7686 82.9725 22.0595 83.276 22.4557C83.5838 22.8478 83.7398 23.3621 83.7398 23.9944C83.7398 24.6267 83.5711 25.1705 83.2381 25.6173C82.905 26.0642 82.4454 26.4014 81.8594 26.629C81.2734 26.8567 80.6241 26.9705 79.9116 26.9705C79.1232 26.9705 78.339 26.8314 77.5548 26.5574C76.7706 26.2834 76.096 25.904 75.5269 25.4234L76.4923 23.4801C76.973 23.9058 77.5421 24.2515 78.1956 24.5255C78.8533 24.7953 79.4352 24.9344 79.9411 24.9344C80.3121 24.9344 80.603 24.867 80.818 24.7321C81.0288 24.5972 81.1385 24.3991 81.1385 24.1335C81.1385 23.9143 81.0584 23.7372 80.9024 23.5897C80.7422 23.4464 80.544 23.3283 80.3037 23.244C80.0634 23.1597 79.7261 23.0585 79.2918 22.9405C78.6383 22.7592 78.1029 22.578 77.677 22.3925C77.2512 22.207 76.8886 21.9246 76.5851 21.5494C76.2815 21.1742 76.1298 20.6726 76.1298 20.0487C76.1298 19.4628 76.2857 18.9443 76.5977 18.5016C76.9097 18.059 77.3524 17.7176 77.93 17.4773C78.5034 17.237 79.1738 17.119 79.9327 17.119C80.6199 17.119 81.2987 17.2159 81.969 17.4098C82.6394 17.6037 83.2254 17.8651 83.7356 18.1897L82.7996 20.1709C82.281 19.8717 81.7414 19.6272 81.168 19.4332Z" fill="white"/>
<path d="M5.19634 10.8295H12.9497V5.92693H18.0765V0H3.44245L0.00634766 5.92693H5.19634V10.8295Z" fill="#F15C4B"/>
<path d="M12.9476 16.0061H5.19421V20.9087H0V26.8356H14.7689L18.0743 20.9087H12.9476V16.0061Z" fill="#F15C4B"/>
</svg>
