<svg width="600" height="200" viewBox="0 0 600 200" fill="none" xmlns="http://www.w3.org/2000/svg">
<path d="M456.8 79.1727C450.994 76.0719 446.432 71.7543 443.114 66.2186C439.796 60.6843 438.138 54.4143 438.138 47.4127C438.138 40.411 439.796 34.1424 443.114 28.6067C446.434 23.0724 450.994 18.7535 456.8 15.6526C462.606 12.5518 469.16 11 476.457 11C482.828 11 488.567 12.135 493.676 14.4037C498.785 16.6697 503.033 19.938 506.417 24.2047L493.876 35.6084C489.363 30.141 483.889 27.4074 477.453 27.4074C473.671 27.4074 470.303 28.2409 467.351 29.9065C464.398 31.5735 462.107 33.9266 460.484 36.9591C458.858 39.9943 458.046 43.4783 458.046 47.4127C458.046 51.3483 458.856 54.8324 460.483 57.8649C462.107 60.9014 464.398 63.2518 467.351 64.9175C470.303 66.5858 473.671 67.4193 477.453 67.4193C483.888 67.4193 489.363 64.6857 493.876 59.2157L506.417 70.6193C503.033 74.8886 498.785 78.157 493.676 80.423C488.567 82.689 482.828 83.824 476.457 83.824C469.159 83.824 462.606 82.2735 456.8 79.1741V79.1727ZM542.049 57.0153L534.684 64.9175V82.4237H515.176V12.4017H534.683V41.5112L561.656 12.4017H583.355L554.888 43.4113L584.848 82.4237H561.955L542.049 57.0153ZM307.797 134.188H286.397V118.483H348.803V134.188H327.503V188.506H307.797V134.188ZM422.456 118.483V188.504H402.75V161.195H375.875V188.504H356.168V118.481H375.875V144.79H402.75V118.481L422.456 118.483ZM433.107 118.483H452.814V188.506H433.107V118.483ZM474.91 187.805C469.6 186.405 465.287 184.538 461.97 182.204L468.439 167.597C471.559 169.666 475.174 171.335 479.288 172.601C483.401 173.869 487.449 174.501 491.432 174.501C498.995 174.501 502.779 172.601 502.779 168.799C502.779 166.799 501.699 165.315 499.543 164.348C497.385 163.382 493.92 162.364 489.143 161.296C483.899 160.164 479.52 158.946 476.003 157.646C472.486 156.345 469.467 154.263 466.946 151.394C464.426 148.526 463.163 144.659 463.163 139.789C463.163 135.522 464.324 131.671 466.648 128.237C468.97 124.802 472.436 122.085 477.048 120.084C481.659 118.083 487.316 117.082 494.019 117.082C498.597 117.082 503.108 117.599 507.555 118.634C511.999 119.668 515.916 121.184 519.301 123.185L513.228 137.889C506.593 134.288 500.156 132.487 493.921 132.487C490.003 132.487 487.152 133.073 485.361 134.237C483.568 135.406 482.672 136.923 482.672 138.789C482.672 140.657 483.732 142.058 485.859 142.992C487.98 143.926 491.396 144.892 496.108 145.893C501.417 147.026 505.815 148.243 509.297 149.543C512.78 150.843 515.799 152.912 518.355 155.746C520.908 158.58 522.187 162.431 522.187 167.297C522.187 171.501 521.027 175.301 518.703 178.701C516.38 182.104 512.896 184.821 508.252 186.855C503.607 188.889 497.965 189.905 491.332 189.905C485.692 189.905 480.216 189.205 474.91 187.805" fill="#515052"/>
<path d="M354.134 12.4002V82.4223H334.427V55.1137H307.553V82.4223H287.846V12.4002H307.553V38.7077H334.427V12.4002H354.134ZM408.976 54.2142L400.018 31.8062L391.06 54.2142H408.976ZM414.75 68.8193H385.287L379.814 82.4233H359.708L390.463 12.3992H409.873L440.727 82.4233H420.224L414.75 68.8193Z" fill="#515052"/>
<path d="M89.9331 122.209L92.4118 124.121L127.358 102.012" fill="#DE423F"/>
<path d="M131.089 55.0991L165.733 34.0928V40.5371L165.721 80.2247C165.717 81.3597 164.512 80.6294 163.534 80.0639L128.082 58.0097C127.101 57.4429 130.112 55.674 131.089 55.0991" fill="#B53637"/>
<path d="M89.9331 122.209L204.217 55.7717L240.999 76.3479C240.999 76.3479 238.287 78.4745 237.061 79.2209L130.737 144.253C130.737 144.253 129.117 148.204 128.516 147.836L89.9331 122.209Z" fill="#EF6B6A"/>
<path d="M128.893 13.3719L165.733 34.0915L128.264 57.4696L205.423 101.065L165.734 124.16L89.5811 81.7296L54.2532 103.311L15 79.9956L128.893 13.3719Z" fill="#F35F57"/>
<path d="M89.9331 122.209L89.8118 81.5447L125.824 101.555L89.9331 122.209ZM89.8131 165.743L89.9331 122.209L129.194 145.147L129.122 187.853L89.8131 165.743Z" fill="#DE423F"/>
<path d="M54.2052 145.759L54.4506 102.13L89.8118 81.5446L89.9331 122.209L54.2052 145.759Z" fill="#B53637"/>
<path d="M15.1867 121.148L15.232 79.9178L54.4492 102.13L54.2052 145.759L15.1453 123.766C15.1387 123.754 15.1907 121.159 15.1853 121.148" fill="#DE423F"/>
<path d="M129.124 187.853L129.196 145.147L240.999 76.3494L240.995 119.186L129.124 187.853Z" fill="#B53637"/>
</svg>
