<svg width="161" height="19" viewBox="0 0 161 19" fill="none" xmlns="http://www.w3.org/2000/svg">
<g clip-path="url(#clip0)">
<path d="M13.221 0.980843V3.21334C13.2229 3.24575 13.2179 3.27819 13.2063 3.30852C13.1947 3.33884 13.1768 3.36635 13.1537 3.38923C13.1307 3.41211 13.1031 3.42984 13.0727 3.44123C13.0423 3.45263 13.0098 3.45744 12.9774 3.45534H3.39032V8.0181H11.3026C11.3349 8.01624 11.3672 8.02123 11.3974 8.03273C11.4276 8.04423 11.455 8.06199 11.4779 8.08485C11.5007 8.1077 11.5185 8.13513 11.53 8.16534C11.5415 8.19554 11.5465 8.22784 11.5446 8.2601V10.4942C11.5465 10.5265 11.5415 10.5588 11.53 10.589C11.5185 10.6192 11.5007 10.6466 11.4779 10.6695C11.455 10.6923 11.4276 10.7101 11.3974 10.7216C11.3672 10.7331 11.3349 10.7381 11.3026 10.7362H3.39032V17.4818C3.39263 17.5142 3.38804 17.5467 3.37684 17.5772C3.36564 17.6076 3.3481 17.6354 3.32537 17.6586C3.30264 17.6817 3.27525 17.6998 3.245 17.7116C3.21475 17.7234 3.18234 17.7287 3.14992 17.727H0.745934C0.713457 17.7289 0.680952 17.7238 0.650554 17.7122C0.620155 17.7007 0.59255 17.6828 0.569547 17.6598C0.546544 17.6368 0.528665 17.6092 0.517081 17.5788C0.505497 17.5484 0.50047 17.5159 0.502331 17.4834V0.976035C0.50047 0.943557 0.505497 0.911053 0.517081 0.880655C0.528665 0.850256 0.546544 0.82265 0.569547 0.799648C0.59255 0.776645 0.620155 0.758764 0.650554 0.74718C0.680952 0.735596 0.713457 0.73057 0.745934 0.732431H12.9758C13.0088 0.730259 13.042 0.735223 13.0729 0.746983C13.1039 0.758744 13.1319 0.777027 13.1552 0.800592C13.1784 0.824156 13.1964 0.85245 13.2077 0.883551C13.2191 0.914653 13.2236 0.947834 13.221 0.980843Z" fill="#677B8C"/>
<path d="M32.78 17.7282H30.1356C30.07 17.7327 30.005 17.7128 29.9532 17.6723C29.9014 17.6317 29.8665 17.5734 29.8552 17.5086C29.5042 16.1143 29.0795 14.6463 28.5939 13.1654H20.4764C19.9956 14.6463 19.5661 16.1143 19.2264 17.5086C19.2154 17.5733 19.1808 17.6316 19.1292 17.6721C19.0777 17.7127 19.0129 17.7327 18.9475 17.7282H16.3993C16.2294 17.7282 16.1332 17.6304 16.1813 17.4606C17.7102 12.05 20.0389 6.0817 22.3932 1.05577C22.4254 0.955917 22.4904 0.869897 22.5777 0.8117C22.665 0.753504 22.7694 0.726556 22.874 0.735237H26.3085C26.413 0.726556 26.5175 0.753504 26.6048 0.8117C26.6921 0.869897 26.7571 0.955917 26.7893 1.05577C29.2893 6.35165 31.3664 11.837 33.0012 17.4606C33.0477 17.6288 32.9499 17.7282 32.78 17.7282ZM27.6964 10.5451C26.8101 8.09303 25.8277 5.64257 24.8116 3.41007H24.2427C23.2346 5.64257 22.2394 8.09303 21.3579 10.5451H27.6964Z" fill="#677B8C"/>
<path d="M37.123 9.37755C37.123 4.10481 40.5928 0.418701 45.5402 0.418701H45.904C49.0116 0.418701 51.4139 1.99572 52.6881 4.27629C52.7104 4.30233 52.7261 4.33333 52.734 4.3667C52.7419 4.40007 52.7416 4.43484 52.7333 4.46811C52.725 4.50137 52.7088 4.53216 52.6862 4.5579C52.6635 4.58364 52.6351 4.60358 52.6031 4.61606L50.4668 5.67221C50.4323 5.69486 50.3934 5.71006 50.3527 5.71684C50.312 5.72361 50.2703 5.72182 50.2303 5.71156C50.1904 5.7013 50.153 5.68281 50.1205 5.65726C50.0881 5.63172 50.0614 5.59969 50.0421 5.56323C49.1446 4.01025 47.7983 3.18489 45.8078 3.18489H45.444C42.3253 3.18489 40.1777 5.65939 40.1777 9.25094C40.1777 12.8425 42.2884 15.2689 45.444 15.2689H45.8078C47.8464 15.2689 49.0356 14.5782 49.9459 13.522C49.9908 13.4614 50.0564 13.4194 50.1302 13.4037C50.204 13.3881 50.2809 13.3999 50.3466 13.4371L52.5422 14.5044C52.5759 14.5192 52.6049 14.5428 52.6264 14.5727C52.6478 14.6026 52.6608 14.6377 52.664 14.6743C52.6592 14.7415 52.6334 14.8054 52.5903 14.857C51.2441 16.8235 48.8176 18.0367 45.8591 18.0367H45.4953C40.4598 18.0479 37.123 14.583 37.123 9.37755Z" fill="#677B8C"/>
<path d="M72.019 15.2496V17.4821C72.0209 17.5144 72.0159 17.5468 72.0044 17.577C71.9929 17.6073 71.9752 17.6348 71.9524 17.6578C71.9295 17.6808 71.9021 17.6987 71.8719 17.7104C71.8417 17.7221 71.8094 17.7273 71.777 17.7257H59.0359C59.0035 17.7275 58.9711 17.7225 58.9408 17.7109C58.9104 17.6993 58.8829 17.6814 58.86 17.6584C58.8372 17.6354 58.8194 17.6077 58.808 17.5773C58.7966 17.5469 58.7918 17.5145 58.7939 17.4821V0.974703C58.7918 0.942306 58.7966 0.909833 58.808 0.879435C58.8194 0.849036 58.8372 0.821406 58.86 0.798374C58.8829 0.775342 58.9104 0.757435 58.9408 0.745837C58.9711 0.734239 59.0035 0.729215 59.0359 0.731099H71.5575C71.59 0.729239 71.6225 0.734266 71.6529 0.74585C71.6832 0.757434 71.7109 0.775314 71.7339 0.798316C71.7569 0.821319 71.7747 0.848925 71.7863 0.879323C71.7979 0.909722 71.8029 0.942226 71.8011 0.974703V3.2072C71.803 3.23961 71.7979 3.27205 71.7863 3.30238C71.7747 3.3327 71.7568 3.36021 71.7338 3.38309C71.7108 3.40597 71.6831 3.4237 71.6527 3.4351C71.6223 3.44649 71.5899 3.4513 71.5575 3.4492H61.6803V7.86612H69.7128C69.7453 7.86426 69.7778 7.86929 69.8082 7.88087C69.8386 7.89246 69.8662 7.91034 69.8892 7.93334C69.9122 7.95634 69.9301 7.98395 69.9417 8.01435C69.9533 8.04475 69.9583 8.07725 69.9564 8.10973V10.3182C69.958 10.3505 69.9528 10.3829 69.9412 10.4131C69.9295 10.4433 69.9116 10.4707 69.8886 10.4935C69.8656 10.5163 69.8381 10.5341 69.8078 10.5456C69.7775 10.557 69.7452 10.562 69.7128 10.5602H61.6803V15.0027H71.777C71.8097 15.0008 71.8425 15.0059 71.873 15.0177C71.9036 15.0295 71.9313 15.0477 71.9542 15.0711C71.9771 15.0945 71.9948 15.1225 72.006 15.1533C72.0172 15.1841 72.0216 15.2169 72.019 15.2496Z" fill="#677B8C"/>
<path d="M93.9565 13.0667C93.9565 16.0381 91.6759 17.7257 87.6469 17.7257H79.2986C79.2662 17.7275 79.2338 17.7225 79.2035 17.7109C79.1731 17.6993 79.1456 17.6814 79.1227 17.6584C79.0999 17.6354 79.0821 17.6077 79.0707 17.5773C79.0593 17.5469 79.0545 17.5145 79.0566 17.4821V0.974703C79.0545 0.942306 79.0593 0.909833 79.0707 0.879435C79.0821 0.849036 79.0999 0.821406 79.1227 0.798374C79.1456 0.775342 79.1731 0.757435 79.2035 0.745837C79.2338 0.734239 79.2662 0.729215 79.2986 0.731099H86.9064C90.8265 0.731099 92.9613 2.28407 92.9613 5.12398C92.9613 6.99268 92.0157 8.21871 90.0973 8.78765C92.7914 9.36461 93.9565 10.9785 93.9565 13.0667ZM86.8455 3.38349H81.9446V7.95106H86.8455C89.0428 7.95106 90.0508 7.23468 90.0508 5.66888C90.0508 4.10309 89.0428 3.38349 86.8455 3.38349ZM90.9964 12.8119C90.9964 11.2333 89.9531 10.5185 87.6597 10.5185H81.9446V15.0797H87.6597C89.9883 15.0797 90.9964 14.4002 90.9964 12.8119Z" fill="#677B8C"/>
<path d="M99.04 9.23331C99.04 4.11282 102.438 0.418701 107.776 0.418701H108.14C113.478 0.418701 116.876 4.10481 116.876 9.23331C116.876 14.3618 113.478 18.0479 108.14 18.0479H107.776C102.434 18.0479 99.04 14.3522 99.04 9.23331ZM108.14 15.2753C111.622 15.2753 113.818 12.8858 113.818 9.23331C113.818 5.58086 111.622 3.1913 108.14 3.1913H107.776C104.294 3.1913 102.098 5.58086 102.098 9.23331C102.098 12.8858 104.294 15.2753 107.776 15.2753H108.14Z" fill="#677B8C"/>
<path d="M121.802 9.23331C121.802 4.11282 125.2 0.418701 130.538 0.418701H130.902C136.241 0.418701 139.638 4.10481 139.638 9.23331C139.638 14.3618 136.241 18.0479 130.902 18.0479H130.538C125.2 18.0479 121.802 14.3522 121.802 9.23331ZM130.902 15.2753C134.385 15.2753 136.58 12.8858 136.58 9.23331C136.58 5.58086 134.385 3.1913 130.902 3.1913H130.538C127.056 3.1913 124.86 5.58086 124.86 9.23331C124.86 12.8858 127.056 15.2753 130.538 15.2753H130.902Z" fill="#677B8C"/>
<path d="M160.569 17.7273H157.438C157.355 17.7343 157.272 17.7187 157.197 17.6823C157.122 17.6459 157.059 17.59 157.013 17.5205C154.859 14.998 152.519 12.6408 150.013 10.4688H148.605V17.4821C148.607 17.5145 148.602 17.547 148.591 17.5774C148.579 17.6078 148.561 17.6354 148.538 17.6584C148.515 17.6814 148.488 17.6993 148.457 17.7109C148.427 17.7225 148.394 17.7275 148.362 17.7257H145.958C145.925 17.7275 145.893 17.7225 145.863 17.7109C145.832 17.6993 145.805 17.6814 145.782 17.6584C145.759 17.6354 145.741 17.6077 145.73 17.5773C145.719 17.5469 145.714 17.5145 145.716 17.4821V0.974704C145.714 0.942306 145.719 0.909833 145.73 0.879435C145.741 0.849036 145.759 0.821406 145.782 0.798374C145.805 0.775342 145.832 0.757435 145.863 0.745837C145.893 0.734239 145.925 0.729215 145.958 0.731099H148.362C148.394 0.729239 148.427 0.734266 148.457 0.74585C148.488 0.757434 148.515 0.775314 148.538 0.798316C148.561 0.821319 148.579 0.848925 148.591 0.879323C148.602 0.909722 148.607 0.942226 148.605 0.974704V7.67861H150.033C152.341 5.61822 154.461 3.35649 156.367 0.920213C156.405 0.859291 156.459 0.810015 156.523 0.777787C156.587 0.745559 156.659 0.731624 156.731 0.73751H159.693C159.837 0.73751 159.911 0.811233 159.911 0.907392C159.904 0.976341 159.874 1.04098 159.826 1.09009C157.541 3.9424 155.003 6.58206 152.242 8.97676C155.286 11.5563 158.115 14.3805 160.699 17.4212C160.835 17.5798 160.771 17.7273 160.569 17.7273Z" fill="#677B8C"/>
</g>
<defs>
<clipPath id="clip0">
<rect width="160.266" height="17.618" fill="white" transform="translate(0.503906 0.423828)"/>
</clipPath>
</defs>
</svg>
