<svg width="330" height="101" viewBox="0 0 330 101" fill="none" xmlns="http://www.w3.org/2000/svg">
<g clip-path="url(#clip0)">
<path d="M64.0405 64.3013C62.5 70.2512 60.9871 76.4041 59.502 82.6677C66.1438 86.9572 72.6564 91.1821 79.1414 94.8074C74.1785 85.3982 69.1971 75.0296 64.0405 64.3013Z" fill="#F57F29"/>
<path d="M64.04 64.3013C69.9808 68.5354 75.7739 72.8249 81.4932 76.8008C80.7183 82.6031 79.925 88.6176 79.1409 94.8074C74.178 85.3982 69.1967 75.0296 64.04 64.3013Z" fill="#E0601F"/>
<path d="M64.0405 64.3013C62.5 70.2512 60.9871 76.4041 59.502 82.6677C52.8694 78.3782 46.0984 74.0333 39.2998 70.159C47.3681 67.5169 55.6441 65.5574 64.0405 64.3013Z" fill="#E0601F"/>
<path d="M64.0405 64.3011C58.0721 60.067 52.0391 55.9159 45.9047 52.1245C43.6446 58.056 41.4399 64.1167 39.2998 70.1589C47.3681 67.5168 55.6441 65.5573 64.0405 64.3011Z" fill="#FDB515"/>
<path d="M70.802 39.9019C69.7873 43.3058 68.7725 46.8388 67.7578 50.4734C73.0805 54.7444 78.2555 59.1354 83.3015 63.388C79.1965 56.0082 75.0638 48.1026 70.802 39.9388V39.9019Z" fill="#F57F29"/>
<path d="M70.8027 39.9019C75.5996 44.219 80.212 48.6746 84.7044 53.0655C84.2493 56.3864 83.7819 59.815 83.3022 63.3511C79.1972 55.9713 75.0646 48.0657 70.8027 39.9019Z" fill="#E0601F"/>
<path d="M64.0404 64.3014C65.2673 59.5599 66.5126 54.9383 67.7303 50.4644C73.0529 54.7354 78.228 59.1264 83.2739 63.379C76.8388 63.045 70.3864 63.354 64.0127 64.3014H64.0404Z" fill="#FDB515"/>
<path d="M64.04 64.301C69.9808 68.5352 75.7739 72.8247 81.4932 76.8005C82.1082 72.1697 82.7232 67.6865 83.3382 63.3509C76.9031 63.0169 70.4507 63.3259 64.0769 64.2734L64.04 64.301Z" fill="#F57F29"/>
<path d="M70.8027 39.9019C71.6422 37.0699 72.4816 34.3671 73.3026 31.6919C77.629 36.046 81.7894 40.5384 85.7929 45.0216C81.0194 42.7205 75.9866 41.0016 70.8027 39.9019Z" fill="#B3B2B1"/>
<path d="M70.8027 39.9019C75.5996 44.219 80.212 48.6746 84.7044 53.0655C85.0826 50.2981 85.4516 47.623 85.7929 45.0216C81.0194 42.7204 75.9866 41.0015 70.8027 39.9019Z" fill="#8B8B8E"/>
<path d="M70.8022 39.9021C71.6416 37.0702 72.4811 34.3673 73.3021 31.6921C68.9849 27.3196 64.5294 23.1408 59.917 19.2388C63.6069 26.1758 67.2968 33.122 70.8206 39.9021H70.8022Z" fill="#8B8B8E"/>
<path d="M70.8025 39.9022C66.0149 35.585 61.0704 31.397 56.043 27.5503C57.3344 24.6906 58.6351 21.9048 59.9266 19.248C63.6165 26.185 67.3064 33.1313 70.8302 39.9114L70.8025 39.9022Z" fill="#D2D0CE"/>
<path d="M27.5293 42.4663C24.6419 48.4808 21.8653 54.5415 19.1348 60.4637C26.1044 63.1523 32.8477 66.3944 39.3 70.1589C35.4164 60.6667 31.4682 51.3682 27.5293 42.4848V42.4663Z" fill="#E0601F"/>
<path d="M27.5293 42.4663C33.8851 45.2266 40.0272 48.4549 45.905 52.1246C43.6449 58.0561 41.4402 64.1167 39.3001 70.1589C35.4164 60.6667 31.4683 51.3682 27.5293 42.4848V42.4663Z" fill="#F57F29"/>
<path d="M27.5291 42.4663C24.6418 48.4808 21.8652 54.5415 19.1346 60.4638C12.5943 58.0377 6.33072 56.5894 0.878906 56.6078C8.83973 50.3299 17.8677 45.5393 27.5291 42.4663Z" fill="#E09E14"/>
<path d="M27.5291 42.4666C21.9934 40.0179 16.1495 38.3358 10.159 37.4668C6.93033 43.9241 3.86772 50.3814 0.878906 56.6081C8.83973 50.3302 17.8677 45.5396 27.5291 42.4666Z" fill="#FFD600"/>
<path d="M40.6283 17.1724C38.5712 20.7516 36.5602 24.4691 34.5861 28.242C29.3658 25.5784 23.8646 23.5054 18.1846 22.0615C25.3099 19.092 32.9135 17.4356 40.6283 17.1724Z" fill="#FFD600"/>
<path d="M40.6283 17.1724C35.7377 14.3029 30.5894 11.8971 25.2507 9.98633C22.8154 13.8976 20.4631 17.9473 18.1846 22.0707C25.3093 19.0981 32.9129 17.4386 40.6283 17.1724Z" fill="#F2B411"/>
<path d="M27.5292 42.4663C29.8169 37.6787 32.1416 32.9187 34.5861 28.2787C29.3658 25.6151 23.8646 23.5421 18.1846 22.0981C21.2564 28.5555 24.3836 35.3817 27.5292 42.4663Z" fill="#F2B411"/>
<path d="M27.5293 42.4664C21.9936 40.0177 16.1497 38.3355 10.1592 37.4666C12.7237 32.3192 15.3988 27.1533 18.1847 22.1074C21.2565 28.5647 24.3837 35.391 27.5293 42.4756V42.4664Z" fill="#E09E14"/>
<path d="M40.6279 17.1724C42.3253 14.2021 44.0595 11.3147 45.803 8.53809C50.714 11.8243 55.4268 15.3974 59.9168 19.2388C53.6178 17.6381 47.123 16.9423 40.6279 17.1724Z" fill="#8B8B8E"/>
<path d="M40.6279 17.1721C45.9699 20.3045 51.1091 23.7706 56.0148 27.5499C57.3062 24.6903 58.6069 21.9044 59.8984 19.2477C53.6058 17.6456 47.1173 16.9468 40.6279 17.1721Z" fill="#B3B2B1"/>
<path d="M40.6284 17.1724C42.3257 14.202 44.06 11.3147 45.8034 8.53803C41.2476 5.49415 36.45 2.82852 31.459 0.567871C34.5308 5.91821 37.5934 11.4899 40.6284 17.1724Z" fill="#F2B411"/>
<path d="M40.6276 17.1722C35.737 14.3027 30.5887 11.8969 25.25 9.98616C27.261 6.72675 29.3304 3.57805 31.4582 0.540039C34.5301 5.89038 37.5927 11.4621 40.6276 17.1445V17.1722Z" fill="#E09E14"/>
<path d="M120.228 63.9232C111.972 63.9232 106.216 70.5189 106.216 78.6828C106.216 86.8467 112.092 93.5254 120.339 93.5254C128.586 93.5254 134.351 86.9389 134.351 78.7658C134.351 70.5927 128.475 63.9232 120.228 63.9232ZM120.228 100.195C107.461 100.195 98.5591 90.5181 98.5591 78.7658C98.525 75.907 99.0667 73.0705 100.152 70.4254C101.237 67.7804 102.844 65.3809 104.877 63.3701C106.909 61.3592 109.325 59.7781 111.982 58.7209C114.638 57.6638 117.48 57.1523 120.339 57.2169C133.106 57.2169 142.008 66.8936 142.008 78.6459C142.042 81.5048 141.5 84.3412 140.415 86.9863C139.329 89.6313 137.723 92.0308 135.69 94.0416C133.658 96.0525 131.241 97.6336 128.585 98.6908C125.928 99.7479 123.086 100.259 120.228 100.195Z" fill="#55565A"/>
<path d="M164.571 64.578H156.075V79.5313H164.571C170.106 79.5313 173.537 76.5056 173.537 72.0593C173.537 67.1333 170.032 64.578 164.571 64.578ZM164.331 86.127H156.075V99.4844H148.778V57.9731H165.161C174.838 57.9731 180.954 63.4342 180.954 71.9301C180.954 81.3025 173.473 86.1731 164.35 86.1731L164.331 86.127Z" fill="#55565A"/>
<path d="M204.819 99.4846H197.458V64.6982H184.275V57.9272H218.001V64.6982H204.819V99.4846Z" fill="#55565A"/>
<path d="M260.029 81.4964C260.029 93.9037 253.018 100.14 242.161 100.14C231.303 100.14 224.468 93.9037 224.468 81.8562V57.9272H231.774V81.5518C231.774 89.2729 235.75 93.424 242.281 93.424C248.812 93.424 252.714 89.5127 252.714 81.8562V57.9272H260.02V81.4964H260.029Z" fill="#55565A"/>
<path d="M288.404 89.2729H288.164L275.167 69.7995V99.4846H267.98V57.9272H275.757L288.404 77.5759L301.042 57.9272H308.818V99.4846H301.522V69.6795L288.404 89.2729Z" fill="#55565A"/>
<path d="M323.412 62.7148C324.335 62.7148 324.815 62.2536 324.815 61.571C324.815 60.8883 324.28 60.464 323.412 60.464H321.733V62.7148H323.412ZM320.728 59.6061H323.495C324.787 59.6061 325.829 60.2795 325.829 61.5341C325.832 61.9814 325.678 62.4157 325.395 62.7623C325.113 63.109 324.718 63.3466 324.28 63.4344L326.041 65.8697H324.787L323.209 63.582H321.706V65.8697H320.7V59.6061H320.728ZM328.578 62.8624C328.578 61.3945 327.995 59.9867 326.957 58.9487C325.919 57.9107 324.511 57.3276 323.043 57.3276C321.575 57.3276 320.168 57.9107 319.13 58.9487C318.092 59.9867 317.509 61.3945 317.509 62.8624C317.501 63.5913 317.639 64.3144 317.915 64.9892C318.19 65.6641 318.598 66.2772 319.113 66.7927C319.629 67.3081 320.242 67.7155 320.917 67.991C321.591 68.2666 322.314 68.4047 323.043 68.3973C323.775 68.3973 324.499 68.2523 325.174 67.9707C325.85 67.6891 326.462 67.2765 326.977 66.7566C327.492 66.2368 327.898 65.6201 328.173 64.9422C328.448 64.2643 328.586 63.5386 328.578 62.8071V62.8624ZM316.826 62.8624C316.794 62.024 316.931 61.1876 317.23 60.4034C317.528 59.6193 317.982 58.9034 318.564 58.2988C319.146 57.6942 319.843 57.2132 320.616 56.8846C321.388 56.5561 322.218 56.3867 323.057 56.3867C323.896 56.3867 324.727 56.5561 325.499 56.8846C326.271 57.2132 326.969 57.6942 327.551 58.2988C328.132 58.9034 328.586 59.6193 328.885 60.4034C329.184 61.1876 329.321 62.024 329.289 62.8624C329.321 63.7009 329.184 64.5373 328.885 65.3214C328.586 66.1056 328.132 66.8215 327.551 67.4261C326.969 68.0307 326.271 68.5117 325.499 68.8403C324.727 69.1688 323.896 69.3382 323.057 69.3382C322.218 69.3382 321.388 69.1688 320.616 68.8403C319.843 68.5117 319.146 68.0307 318.564 67.4261C317.982 66.8215 317.528 66.1056 317.23 65.3214C316.931 64.5373 316.794 63.7009 316.826 62.8624Z" fill="#55565A"/>
</g>
<defs>
<clipPath id="clip0">
<rect width="328.409" height="99.627" fill="white" transform="translate(0.878906 0.567871)"/>
</clipPath>
</defs>
</svg>
