<svg width="784" height="144" viewBox="0 0 784 144" fill="none" xmlns="http://www.w3.org/2000/svg">
<path d="M90.67 143.39C89.7226 143.478 88.7736 143.239 87.9805 142.714C87.1874 142.188 86.598 141.407 86.31 140.5L79.46 122.72L79.21 122.79C73.6708 124.307 67.9531 125.074 62.21 125.07C27.33 125.07 0 97.59 0 62.52C0 27.45 27.36 0 62.24 0C97.12 0 124.45 27.47 124.45 62.55C124.45 84.46 113.72 104.28 95.76 115.55L95.56 115.68L104.44 138.84C104.694 139.362 104.816 139.938 104.797 140.519C104.778 141.099 104.618 141.666 104.33 142.17C103.985 142.593 103.543 142.926 103.041 143.142C102.54 143.358 101.994 143.45 101.45 143.41L90.67 143.39ZM62.24 16.39C36.97 16.39 18.64 35.81 18.64 62.57C18.64 89.33 36.97 108.75 62.24 108.75C65.9465 108.755 69.6399 108.312 73.24 107.43L73.55 107.35L63.07 80.05C62.826 79.5363 62.7111 78.9708 62.7355 78.4026C62.7599 77.8345 62.9228 77.2809 63.21 76.79C63.5693 76.3482 64.0291 75.9988 64.551 75.7709C65.0729 75.543 65.6417 75.4432 66.21 75.48H76.48C78.93 75.48 80.53 76.48 81.35 78.55L89.35 99.41L89.66 99.15C99.97 90.66 105.88 77.31 105.88 62.52C105.85 35.76 87.51 16.34 62.24 16.34V16.39ZM402.46 125.07C377.63 125.07 360.29 107.38 360.29 82.07C360.29 70.07 364.4 59.07 371.87 51.28C379.61 43.16 390.19 38.87 402.46 38.87C412.4 38.87 421.7 41.76 428.66 47.03C429.78 47.83 431.37 49.57 429.45 52.28L424.66 58.96C424.371 59.4389 423.967 59.8385 423.486 60.123C423.004 60.4075 422.459 60.5679 421.9 60.59C420.878 60.5321 419.893 60.1854 419.06 59.59C413.58 56.21 408.32 54.59 402.98 54.59C388.42 54.59 377.86 66.16 377.86 82.1C377.86 98.04 388.42 109.44 402.98 109.44C409.17 109.44 414.2 107.03 418.7 104.44C419.539 103.902 420.497 103.576 421.49 103.49C422.067 103.527 422.626 103.704 423.119 104.005C423.612 104.307 424.024 104.724 424.32 105.22L429.46 111.73C429.807 112.082 430.076 112.504 430.248 112.968C430.421 113.431 430.493 113.926 430.46 114.42C430.351 114.938 430.14 115.429 429.84 115.865C429.539 116.301 429.155 116.674 428.71 116.96C421.7 122.17 412.4 125.07 402.46 125.07ZM477.29 125.07C453.29 125.07 434.43 106.17 434.43 82.07C434.43 57.97 453.25 39.07 477.29 39.07C488.702 39.07 499.647 43.6035 507.717 51.6732C515.786 59.7429 520.32 70.6877 520.32 82.1C520.32 93.5123 515.786 104.457 507.717 112.527C499.647 120.597 488.702 125.13 477.29 125.13V125.07ZM477.29 55.07C462.78 55.07 451.83 66.68 451.83 82.07C451.83 97.46 462.83 109.07 477.29 109.07C491.75 109.07 502.75 97.46 502.75 82.07C502.75 66.68 491.8 55 477.29 55V55.07ZM268.07 125.07C244.71 125.07 227.07 106.5 227.07 81.87C227.07 69.79 231.43 58.75 239.35 50.78C243.127 46.9741 247.625 43.9583 252.58 41.9083C257.534 39.8584 262.848 38.8153 268.21 38.84C279.28 38.84 289.49 43.84 294.86 51.84L295.38 52.63V44.83C295.393 43.866 295.782 42.9451 296.463 42.2634C297.145 41.5816 298.066 41.1929 299.03 41.18H309.14C310.085 41.2036 310.982 41.6011 311.635 42.2854C312.287 42.9697 312.641 43.8848 312.62 44.83V119.32C312.604 120.237 312.233 121.112 311.583 121.76C310.933 122.408 310.057 122.777 309.14 122.79H299.07C298.133 122.789 297.232 122.428 296.553 121.783C295.874 121.137 295.469 120.256 295.42 119.32V111.2L294.9 111.96C289.24 120.19 279.21 125.07 268.07 125.07ZM270.07 55C255.55 55 244.61 66.61 244.61 82C244.61 97.39 255.55 109.17 270.07 109.17C284.59 109.17 295.57 97.53 295.57 82C295.57 66.47 284.62 55 270.07 55ZM170.59 125C149.75 125 136.29 111.27 136.29 90V44.71C136.336 43.7726 136.741 42.8887 137.42 42.241C138.099 41.5934 139.001 41.2314 139.94 41.23H150.07C150.989 41.2429 151.867 41.6137 152.516 42.2636C153.166 42.9134 153.537 43.7911 153.55 44.71V87.18C153.55 101.83 161.46 110.24 175.24 110.24C188.83 110.24 197.62 101.24 197.62 87.35V44.71C197.652 43.7973 198.029 42.9308 198.675 42.2851C199.321 41.6393 200.187 41.2623 201.1 41.23H211.2C212.164 41.2429 213.085 41.6316 213.767 42.3134C214.448 42.9951 214.837 43.916 214.85 44.88V119.37C214.801 120.306 214.396 121.187 213.717 121.833C213.038 122.478 212.137 122.839 211.2 122.84H201.07C200.177 122.841 199.318 122.499 198.671 121.885C198.023 121.271 197.636 120.431 197.59 119.54V111.75L197.06 112.53C191.5 120.73 182.35 125.07 170.63 125.07L170.59 125ZM334.45 122.77C333.493 122.735 332.585 122.34 331.908 121.662C331.23 120.985 330.835 120.077 330.8 119.12V5.84C330.835 4.88303 331.23 3.9747 331.908 3.29758C332.585 2.62045 333.493 2.22474 334.45 2.19H344.55C345.019 2.19773 345.482 2.29867 345.912 2.48695C346.342 2.67524 346.73 2.9471 347.054 3.28674C347.378 3.62638 347.631 4.02702 347.798 4.46535C347.966 4.90368 348.045 5.37095 348.03 5.84V119.19C348.046 119.659 347.968 120.127 347.801 120.566C347.634 121.005 347.381 121.406 347.057 121.746C346.733 122.086 346.344 122.358 345.914 122.546C345.483 122.734 345.02 122.834 344.55 122.84L334.45 122.77ZM768.99 122.77C768.072 122.824 767.163 122.57 766.405 122.048C765.648 121.526 765.087 120.767 764.81 119.89L743.65 63L722.19 120C721.924 120.886 721.364 121.655 720.603 122.181C719.841 122.706 718.923 122.956 718 122.89H707.9C706.979 122.954 706.063 122.703 705.304 122.178C704.544 121.652 703.986 120.884 703.72 120L682.07 62.73L660.72 120C660.428 120.868 659.863 121.618 659.109 122.139C658.356 122.659 657.455 122.923 656.54 122.89H645.92C645.002 122.923 644.099 122.658 643.344 122.136C642.589 121.613 642.023 120.86 641.73 119.99L620.58 62.78L598.73 120C598.466 120.885 597.908 121.654 597.148 122.18C596.388 122.705 595.472 122.956 594.55 122.89H584.45C583.529 122.954 582.613 122.703 581.854 122.178C581.094 121.652 580.536 120.884 580.27 120L558.94 62.77L537.61 120C537.332 120.879 536.769 121.64 536.01 122.163C535.251 122.686 534.34 122.942 533.42 122.89H522.42C521.967 122.924 521.513 122.843 521.099 122.657C520.685 122.47 520.324 122.182 520.05 121.82C519.816 121.423 519.683 120.974 519.664 120.514C519.645 120.053 519.74 119.595 519.94 119.18L548.54 44.35C548.8 43.4487 549.351 42.6588 550.107 42.1035C550.864 41.5482 551.782 41.2586 552.72 41.28H565.07C566.008 41.2586 566.926 41.5482 567.683 42.1035C568.439 42.6588 568.99 43.4487 569.25 44.35L589.73 99.7L610.37 44.35C610.63 43.4487 611.181 42.6588 611.937 42.1035C612.694 41.5482 613.612 41.2586 614.55 41.28H626.71C627.648 41.2586 628.566 41.5482 629.323 42.1035C630.079 42.6588 630.63 43.4487 630.89 44.35L651.37 99.7L671.87 44.3C672.13 43.3987 672.681 42.6088 673.437 42.0535C674.194 41.4982 675.112 41.2086 676.05 41.23H688.21C689.148 41.2086 690.066 41.4982 690.823 42.0535C691.579 42.6088 692.13 43.3987 692.39 44.3L713.21 99.65L733.51 44.3C733.769 43.3978 734.319 42.6069 735.076 42.0514C735.832 41.4958 736.752 41.2069 737.69 41.23H750.07C751.008 41.2086 751.926 41.4982 752.683 42.0535C753.439 42.6088 753.99 43.3987 754.25 44.3L782.85 119.13C783.05 119.545 783.145 120.003 783.126 120.464C783.107 120.924 782.974 121.373 782.74 121.77C782.467 122.131 782.108 122.418 781.696 122.605C781.284 122.792 780.831 122.873 780.38 122.84L768.99 122.77Z" fill="#3253DC"/>
</svg>
