<svg width="162" height="37" viewBox="0 0 162 37" fill="none" xmlns="http://www.w3.org/2000/svg">
<g clip-path="url(#clip0)">
<path d="M42.3833 30.0541V0.601318H47.3585V30.0541H42.3833Z" fill="#004483"/>
<path d="M27.2981 15.4324V11.5963C27.2981 8.12605 24.6807 6.31421 21.4465 6.31421C18.3009 6.31421 15.6362 8.08474 15.6362 11.5963V25.0523C15.6362 28.5934 18.292 30.3344 21.4465 30.3344C24.7368 30.3344 27.2981 28.5255 27.2981 25.0523V20.7677H22.3259V25.5599C22.3357 25.6786 22.3209 25.7981 22.2822 25.9109C22.2435 26.0236 22.1819 26.127 22.1012 26.2147C22.0205 26.3024 21.9224 26.3723 21.8133 26.4202C21.7042 26.4681 21.5863 26.4928 21.4672 26.4928C21.348 26.4928 21.2302 26.4681 21.121 26.4202C21.0119 26.3723 20.9139 26.3024 20.8332 26.2147C20.7525 26.127 20.6909 26.0236 20.6522 25.9109C20.6135 25.7981 20.5986 25.6786 20.6085 25.5599V11.0032C20.61 10.7788 20.7003 10.5641 20.8595 10.406C21.0187 10.2479 21.234 10.1592 21.4583 10.1592C21.6846 10.1584 21.9022 10.2463 22.0644 10.4041C22.2266 10.5619 22.3205 10.7769 22.3259 11.0032V15.4295L27.2981 15.4324Z" fill="#004483"/>
<path d="M102.708 15.6125H100.984V11.0681C100.984 10.8396 101.075 10.6204 101.237 10.4588C101.398 10.2972 101.618 10.2064 101.846 10.2064C102.075 10.2064 102.294 10.2972 102.455 10.4588C102.617 10.6204 102.708 10.8396 102.708 11.0681V15.6125ZM107.683 11.6022C107.683 8.1172 105.06 6.31421 101.828 6.31421C98.6798 6.31421 96.0181 8.08474 96.0181 11.6022V25.0494C96.0181 28.5905 98.6739 30.3344 101.831 30.3344C104.989 30.3344 107.683 28.5845 107.683 25.0494V20.7677H102.708V25.554C102.72 25.6737 102.707 25.7947 102.67 25.9091C102.632 26.0236 102.571 26.1288 102.491 26.2182C102.41 26.3075 102.312 26.3788 102.201 26.4276C102.091 26.4764 101.972 26.5014 101.852 26.5012C101.732 26.4987 101.614 26.4719 101.505 26.4223C101.395 26.3728 101.297 26.3015 101.217 26.213C101.136 26.1244 101.074 26.0203 101.034 25.907C100.995 25.7937 100.979 25.6736 100.987 25.554V19.1742H107.683V11.6022Z" fill="#004483"/>
<path d="M142.84 15.6095H141.117V11.0681C141.117 10.9549 141.139 10.8429 141.182 10.7383C141.226 10.6338 141.289 10.5388 141.369 10.4588C141.449 10.3788 141.544 10.3153 141.649 10.272C141.753 10.2287 141.865 10.2064 141.978 10.2064C142.092 10.2064 142.204 10.2287 142.308 10.272C142.413 10.3153 142.508 10.3788 142.588 10.4588C142.668 10.5388 142.731 10.6338 142.774 10.7383C142.818 10.8429 142.84 10.9549 142.84 11.0681V15.6095ZM147.815 11.6022C147.815 8.1172 145.192 6.31421 141.961 6.31421C138.812 6.31421 136.153 8.08474 136.153 11.6022V25.0464C136.153 28.5875 138.809 30.358 141.964 30.358C145.118 30.358 147.815 28.5875 147.815 25.0464V20.7676H142.84V25.551C142.852 25.6708 142.84 25.7918 142.802 25.9062C142.765 26.0206 142.704 26.1259 142.623 26.2152C142.542 26.3045 142.444 26.3759 142.334 26.4247C142.224 26.4734 142.105 26.4985 141.984 26.4983C141.864 26.4958 141.746 26.4689 141.637 26.4194C141.528 26.3698 141.43 26.2986 141.349 26.21C141.268 26.1214 141.206 26.0173 141.167 25.9041C141.127 25.7908 141.111 25.6707 141.12 25.551V19.1742H147.815V11.6022Z" fill="#004483"/>
<path d="M55.7595 6.58887V25.144C55.7663 25.2612 55.7492 25.3786 55.7091 25.4889C55.6689 25.5993 55.6067 25.7002 55.5261 25.7856C55.4456 25.871 55.3484 25.9391 55.2407 25.9856C55.1329 26.0321 55.0167 26.0561 54.8993 26.0561C54.7819 26.0561 54.6657 26.0321 54.5579 25.9856C54.4501 25.9391 54.353 25.871 54.2724 25.7856C54.1919 25.7002 54.1296 25.5993 54.0895 25.4889C54.0494 25.3786 54.0322 25.2612 54.0391 25.144V6.58887H49.0698V26.1267C49.0698 28.7235 50.6781 30.3346 52.6109 30.3346C53.257 30.3298 53.8895 30.1482 54.4398 29.8096C54.9901 29.4709 55.4373 28.9882 55.7329 28.4136H55.8421L55.9365 30.0514H60.7465V6.58887H55.7595Z" fill="#004483"/>
<path d="M117.628 6.31421C115.966 6.31421 114.945 7.57129 114.476 8.22638H114.367L114.269 6.59159H109.392V30.0541H114.37V11.5019C114.37 10.9264 114.7 10.5753 115.22 10.5753C115.339 10.5735 115.457 10.5968 115.566 10.6437C115.675 10.6906 115.774 10.7601 115.854 10.8475C115.935 10.9349 115.997 11.0384 116.035 11.1511C116.073 11.2639 116.087 11.3834 116.075 11.5019V19.1742H121.054V10.3569C121.054 7.87818 119.557 6.31421 117.628 6.31421Z" fill="#004483"/>
<path d="M157.742 6.31421C156.08 6.31421 155.059 7.57129 154.59 8.22638H154.481L154.384 6.59159H149.509V30.057H154.484V11.5019C154.47 11.3835 154.482 11.2634 154.518 11.1499C154.555 11.0364 154.616 10.9323 154.696 10.8445C154.777 10.7568 154.876 10.6875 154.986 10.6416C155.096 10.5956 155.215 10.574 155.334 10.5782C155.453 10.576 155.571 10.599 155.68 10.6455C155.789 10.6921 155.888 10.7613 155.969 10.8485C156.049 10.9357 156.111 11.0389 156.149 11.1515C156.187 11.2641 156.201 11.3835 156.19 11.5019V19.1742H161.168V10.3599C161.168 7.87818 159.672 6.31421 157.742 6.31421Z" fill="#004483"/>
<path d="M129.455 23.6448C129.455 24.2674 129.08 24.6127 128.599 24.6127C128.118 24.6127 127.743 24.2674 127.743 23.6448V11.4812C127.735 11.3657 127.752 11.2498 127.791 11.141C127.831 11.0322 127.893 10.9329 127.973 10.8495C128.054 10.7661 128.151 10.7004 128.258 10.6568C128.365 10.6131 128.48 10.5924 128.596 10.5959C128.712 10.5929 128.827 10.6139 128.935 10.6577C129.042 10.7015 129.139 10.767 129.22 10.8502C129.3 10.9334 129.363 11.0324 129.403 11.1411C129.444 11.2497 129.461 11.3655 129.455 11.4812V23.6448ZM129.526 6.58864L129.455 8.23524H129.331C129.039 7.66231 128.596 7.18027 128.05 6.84156C127.504 6.50285 126.875 6.32046 126.232 6.31421C124.435 6.31421 122.768 7.69522 122.768 10.2389V24.2526C122.768 26.935 124.317 28.5019 126.259 28.5019C126.873 28.5065 127.478 28.3501 128.013 28.0482C128.547 27.7464 128.994 27.3096 129.307 26.7816H129.452V31.9545C129.461 32.071 129.445 32.1881 129.405 32.2979C129.365 32.4078 129.302 32.5079 129.221 32.5917C129.139 32.6754 129.041 32.7408 128.932 32.7836C128.823 32.8264 128.707 32.8455 128.59 32.8397C128.475 32.841 128.361 32.8188 128.254 32.7744C128.148 32.73 128.052 32.6644 127.972 32.5815C127.891 32.4986 127.829 32.4003 127.788 32.2924C127.748 32.1846 127.729 32.0696 127.734 31.9545V29.8682H122.774V31.1607C122.774 34.8286 125.135 36.4723 128.593 36.4723C132.052 36.4723 134.436 34.8375 134.436 31.1607V6.58864H129.526Z" fill="#004483"/>
<path d="M37.2162 6.31423C36.5687 6.32585 35.9359 6.50895 35.3823 6.84486C34.8286 7.18078 34.374 7.65749 34.0646 8.22641H33.982V0.601318H29.0098V30.0541H33.9761V11.6966C33.9692 11.5795 33.9864 11.4621 34.0265 11.3518C34.0666 11.2414 34.1289 11.1405 34.2094 11.0551C34.29 10.9696 34.3871 10.9016 34.4949 10.8551C34.6027 10.8086 34.7189 10.7846 34.8363 10.7846C34.9537 10.7846 35.0699 10.8086 35.1776 10.8551C35.2854 10.9016 35.3826 10.9696 35.4631 11.0551C35.5437 11.1405 35.6059 11.2414 35.6461 11.3518C35.6862 11.4621 35.7033 11.5795 35.6965 11.6966V30.0541H40.6687V10.5783C40.6687 7.40311 38.7831 6.31423 37.2162 6.31423Z" fill="#004483"/>
<path d="M73.8658 8.58619C73.6419 7.92565 73.2172 7.35156 72.6511 6.94417C72.085 6.53679 71.4058 6.31647 70.7083 6.31401C70.0522 6.31067 69.4078 6.48713 68.8449 6.82423C68.282 7.16134 67.8222 7.6462 67.5155 8.22619H67.4151L67.3679 6.59139H62.4399V30.0539H67.421V11.5017C67.4142 11.3813 67.432 11.2607 67.4735 11.1475C67.5149 11.0342 67.579 10.9306 67.6619 10.843C67.7448 10.7554 67.8447 10.6857 67.9555 10.6381C68.0663 10.5905 68.1857 10.566 68.3063 10.5662C68.4269 10.566 68.5463 10.5905 68.6571 10.6381C68.7679 10.6857 68.8678 10.7554 68.9507 10.843C69.0336 10.9306 69.0977 11.0342 69.1391 11.1475C69.1806 11.2607 69.1984 11.3813 69.1916 11.5017V30.0539H74.1727V11.5223C74.1727 11.2875 74.2659 11.0624 74.432 10.8963C74.598 10.7303 74.8232 10.6371 75.0579 10.6371C75.2927 10.6371 75.5179 10.7303 75.6839 10.8963C75.8499 11.0624 75.9432 11.2875 75.9432 11.5223V30.0539H80.9214V10.7964C80.9214 7.6065 79.2393 6.31401 77.336 6.31401C75.4327 6.31401 74.3055 7.73044 73.9337 8.58619H73.8658Z" fill="#004483"/>
<path d="M89.3318 25.1556C89.3455 25.2745 89.3333 25.3949 89.2961 25.5085C89.2589 25.6222 89.1976 25.7265 89.1163 25.8143C89.035 25.902 88.9357 25.9711 88.8251 26.0169C88.7146 26.0626 88.5955 26.0839 88.476 26.0793C88.357 26.0814 88.2389 26.0585 88.1294 26.0119C88.0199 25.9654 87.9215 25.8963 87.8404 25.8092C87.7594 25.722 87.6977 25.6188 87.6592 25.5062C87.6208 25.3936 87.6065 25.2741 87.6173 25.1556V11.5432C87.6045 11.4227 87.6171 11.3009 87.6544 11.1856C87.6917 11.0703 87.7528 10.9641 87.8338 10.874C87.9148 10.7838 88.0138 10.7117 88.1244 10.6623C88.235 10.6129 88.3548 10.5873 88.476 10.5871C88.9481 10.5871 89.3318 10.8822 89.3318 11.5432V25.1556ZM90.7069 6.31423C89.0485 6.31423 88.0511 7.71886 87.7265 8.23526H87.6202V0.601318H82.6421V30.0541H87.5612L87.6173 28.4164H87.7235C87.9662 28.9953 88.3773 29.4877 88.9036 29.8298C89.4299 30.1719 90.0469 30.3477 90.6744 30.3345C92.7754 30.3345 94.3099 28.5226 94.3099 25.7753V10.5783C94.3099 7.94017 92.7017 6.31423 90.7098 6.31423H90.7069Z" fill="#004483"/>
<path d="M11.5078 15.1904C10.4455 14.1487 9.06154 12.8061 8.44776 12.2188C6.92805 10.767 6.50903 9.96436 6.50903 8.12891V5.81542C6.5012 5.69714 6.51874 5.57855 6.56046 5.4676C6.60218 5.35665 6.66712 5.25589 6.75094 5.17207C6.83476 5.08825 6.93552 5.0233 7.04647 4.98158C7.15743 4.93986 7.27601 4.92233 7.39429 4.93015C7.51189 4.92514 7.62924 4.94461 7.73891 4.98733C7.84858 5.03004 7.94819 5.09507 8.03141 5.1783C8.11464 5.26152 8.17967 5.36113 8.22238 5.4708C8.2651 5.58047 8.28457 5.69782 8.27956 5.81542V10.4188H13.8154V5.87443C13.8154 2.05894 10.7672 0.583496 7.39429 0.583496C4.02143 0.583496 0.923 2.02943 0.925951 5.89509V9.43615C0.925951 12.2926 2.10631 13.8241 3.28666 14.9189L6.30837 17.7754C7.95496 19.3246 8.28251 20.1361 8.28251 22.3492V25.0758C8.28251 25.8696 7.91365 26.1942 7.39724 26.1942C6.88084 26.1942 6.50903 25.8519 6.50903 25.0758V19.5429H0.902344V25.185C0.902344 29.0861 3.95651 30.5261 7.39429 30.5261C10.779 30.5261 13.9335 29.0861 13.9335 24.9903V21.0508C13.9335 18.7403 13.42 17.0553 11.5137 15.1904H11.5078Z" fill="#004483"/>
</g>
<defs>
<clipPath id="clip0">
<rect width="160.266" height="35.8798" fill="white" transform="translate(0.902344 0.583496)"/>
</clipPath>
</defs>
</svg>
