<svg id="Layer_1" data-name="Layer 1" xmlns="http://www.w3.org/2000/svg" viewBox="0 0 190.69 104.44"><defs><style>.cls-1{fill:#f2fafe;}.cls-2{fill:#ed1c24;}</style></defs><title>statefarm</title><polygon class="cls-1" points="190.69 26.45 164.04 2.65 134.37 0 70.55 3.12 7.14 13.11 0 54.9 54.8 97.23 120.98 104.44 168.28 76.3 190.69 26.45"/><path class="cls-2" d="M94.18,24.86l0-.07-0.05.07A6,6,0,0,0,90.88,24a7,7,0,0,0-6,3.26A12.1,12.1,0,0,0,83,33.82a7.1,7.1,0,0,0,1.2,4.39c0.48,0.65,1.63,2.21,5.35,2.22A8,8,0,0,0,94,39.36l0.11-.15c0.13-.56.57-3.14,0.74-3.78l-0.13-.1a7,7,0,0,1-4.34,1.79,3.62,3.62,0,0,1-2.47-.75,2.72,2.72,0,0,1-.83-2.13c0-.34,0-0.64.05-1V33.19h0.08c2.53-.07,3.82-0.1,5.94-0.1H95.6L95.76,33a15.75,15.75,0,0,0,.44-3.49C96.2,28.27,96.07,26.09,94.18,24.86Zm-1.67,5.37,0,0.07-2.48,0-2.45,0,0-.09v0c0-.18.1-0.36,0.16-0.55A5.14,5.14,0,0,1,88.59,28c0.07-.1.15-0.19,0.24-0.28a2.55,2.55,0,0,1,1.95-1,1.76,1.76,0,0,1,1.45.65,1.52,1.52,0,0,1,.14.21,2.24,2.24,0,0,1,.28.86,2.38,2.38,0,0,1,0,.34A8.33,8.33,0,0,1,92.51,30.23Zm-9.63-2.79-0.17.16-2.44-.06-1.13,5.32a21,21,0,0,0-.5,2.87,1.24,1.24,0,0,0,.45,1,1.43,1.43,0,0,0,.88.27,3,3,0,0,0,1.37-.36l0.08,0.08-0.6,3.06L80.6,40a10.32,10.32,0,0,1-2.34.32c-2.27,0-3.91-.78-3.92-3.43a31.16,31.16,0,0,1,.87-5.17l0.9-4.22-1.92.06-0.11-.16,0.56-3,0.18-.1h1.95l0.77-3.92,0.16-.17c1.95-.5,2.51-0.74,4.29-1.32l0.09,0.1-0.59,2.53-0.6,2.84,2.5-.07,0.06,0.13Zm30.11-5-0.14.15-6.44,0-1,5.38,5.63-.17,0.08,0.13c-0.46,1.55-.57,2-0.88,3.33l-0.14.14h-5.36L104,35.08l-0.89,4.84L103,40l-4.62.12L98.3,40l0.8-4.12,1.22-5.82c0.93-4.52,1.19-6,2.07-10.9l0.14-.14h6.75l4.29-.11,0.08,0.11Zm9.1,2.62a7.61,7.61,0,0,0-4.29-1,15.57,15.57,0,0,0-2.93.28,19.22,19.22,0,0,0-1.88.44l-0.13.13-0.64,3.26,0.21,0.13q0.62-.28,1.8-0.7a6.8,6.8,0,0,1,2.23-.43,4.86,4.86,0,0,1,2.24.41,1.82,1.82,0,0,1,.9,1.59,2.25,2.25,0,0,1,0,.45,2.36,2.36,0,0,0,0,.27V30l-0.66,0-0.83.09c-0.54.06-1.16,0.14-1.7,0.23-1.3.22-4.94,0.78-6,3.22-1.14,2-.95,4.65.17,6a3.26,3.26,0,0,0,1.82,1h0l0.19,0c3.15,0.49,5.41-2.26,5.41-2.26L117.54,40l0.14,0.12,3.54-.12,0.14-.13,2.08-10.47a6.69,6.69,0,0,0,.1-0.78c0-.3,0-0.54,0-0.72A3.4,3.4,0,0,0,122.09,25ZM118.44,35.5a5.11,5.11,0,0,1-2.06,1.8,2,2,0,0,1-2.45-.38,2.22,2.22,0,0,1,.24-2.85c1.12-1.33,4.81-1.41,4.81-1.41Zm17.19-11.64-0.86,4.5-0.18.18a5.54,5.54,0,0,0-.94-0.08,5,5,0,0,0-4.13,2.1v0l-1.79,9.34-0.13.11-3.88.12-0.1-.1,3.06-15.68,0.17-.16,3.85-.37L130.82,24l-0.44,2.27,0.19-.18a12.73,12.73,0,0,1,2.31-1.69,4.76,4.76,0,0,1,2.38-.68h0.24Zm20.82,3.95A13.79,13.79,0,0,1,156,30.7l-1.8,9.22-0.14.11-4.07.14L149.9,40S152,29.84,152,29.34a1.59,1.59,0,0,0-1.54-1.71,3.7,3.7,0,0,0-2.07,1l-2.19,11.25L146,40l-1.75.07h0l-1.57.05-0.78,0,0-.07,0-.08,0.71-3.47h0c0.6-3,1.39-6.91,1.39-7.22a1.59,1.59,0,0,0-1.54-1.71,3.7,3.7,0,0,0-2.07,1l-2.2,11.25L138,40l-0.63,0-3.47.11L133.8,40l3-15.67,0.16-.15,4.06-.38L141.23,24l-0.43,2.2A7.1,7.1,0,0,1,145.26,24a2.84,2.84,0,0,1,2.82,2.19s2.32-2.25,4.79-2.19C154.12,24,156.44,24.57,156.44,27.81ZM71.46,25a7.6,7.6,0,0,0-4.29-1,15.61,15.61,0,0,0-2.93.28c-0.87.17-1.42,0.31-1.88,0.44l-0.12.13L61.6,28.18l0.21,0.13c0.41-.19,1-0.42,1.8-0.7a6.82,6.82,0,0,1,2.23-.43,4.87,4.87,0,0,1,2.24.41,1.83,1.83,0,0,1,.9,1.59,2.58,2.58,0,0,1,0,.45l-0.05.27V30l-0.65,0-0.84.09c-0.54.06-1.16,0.14-1.7,0.23-1.29.22-4.94,0.78-6,3.22-1.15,2-1,4.65.17,6a3.26,3.26,0,0,0,1.82,1h0l0.19,0c3.15,0.49,5.41-2.26,5.41-2.26L66.91,40,67,40.15,70.59,40l0.14-.13,2.09-10.47c0-.22.08-0.48,0.11-0.78s0-.54,0-0.72A3.4,3.4,0,0,0,71.46,25ZM67.81,35.5a5.09,5.09,0,0,1-2.06,1.8,2,2,0,0,1-2.45-.38,2.22,2.22,0,0,1,.24-2.85c1.11-1.33,4.81-1.41,4.81-1.41Zm-8.53-8.06-0.17.16-2.44-.06-1.13,5.32a21.24,21.24,0,0,0-.5,2.87,1.25,1.25,0,0,0,.45,1,1.44,1.44,0,0,0,.88.27,3,3,0,0,0,1.37-.36l0.08,0.08-0.6,3.06L57,40a10.31,10.31,0,0,1-2.34.32c-2.27,0-3.91-.78-3.92-3.43a31.27,31.27,0,0,1,.87-5.17l0.9-4.22-1.92.06-0.11-.16,0.56-3,0.18-.1h1.94L54,20.45l0.15-.17c1.95-.5,2.51-0.74,4.29-1.32l0.09,0.1L57.9,21.58l-0.6,2.84,2.5-.07,0.07,0.13Zm-9.17-7.24L49.37,24l-0.16.05a3.58,3.58,0,0,0-.89-0.9,5.1,5.1,0,0,0-3.1-1.1,3.08,3.08,0,0,0-2.08.72,2.38,2.38,0,0,0-.78,1.8c0,1.35.92,2,2.56,3L45.55,28c1.37,0.9,3.51,2.28,3.51,5.41,0,3.56-2.29,7.13-7.76,7.15a11,11,0,0,1-3.92-.72,6.53,6.53,0,0,1-1.78-1l0-.24,0.73-3.73,0.16-.06A5.32,5.32,0,0,0,37.81,36a5.66,5.66,0,0,0,3.12,1c1.93,0,3.45-1.11,3.45-2.82,0-1.53-1.22-2.3-2.49-3.05L41,30.53c-1.38-.9-3.29-2.13-3.3-5.2a7.32,7.32,0,0,1,1.39-4.27,6.89,6.89,0,0,1,5.74-2.49A8.94,8.94,0,0,1,50,20.05ZM87.58,65.1a16.45,16.45,0,0,0,8.5,2.15,16.78,16.78,0,0,0,8.56-2.15c2.17-1.32,3.45-3.09,3.46-5s-1.28-3.64-3.44-4.94a16.87,16.87,0,0,0-8.56-2.13,16.7,16.7,0,0,0-8.51,2.13c-2.15,1.3-3.41,3.05-3.41,4.94S85.44,63.79,87.58,65.1Zm0.54,10.16a18.23,18.23,0,0,0-17.07,0c-2.15,1.31-3.4,3.06-3.41,4.93s1.26,3.66,3.4,5a16.58,16.58,0,0,0,8.5,2.15,16.81,16.81,0,0,0,8.56-2.16c2.17-1.32,3.45-3.08,3.46-5S90.28,76.57,88.12,75.26Zm33,0a18.23,18.23,0,0,0-17.07,0c-2.15,1.31-3.41,3.06-3.41,4.94s1.25,3.65,3.39,5a16.58,16.58,0,0,0,8.5,2.15,16.84,16.84,0,0,0,8.57-2.16c2.17-1.32,3.45-3.08,3.45-5S123.29,76.57,121.13,75.26Zm-8.59-7a23.66,23.66,0,0,0-4.4.41c3.06-2.18,4.94-5.19,4.94-8.5,0-6.67-7.57-12-17-12s-16.9,5.31-16.9,12c0,3.32,1.85,6.33,4.88,8.51a23.8,23.8,0,0,0-4.47-.42c-9.41,0-16.9,5.31-16.9,12s7.45,12.07,16.86,12.07c8,0,14.72-3.91,16.55-9.19,1.78,5.28,8.37,9.19,16.38,9.19,9.4,0,17-5.4,17-12.07S121.94,68.21,112.54,68.21Zm-30.27-8.1c0-3,2.29-5,3.63-6a17.67,17.67,0,0,1,10.2-2.93,17.93,17.93,0,0,1,10.25,2.93c1.35,1,3.65,3,3.67,6,0,5-6.48,9-14,9a17.47,17.47,0,0,1-10.16-3C83.58,64.5,82.27,62.35,82.27,60.11Zm-2.7,29.07a17.45,17.45,0,0,1-10.17-3c-2.31-1.66-3.63-3.8-3.63-6,0-3,2.29-5,3.63-6a17.83,17.83,0,0,1,10.21-2.93,18,18,0,0,1,10.25,2.93c1.35,1,3.66,3,3.67,6C93.5,85.19,87.06,89.17,79.57,89.18ZM96.12,77.31a11.66,11.66,0,0,0-4.36-5.52,23.29,23.29,0,0,0,4.29.4,23.82,23.82,0,0,0,4.41-.41A11.53,11.53,0,0,0,96.12,77.31ZM112.5,89.18a17.43,17.43,0,0,1-10.16-3c-2.32-1.66-3.63-3.8-3.63-6,0-3,2.3-5,3.63-6a17.83,17.83,0,0,1,10.21-2.93,18,18,0,0,1,10.26,2.93c1.35,1,3.65,3,3.66,6C126.41,85.19,120,89.17,112.5,89.18Z"/><path class="cls-2" d="M136.43,87.91a2.79,2.79,0,1,1-2.77-3A2.81,2.81,0,0,1,136.43,87.91Zm-5.22,0a2.43,2.43,0,1,0,4.85,0,2.73,2.73,0,0,0-.69-1.84,2.39,2.39,0,0,0-1.69-.74A2.46,2.46,0,0,0,131.21,87.9Zm2.29-1.66a1.88,1.88,0,0,1,.71.08,0.85,0.85,0,0,1,.58.83,0.87,0.87,0,0,1-.65.84l0.68,1.59h-0.46l-0.63-1.51H133v1.51h-0.43V86.24h0.89Zm0,1.49a1.07,1.07,0,0,0,.7-0.13,0.53,0.53,0,0,0,.21-0.44,0.48,0.48,0,0,0-.32-0.49,1.75,1.75,0,0,0-.67-0.07H133v1.13h0.44Z"/></svg>