<svg width="191" height="83" viewBox="0 0 191 83" fill="none" xmlns="http://www.w3.org/2000/svg">
<path d="M94.18 11.8599V11.7899L94.13 11.8599C93.1507 11.2694 92.0231 10.971 90.88 10.9999C89.6847 10.9858 88.5058 11.278 87.4555 11.8487C86.4052 12.4193 85.5185 13.2494 84.88 14.2599C83.6369 16.2209 82.9843 18.4981 83 20.8199C82.9074 22.3752 83.3291 23.9179 84.2 25.2099C84.68 25.8599 85.83 27.4199 89.55 27.4299C91.1059 27.5142 92.6525 27.1423 94 26.3599L94.11 26.2099C94.24 25.6499 94.68 23.0699 94.85 22.4299L94.72 22.3299C93.5225 23.4083 91.9896 24.0406 90.38 24.1199C89.4925 24.1819 88.6132 23.9149 87.91 23.3699C87.6254 23.0963 87.4037 22.7641 87.2603 22.3963C87.117 22.0285 87.0555 21.6339 87.08 21.2399C87.08 20.8999 87.08 20.5999 87.13 20.2399V20.1899H87.21C89.74 20.1199 91.03 20.0899 93.15 20.0899H95.6L95.76 19.9999C96.0365 18.8566 96.1841 17.686 96.2 16.5099C96.2 15.2699 96.07 13.0899 94.18 11.8599ZM92.51 17.2299V17.2999H90.03H87.58V17.2099C87.58 17.0299 87.68 16.8499 87.74 16.6599C87.9197 16.0593 88.2078 15.4968 88.59 14.9999C88.66 14.8999 88.74 14.8099 88.83 14.7199C89.0602 14.4187 89.3548 14.1727 89.6921 13.9997C90.0294 13.8267 90.401 13.7311 90.78 13.7199C91.0557 13.7069 91.3306 13.759 91.5825 13.8719C91.8344 13.9848 92.0562 14.1554 92.23 14.3699C92.2824 14.4359 92.3292 14.5061 92.37 14.5799C92.5208 14.8445 92.6161 15.1372 92.65 15.4399C92.6581 15.5531 92.6581 15.6667 92.65 15.7799C92.6457 16.2664 92.5989 16.7516 92.51 17.2299V17.2299ZM82.88 14.4399L82.71 14.5999L80.27 14.5399L79.14 19.8599C78.9071 20.8038 78.74 21.7628 78.64 22.7299C78.6333 22.9199 78.6704 23.1089 78.7484 23.2823C78.8265 23.4557 78.9433 23.6089 79.09 23.7299C79.3455 23.9144 79.6549 24.0093 79.97 23.9999C80.4488 23.991 80.9186 23.8675 81.34 23.6399L81.42 23.7199L80.82 26.7799L80.6 26.9999C79.8348 27.1957 79.0497 27.3031 78.26 27.3199C75.99 27.3199 74.35 26.5399 74.34 23.8899C74.4842 22.1452 74.7753 20.4157 75.21 18.7199L76.11 14.4999L74.19 14.5599L74.08 14.3999L74.64 11.3999L74.82 11.2999H76.77L77.54 7.37988L77.7 7.20988C79.65 6.70988 80.21 6.46988 81.99 5.88988L82.08 5.98988L81.49 8.51988L80.89 11.3599L83.39 11.2899L83.45 11.4199L82.88 14.4399ZM112.99 9.43988L112.85 9.58988H106.41L105.41 14.9699L111.04 14.7999L111.12 14.9299C110.66 16.4799 110.55 16.9299 110.24 18.2599L110.1 18.3999H104.74L104 22.0799L103.11 26.9199L103 26.9999L98.38 27.1199L98.3 26.9999L99.1 22.8799L100.32 17.0599C101.25 12.5399 101.51 11.0599 102.39 6.15988L102.53 6.01988H109.28L113.57 5.90988L113.65 6.01988L112.99 9.43988ZM122.09 12.0599C120.79 11.3109 119.297 10.963 117.8 11.0599C116.817 11.0605 115.836 11.1542 114.87 11.3399C114.236 11.455 113.609 11.6018 112.99 11.7799L112.86 11.9099L112.22 15.1699L112.43 15.2999C112.843 15.1132 113.443 14.8799 114.23 14.5999C114.944 14.3326 115.698 14.1872 116.46 14.1699C117.229 14.1272 117.996 14.2677 118.7 14.5799C118.977 14.7421 119.206 14.9745 119.364 15.2538C119.522 15.533 119.603 15.849 119.6 16.1699C119.615 16.3195 119.615 16.4703 119.6 16.6199C119.595 16.7098 119.595 16.8 119.6 16.8899V16.9999H118.94L118.11 17.0899C117.57 17.1499 116.95 17.2299 116.41 17.3199C115.11 17.5399 111.47 18.0999 110.41 20.5399C109.27 22.5399 109.46 25.1899 110.58 26.5399C111.061 27.0627 111.701 27.4139 112.4 27.5399V27.5399H112.59C115.74 28.0299 118 25.2799 118 25.2799L117.54 26.9999L117.68 27.1199L121.22 26.9999L121.36 26.8699L123.44 16.3999C123.489 16.1421 123.522 15.8816 123.54 15.6199C123.54 15.3199 123.54 15.0799 123.54 14.8999C123.559 14.334 123.436 13.7723 123.183 13.2659C122.93 12.7595 122.554 12.3243 122.09 11.9999V12.0599ZM118.44 22.4999C117.93 23.276 117.217 23.8983 116.38 24.2999C115.988 24.5213 115.534 24.6043 115.089 24.5353C114.644 24.4664 114.236 24.2495 113.93 23.9199C113.628 23.4927 113.486 22.9725 113.53 22.4511C113.574 21.9296 113.8 21.4405 114.17 21.0699C115.29 19.7399 118.98 19.6599 118.98 19.6599L118.44 22.4999ZM135.63 10.8599L134.77 15.3599L134.59 15.5399C134.279 15.4865 133.965 15.4598 133.65 15.4599C132.843 15.4507 132.046 15.637 131.327 16.0026C130.608 16.3683 129.988 16.9026 129.52 17.5599V17.5599L127.73 26.8999L127.6 27.0099L123.72 27.1299L123.62 27.0299L126.68 11.3499L126.85 11.1899L130.7 10.8199L130.82 10.9999L130.38 13.2699L130.57 13.0899C131.274 12.4415 132.049 11.8746 132.88 11.3999C133.599 10.9673 134.421 10.7327 135.26 10.7199H135.5L135.63 10.8599ZM156.45 14.8099C156.403 15.7864 156.252 16.7552 156 17.6999L154.2 26.9199L154.06 27.0299L149.99 27.1699L149.9 26.9999C149.9 26.9999 152 16.8399 152 16.3399C152.016 16.1254 151.989 15.9098 151.919 15.7061C151.85 15.5025 151.74 15.3151 151.596 15.1552C151.452 14.9953 151.277 14.8663 151.082 14.776C150.887 14.6858 150.675 14.636 150.46 14.6299C149.681 14.735 148.956 15.0852 148.39 15.6299L146.2 26.8799L146 26.9999L144.25 27.0699L142.68 27.1199H141.9V27.0499V26.9699L142.61 23.4999C143.21 20.4999 144 16.5899 144 16.2799C144.016 16.0654 143.989 15.8498 143.919 15.6461C143.85 15.4425 143.74 15.2551 143.596 15.0952C143.452 14.9353 143.277 14.8063 143.082 14.716C142.887 14.6258 142.675 14.576 142.46 14.5699C141.681 14.675 140.956 15.0252 140.39 15.5699L138.19 26.8199L138 26.9999H137.37L133.9 27.1099L133.8 26.9999L136.8 11.3299L136.96 11.1799L141.02 10.7999L141.23 10.9999L140.8 13.1999C141.973 11.9528 143.557 11.1716 145.26 10.9999C145.91 10.9872 146.544 11.1978 147.057 11.5963C147.57 11.9948 147.931 12.5573 148.08 13.1899C148.08 13.1899 150.4 10.9399 152.87 10.9999C154.12 10.9999 156.44 11.5699 156.44 14.8099H156.45ZM71.46 11.9999C70.1601 11.2504 68.6673 10.9024 67.17 10.9999C66.1867 11.0007 65.2056 11.0945 64.24 11.2799C63.37 11.4499 62.82 11.5899 62.36 11.7199L62.24 11.8499L61.6 15.1799L61.81 15.3099C62.22 15.1199 62.81 14.8899 63.61 14.6099C64.3241 14.3429 65.0778 14.1976 65.84 14.1799C66.6085 14.1376 67.3762 14.2781 68.08 14.5899C68.3561 14.7528 68.5846 14.9855 68.7426 15.2645C68.9006 15.5436 68.9824 15.8592 68.98 16.1799C68.9931 16.3296 68.9931 16.4802 68.98 16.6299L68.93 16.8999V16.9999H68.28L67.44 17.0899C66.9 17.1499 66.28 17.2299 65.74 17.3199C64.45 17.5399 60.8 18.0999 59.74 20.5399C58.59 22.5399 58.74 25.1899 59.91 26.5399C60.3914 27.0627 61.0305 27.4139 61.73 27.5399V27.5399H61.92C65.07 28.0299 67.33 25.2799 67.33 25.2799L66.91 26.9999L67 27.1499L70.59 26.9999L70.73 26.8699L72.82 16.3999C72.82 16.1799 72.9 15.9199 72.93 15.6199C72.96 15.3199 72.93 15.0799 72.93 14.8999C72.9467 14.3322 72.8209 13.7694 72.5641 13.2628C72.3073 12.7562 71.9277 12.322 71.46 11.9999V11.9999ZM67.81 22.4999C67.3004 23.2766 66.588 23.8991 65.75 24.2999C65.3584 24.5213 64.9036 24.6043 64.459 24.5353C64.0144 24.4664 63.6061 24.2495 63.3 23.9199C62.9977 23.4927 62.856 22.9725 62.8999 22.4511C62.9438 21.9296 63.1705 21.4405 63.54 21.0699C64.65 19.7399 68.35 19.6599 68.35 19.6599L67.81 22.4999ZM59.28 14.4399L59.11 14.5999L56.67 14.5399L55.54 19.8599C55.3078 20.804 55.1408 21.7629 55.04 22.7299C55.034 22.9198 55.0715 23.1086 55.1495 23.2819C55.2274 23.4551 55.3439 23.6084 55.49 23.7299C55.7459 23.9137 56.055 24.0086 56.37 23.9999C56.8488 23.991 57.3186 23.8675 57.74 23.6399L57.82 23.7199L57.22 26.7799L57 26.9999C56.2348 27.1958 55.4497 27.3032 54.66 27.3199C52.39 27.3199 50.75 26.5399 50.74 23.8899C50.8847 22.1452 51.1758 20.4158 51.61 18.7199L52.51 14.4999L50.59 14.5599L50.48 14.3999L51.04 11.3999L51.22 11.2999H53.16L54 7.44988L54.15 7.27988C56.1 6.77988 56.66 6.53988 58.44 5.95988L58.53 6.05988L57.9 8.57988L57.3 11.4199L59.8 11.3499L59.87 11.4799L59.28 14.4399ZM50.11 7.19988L49.37 10.9999L49.21 11.0499C48.9691 10.6994 48.6677 10.3946 48.32 10.1499C47.4365 9.4509 46.3464 9.0641 45.22 9.04988C44.4616 9.02549 43.721 9.28188 43.14 9.76988C42.8895 9.99725 42.6904 10.2754 42.5559 10.5858C42.4214 10.8962 42.3546 11.2317 42.36 11.5699C42.36 12.9199 43.28 13.5699 44.92 14.5699L45.55 14.9999C46.92 15.8999 49.06 17.2799 49.06 20.4099C49.06 23.9699 46.77 27.5399 41.3 27.5599C39.9604 27.5606 38.6319 27.3166 37.38 26.8399C36.7379 26.6019 36.1372 26.2645 35.6 25.8399V25.5999L36.33 21.8699L36.49 21.8099C36.8601 22.2778 37.3064 22.68 37.81 22.9999C38.7286 23.6335 39.8141 23.9814 40.93 23.9999C42.86 23.9999 44.38 22.8899 44.38 21.1799C44.38 19.6499 43.16 18.8799 41.89 18.1299L41 17.5299C39.62 16.6299 37.71 15.3999 37.7 12.3299C37.7045 10.7961 38.1907 9.30244 39.09 8.05988C39.7824 7.22131 40.6634 6.55853 41.661 6.12576C42.6587 5.69298 43.7446 5.5025 44.83 5.56988C46.6644 5.52092 48.4694 6.03764 50 7.04988L50.11 7.19988ZM87.58 52.0999C90.1666 53.5723 93.1043 54.3154 96.08 54.2499C99.074 54.3099 102.03 53.5675 104.64 52.0999C106.81 50.7799 108.09 49.0099 108.1 47.0999C108.11 45.1899 106.82 43.4599 104.66 42.1599C102.046 40.7033 99.0917 39.9681 96.1 40.0299C93.1242 39.9688 90.1861 40.7042 87.59 42.1599C85.44 43.4599 84.18 45.2099 84.18 47.0999C84.18 48.9899 85.44 50.7899 87.58 52.0999ZM88.12 62.2599C85.4907 60.8668 82.5605 60.1385 79.585 60.1385C76.6095 60.1385 73.6792 60.8668 71.05 62.2599C68.9 63.5699 67.65 65.3199 67.64 67.1899C67.63 69.0599 68.9 70.8499 71.04 72.1899C73.6291 73.6563 76.5651 74.3989 79.54 74.3399C82.5348 74.3954 85.49 73.6497 88.1 72.1799C90.27 70.8599 91.55 69.0999 91.56 67.1799C91.57 65.2599 90.28 63.5699 88.12 62.2599V62.2599ZM121.12 62.2599C118.491 60.8668 115.56 60.1385 112.585 60.1385C109.609 60.1385 106.679 60.8668 104.05 62.2599C101.9 63.5699 100.64 65.3199 100.64 67.1999C100.64 69.0799 101.89 70.8499 104.03 72.1999C106.619 73.6663 109.555 74.4089 112.53 74.3499C115.528 74.4057 118.487 73.66 121.1 72.1899C123.27 70.8699 124.55 69.1099 124.55 67.1899C124.55 65.2699 123.29 63.5699 121.13 62.2599H121.12ZM112.53 55.2599C111.054 55.259 109.581 55.3962 108.13 55.6699C111.19 53.4899 113.07 50.4799 113.07 47.1699C113.07 40.4999 105.5 35.1699 96.07 35.1699C86.64 35.1699 79.17 40.4799 79.17 47.1699C79.17 50.4899 81.02 53.4999 84.05 55.6799C82.5765 55.3993 81.0799 55.2587 79.58 55.2599C70.17 55.2599 62.68 60.5699 62.68 67.2599C62.68 73.9499 70.13 79.3299 79.54 79.3299C87.54 79.3299 94.26 75.4199 96.09 70.1399C97.87 75.4199 104.46 79.3299 112.47 79.3299C121.87 79.3299 129.47 73.9299 129.47 67.2599C129.47 60.5899 121.94 55.2099 112.54 55.2099L112.53 55.2599ZM82.26 47.1599C82.26 44.1599 84.55 42.1599 85.89 41.1599C88.9094 39.1612 92.4701 38.1383 96.09 38.2299C99.7247 38.1448 103.299 39.1666 106.34 41.1599C107.69 42.1599 109.99 44.1599 110.01 47.1599C110.01 52.1599 103.53 56.1599 96.01 56.1599C92.3944 56.2356 88.8445 55.1874 85.85 53.1599C83.58 51.4999 82.27 49.3499 82.27 47.1099L82.26 47.1599ZM79.56 76.2299C75.9409 76.309 72.3867 75.2606 69.39 73.2299C67.08 71.5699 65.76 69.4299 65.76 67.2299C65.76 64.2299 68.05 62.2299 69.39 61.2299C72.4166 59.2386 75.978 58.2166 79.6 58.2999C83.2341 58.2192 86.8075 59.2406 89.85 61.2299C91.2 62.2299 93.51 64.2299 93.52 67.2299C93.5 72.1899 87.06 76.1699 79.57 76.1799L79.56 76.2299ZM96.12 64.3099C95.2695 62.0649 93.7469 60.1372 91.76 58.7899C93.1745 59.0555 94.6107 59.1894 96.05 59.1899C97.5295 59.1905 99.0059 59.0532 100.46 58.7799C98.473 60.1265 96.9558 62.0597 96.12 64.3099V64.3099ZM112.5 76.1799C108.884 76.2582 105.333 75.2098 102.34 73.1799C100.02 71.5199 98.71 69.3799 98.71 67.1799C98.71 64.1799 101.01 62.1799 102.34 61.1799C105.367 59.1886 108.928 58.1666 112.55 58.2499C116.188 58.1671 119.765 59.1887 122.81 61.1799C124.16 62.1799 126.46 64.1799 126.47 67.1799C126.41 72.1899 120 76.1699 112.5 76.1799Z" fill="#ED1C24"/>
<path d="M136.43 74.9102C136.389 75.452 136.191 75.9701 135.86 76.4009C135.528 76.8316 135.079 77.1563 134.565 77.335C134.052 77.5137 133.498 77.5386 132.971 77.4068C132.444 77.275 131.967 76.9921 131.598 76.5928C131.229 76.1936 130.985 75.6954 130.896 75.1595C130.807 74.6235 130.876 74.0731 131.094 73.5758C131.313 73.0785 131.673 72.656 132.129 72.3601C132.584 72.0642 133.117 71.9078 133.66 71.9102C134.042 71.9147 134.419 71.9972 134.769 72.1526C135.118 72.3079 135.432 72.5329 135.691 72.8137C135.95 73.0945 136.15 73.4253 136.277 73.7858C136.404 74.1462 136.456 74.5288 136.43 74.9102ZM131.21 74.9102C131.189 75.2417 131.236 75.5741 131.348 75.8868C131.46 76.1995 131.635 76.4859 131.863 76.7283C132.09 76.9706 132.364 77.1638 132.669 77.2958C132.974 77.4279 133.303 77.496 133.635 77.496C133.967 77.496 134.296 77.4279 134.601 77.2958C134.906 77.1638 135.18 76.9706 135.408 76.7283C135.635 76.4859 135.81 76.1995 135.922 75.8868C136.034 75.5741 136.081 75.2417 136.06 74.9102C136.066 74.2325 135.82 73.5766 135.37 73.0702C135.151 72.841 134.889 72.6576 134.599 72.5305C134.309 72.4035 133.997 72.3354 133.68 72.3302C133.347 72.3285 133.016 72.3946 132.709 72.5244C132.402 72.6543 132.125 72.8452 131.894 73.0855C131.663 73.3259 131.483 73.6107 131.366 73.9226C131.248 74.2346 131.195 74.5671 131.21 74.9002V74.9102ZM133.5 73.2502C133.74 73.2312 133.981 73.2584 134.21 73.3302C134.383 73.388 134.533 73.4999 134.637 73.6494C134.742 73.7988 134.795 73.9779 134.79 74.1602C134.79 74.3523 134.726 74.5389 134.608 74.6909C134.49 74.8428 134.326 74.9516 134.14 75.0002L134.82 76.5902H134.36L133.73 75.0802H133V76.5902H132.57V73.2402H133.46L133.5 73.2502ZM133.5 74.7402C133.741 74.778 133.988 74.7321 134.2 74.6102C134.268 74.559 134.322 74.4923 134.359 74.4158C134.395 74.3392 134.413 74.255 134.41 74.1702C134.418 74.0646 134.391 73.9594 134.333 73.8708C134.275 73.7822 134.19 73.7151 134.09 73.6802C133.873 73.6137 133.646 73.5899 133.42 73.6102H133V74.7402H133.44H133.5Z" fill="#ED1C24"/>
</svg>
