<?xml version="1.0" encoding="UTF-8"?>
<svg width="156px" height="40px" viewBox="0 0 156 40" version="1.1" xmlns="http://www.w3.org/2000/svg" xmlns:xlink="http://www.w3.org/1999/xlink">
    <!-- Generator: Sketch 54.1 (76490) - https://sketchapp.com -->
    <title>Artboard Copy 2</title>
    <desc>Created with Sketch.</desc>
    <g id="Artboard-Copy-2" stroke="none" stroke-width="1" fill="none" fill-rule="evenodd">
        <g id="Group" fill="#000000" fill-rule="nonzero">
            <path d="M45.8906574,31.4986851 C44.5073979,31.4986851 43.354699,31.0254719 42.432526,30.0790311 C41.5103529,29.1325904 41.0492734,27.6522823 41.0492734,25.6380623 C41.0492734,23.8422517 41.4072167,21.9554655 42.1231142,19.9776471 C42.8390117,17.9998286 43.9067749,16.3253817 45.326436,14.9542561 C46.7460971,13.5831304 48.4387445,12.8975779 50.4044291,12.8975779 C51.3994052,12.8975779 52.1395593,13.0674493 52.6249135,13.4071972 C53.1102677,13.7469452 53.3529412,14.1958911 53.3529412,14.7540484 L53.3529412,15.0088581 L53.7533564,13.0795848 L58.9951557,13.0795848 L56.3742561,25.4560554 C56.2771852,25.820071 56.2286505,26.2083486 56.2286505,26.6208997 C56.2286505,27.6644112 56.7261311,28.1861592 57.7211073,28.1861592 C58.4006032,28.1861592 58.9890863,27.8706837 59.4865744,27.2397232 C59.9840625,26.6087627 60.3784068,25.7836729 60.6696194,24.7644291 L62.1984775,24.7644291 C61.3005722,27.3853418 60.1903411,29.162925 58.8677509,30.0972318 C57.5451606,31.0315387 56.2165234,31.4986851 54.8817993,31.4986851 C53.8625555,31.4986851 53.0435325,31.2135438 52.4247059,30.6432526 C51.8058793,30.0729614 51.4358022,29.2418048 51.3144637,28.1497578 C50.6107001,29.1447339 49.8280781,29.9516232 48.9665744,30.5704498 C48.1050707,31.1892765 47.0797753,31.4986851 45.8906574,31.4986851 Z M48.2567474,27.9677509 C48.8634402,27.9677509 49.464057,27.6826095 50.0586159,27.1123183 C50.6531748,26.5420271 51.0596529,25.7594052 51.2780623,24.7644291 L53.0253287,16.5377163 C53.0253287,16.222236 52.903992,15.9128274 52.6613149,15.609481 C52.4186378,15.3061346 52.0424939,15.1544637 51.532872,15.1544637 C50.5621635,15.1544637 49.6885391,15.7186795 48.9119723,16.847128 C48.1354056,17.9755766 47.5287219,19.334548 47.0919031,20.924083 C46.6550843,22.5136181 46.4366782,23.9150574 46.4366782,25.1284429 C46.4366782,26.3418284 46.6126165,27.1183835 46.9644983,27.4581315 C47.3163801,27.7978794 47.7471255,27.9677509 48.2567474,27.9677509 Z M66.7486505,11.11391 C65.9478161,11.11391 65.2683304,10.8348355 64.710173,10.2766782 C64.1520157,9.71852085 63.8729412,9.03903515 63.8729412,8.23820069 C63.8729412,7.43736624 64.1520157,6.75181369 64.710173,6.18152249 C65.2683304,5.61123129 65.9478161,5.32608997 66.7486505,5.32608997 C67.549485,5.32608997 68.2350375,5.61123129 68.8053287,6.18152249 C69.3756199,6.75181369 69.6607612,7.43736624 69.6607612,8.23820069 C69.6607612,9.03903515 69.3756199,9.71852085 68.8053287,10.2766782 C68.2350375,10.8348355 67.549485,11.11391 66.7486505,11.11391 Z M64.2733564,31.4986851 C63.1085063,31.4986851 62.1681466,31.1346749 61.4522491,30.4066436 C60.7363517,29.6786123 60.3784083,28.5865817 60.3784083,27.130519 C60.3784083,26.5238263 60.4754777,25.7351375 60.6696194,24.7644291 L63.1449135,13.0795848 L68.3867128,13.0795848 L65.7658131,25.4560554 C65.6687423,25.820071 65.6202076,26.2083486 65.6202076,26.6208997 C65.6202076,27.1062539 65.7354775,27.4520636 65.9660208,27.6583391 C66.196564,27.8646146 66.5787747,27.9677509 67.1126644,27.9677509 C67.816428,27.9677509 68.4716463,27.6704759 69.0783391,27.075917 C69.6850319,26.481358 70.1218441,25.7108698 70.3887889,24.7644291 L71.9176471,24.7644291 C71.0197418,27.3853418 69.8670428,29.162925 68.4595156,30.0972318 C67.0519883,31.0315387 65.6566159,31.4986851 64.2733564,31.4986851 Z M73.992526,31.4986851 C72.8276758,31.4986851 71.8873162,31.1346749 71.1714187,30.4066436 C70.4555212,29.6786123 70.0975779,28.5865817 70.0975779,27.130519 C70.0975779,26.5238263 70.1946472,25.7351375 70.3887889,24.7644291 L72.572872,14.5356401 L71.3716263,14.5356401 L71.6628374,13.0795848 L72.864083,13.0795848 L73.9561246,8.05619377 L79.3435294,7.32816609 L78.1058824,13.0795848 L80.2899654,13.0795848 L79.9987543,14.5356401 L77.8146713,14.5356401 L75.4849827,25.4560554 C75.3879119,25.820071 75.3393772,26.2083486 75.3393772,26.6208997 C75.3393772,27.1062539 75.4546471,27.4520636 75.6851903,27.6583391 C75.9157336,27.8646146 76.2979443,27.9677509 76.8318339,27.9677509 C77.5355975,27.9677509 78.1908159,27.6704759 78.7975087,27.075917 C79.4042014,26.481358 79.8410137,25.7108698 80.1079585,24.7644291 L81.6368166,24.7644291 C80.7389113,27.3853418 79.5862123,29.162925 78.1786851,30.0972318 C76.7711579,31.0315387 75.3757855,31.4986851 73.992526,31.4986851 Z M83.7116955,31.4986851 C82.5468454,31.4986851 81.6064857,31.1346749 80.8905882,30.4066436 C80.1746908,29.6786123 79.8167474,28.5865817 79.8167474,27.130519 C79.8167474,26.5238263 79.9138168,25.7351375 80.1079585,24.7644291 L82.5832526,13.0795848 L87.8250519,13.0795848 L85.2041522,25.4560554 C85.1313491,25.7472679 85.0949481,26.0506097 85.0949481,26.36609 C85.0949481,27.4338692 85.4589583,27.9677509 86.1869896,27.9677509 C86.8664855,27.9677509 87.4489018,27.6826095 87.9342561,27.1123183 C88.4196103,26.5420271 88.8078878,25.7594052 89.0991003,24.7644291 L91.5743945,13.0795848 L96.8161938,13.0795848 L94.1952941,25.4560554 C94.0739556,26.0627481 94.0132872,26.4995604 94.0132872,26.7665052 C94.0132872,27.5673396 94.4258321,27.9677509 95.2509343,27.9677509 C96.3672489,27.9677509 97.404678,27.2639978 98.3632526,25.8564706 C99.3218272,24.4489434 100.092315,22.7744964 100.67474,20.8330796 C101.257166,18.8916627 101.548374,17.2172158 101.548374,15.8096886 C101.499838,15.9310271 101.342101,16.0220297 101.075156,16.082699 C100.808211,16.1433682 100.577671,16.1737024 100.383529,16.1737024 C99.9709783,16.1737024 99.649436,15.9795636 99.4188927,15.5912803 C99.1883495,15.2029969 99.0730796,14.7783183 99.0730796,14.3172318 C99.0730796,13.7348068 99.2611515,13.2615935 99.637301,12.8975779 C100.013451,12.5335622 100.577666,12.3515571 101.329965,12.3515571 C102.1308,12.3515571 102.713216,12.6488321 103.077232,13.243391 C103.441247,13.8379499 103.623253,14.5963045 103.623253,15.5184775 C103.623253,17.7025715 103.247109,20.0383036 102.49481,22.5257439 C101.742511,25.0131843 100.589812,27.1305103 99.0366782,28.8777855 C97.4835447,30.6250606 95.5542907,31.4986851 93.2488581,31.4986851 C92.0597403,31.4986851 91.0890464,31.243878 90.3367474,30.7342561 C89.5844484,30.2246341 89.0991014,29.4602127 88.880692,28.4409689 C87.5217002,30.4794566 85.7987186,31.4986851 83.7116955,31.4986851 Z M117.310173,31.4986851 C115.829843,31.4986851 114.743879,31.1043407 114.052249,30.3156401 C113.360619,29.5269395 113.01481,28.5501788 113.01481,27.3853287 C113.01481,26.8757068 113.075478,26.2993573 113.196817,25.656263 C113.318155,25.0131686 113.445559,24.3882845 113.579031,23.7815917 C113.712504,23.1748989 113.803506,22.7866214 113.852042,22.6167474 C114.046183,21.7673775 114.228188,20.9301541 114.398062,20.1050519 C114.567936,19.2799497 114.652872,18.6125977 114.652872,18.1029758 C114.652872,16.8653225 114.21606,16.2465052 113.342422,16.2465052 C112.711462,16.2465052 112.153313,16.5559139 111.667958,17.1747405 C111.182604,17.7935671 110.794327,18.6004564 110.503114,19.5954325 L108.02782,31.2802768 L102.786021,31.2802768 L108.064221,6.52733564 L113.451626,5.79930796 L111.485952,14.9724567 C112.699337,13.6134649 114.118977,12.9339792 115.744913,12.9339792 C116.982567,12.9339792 117.965394,13.2737221 118.693426,13.953218 C119.421457,14.6327139 119.785467,15.6640761 119.785467,17.0473356 C119.785467,17.7510993 119.700531,18.5337212 119.530657,19.3952249 C119.360783,20.2567286 119.11811,21.3062914 118.80263,22.5439446 C118.608488,23.2962437 118.43255,24.0303309 118.27481,24.7462284 C118.11707,25.4621258 118.038201,26.0263417 118.038201,26.4388927 C118.038201,26.9242469 118.147404,27.3003908 118.365813,27.5673356 C118.584223,27.8342805 118.960366,27.9677509 119.494256,27.9677509 C120.222287,27.9677509 120.804704,27.7068769 121.241522,27.1851211 C121.678341,26.6633653 122.115154,25.856476 122.551972,24.7644291 L124.08083,24.7644291 C123.182925,27.4338772 122.145496,29.2235941 120.968512,30.1336332 C119.791528,31.0436724 118.572094,31.4986851 117.310173,31.4986851 Z M128.631003,11.11391 C127.830169,11.11391 127.150683,10.8348355 126.592526,10.2766782 C126.034369,9.71852085 125.755294,9.03903515 125.755294,8.23820069 C125.755294,7.43736624 126.034369,6.75181369 126.592526,6.18152249 C127.150683,5.61123129 127.830169,5.32608997 128.631003,5.32608997 C129.431838,5.32608997 130.11739,5.61123129 130.687682,6.18152249 C131.257973,6.75181369 131.543114,7.43736624 131.543114,8.23820069 C131.543114,9.03903515 131.257973,9.71852085 130.687682,10.2766782 C130.11739,10.8348355 129.431838,11.11391 128.631003,11.11391 Z M126.155709,31.4986851 C124.990859,31.4986851 124.0505,31.1346749 123.334602,30.4066436 C122.618705,29.6786123 122.260761,28.5865817 122.260761,27.130519 C122.260761,26.5238263 122.357831,25.7351375 122.551972,24.7644291 L125.027266,13.0795848 L130.269066,13.0795848 L127.648166,25.4560554 C127.551095,25.820071 127.502561,26.2083486 127.502561,26.6208997 C127.502561,27.1062539 127.61783,27.4520636 127.848374,27.6583391 C128.078917,27.8646146 128.461128,27.9677509 128.995017,27.9677509 C129.698781,27.9677509 130.353999,27.6704759 130.960692,27.075917 C131.567385,26.481358 132.004197,25.7108698 132.271142,24.7644291 L133.8,24.7644291 C132.902095,27.3853418 131.749396,29.162925 130.341869,30.0972318 C128.934341,31.0315387 127.538969,31.4986851 126.155709,31.4986851 Z M135.874879,31.4986851 C134.710029,31.4986851 133.769669,31.1346749 133.053772,30.4066436 C132.337874,29.6786123 131.979931,28.5865817 131.979931,27.130519 C131.979931,26.5238263 132.077,25.7351375 132.271142,24.7644291 L136.16609,6.52733564 L141.553495,5.79930796 L137.367336,25.4560554 C137.270265,25.820071 137.22173,26.2083486 137.22173,26.6208997 C137.22173,27.1062539 137.337,27.4520636 137.567543,27.6583391 C137.798087,27.8646146 138.180297,27.9677509 138.714187,27.9677509 C139.41795,27.9677509 140.073169,27.6704759 140.679862,27.075917 C141.286554,26.481358 141.723367,25.7108698 141.990311,24.7644291 L143.51917,24.7644291 C142.621264,27.3853418 141.468565,29.162925 140.061038,30.0972318 C138.653511,31.0315387 137.258138,31.4986851 135.874879,31.4986851 Z M147.122907,31.4986851 C145.351364,31.4986851 143.968125,31.0315387 142.973149,30.0972318 C141.978173,29.162925 141.480692,27.7008173 141.480692,25.7108651 C141.480692,24.036393 141.808301,22.1920747 142.463529,20.1778547 C143.118758,18.1636347 144.186521,16.4224526 145.666851,14.9542561 C147.147182,13.4860596 149.027901,12.7519723 151.309066,12.7519723 C153.978514,12.7519723 155.313218,13.916805 155.313218,16.2465052 C155.313218,17.605497 154.92494,18.8552653 154.148374,19.9958478 C153.371807,21.1364302 152.340445,22.0525225 151.054256,22.7441522 C149.768067,23.435782 148.396962,23.8301264 146.9409,23.9271972 C146.892364,24.4610869 146.868097,24.8250971 146.868097,25.0192388 C146.868097,27.0334587 147.620385,28.0405536 149.124983,28.0405536 C149.804479,28.0405536 150.532499,27.8585485 151.309066,27.4945329 C152.085632,27.1305172 152.789386,26.6694376 153.420346,26.1112803 C152.765118,29.7029015 150.665992,31.4986851 147.122907,31.4986851 Z M147.195709,22.1799308 C148.117882,22.1556631 148.98544,21.8523213 149.798408,21.2698962 C150.611377,20.6874711 151.266595,19.9412502 151.764083,19.0312111 C152.261571,18.1211719 152.510311,17.1686786 152.510311,16.1737024 C152.510311,15.1787263 152.20697,14.6812457 151.600277,14.6812457 C150.750907,14.6812457 149.907617,15.4517339 149.070381,16.9927336 C148.233145,18.5337332 147.60826,20.2627816 147.195709,22.1799308 Z" id="aitwhile"></path>
            <g id="a-to-s">
                <path d="M40,5.23567036 L36.5182401,5.23567036 C36.4509704,5.23567036 36.3908849,5.27774721 36.3678837,5.34096236 L29.6978469,23.6725123 C29.6867058,23.7031321 29.6581071,23.7239354 29.6255445,23.7251066 C29.5813903,23.7266949 29.5443087,23.6921883 29.5427205,23.6480341 L28.8859718,5.38991884 C28.8828758,5.30384726 28.8122024,5.23567036 28.7260752,5.23567036 L23.154756,5.23567036 C23.0872874,5.23567036 23.027069,5.27799264 23.004215,5.34147259 L16.4131482,23.648977 C16.4019022,23.680214 16.3725315,23.7012586 16.3393373,23.7018638 C16.2951628,23.7026691 16.2586994,23.6675113 16.2578925,23.6233368 C16.0387219,11.6006935 15.8428504,5.47147132 15.6702781,5.23567036 C6.76502826,4.77365899 1.61879782,8.87993768 1.11022302e-16,12.8996472 L0,2.4 C-1.623249e-16,1.0745166 1.0745166,2.4348735e-16 2.4,0 L37.6,0 C38.9254834,-2.4348735e-16 40,1.0745166 40,2.4 L40,5.23567036 Z M40,6.29093159 L40,37.6 C40,38.9254834 38.9254834,40 37.6,40 L2.4,40 C1.0745166,40 1.623249e-16,38.9254834 0,37.6 L0,17.9708172 C0.808231385,19.4533458 2.48676374,20.3646782 5.00586901,20.1072847 C4.11503506,14.4773412 5.3065606,11.0307313 8.58044564,9.76745483 L9.4806708,34.8881201 C9.48375557,34.9742004 9.5544326,35.04239 9.64056816,35.04239 L16.1549703,35.04239 C16.2216333,35.04239 16.2813109,35.0010576 16.3047521,34.9386519 L21.9193285,19.9913846 C21.9305409,19.9615347 21.9584089,19.9411935 21.990256,19.9396138 C22.0343845,19.9374248 22.0719322,19.9714236 22.0741212,20.0155521 L22.8119646,34.8903169 C22.8161898,34.9754965 22.8864838,35.04239 22.9717681,35.04239 L29.195047,35.04239 C29.2618995,35.04239 29.3217049,35.0008258 29.3450101,34.938167 L40,6.29093159 Z" id="Combined-Shape"></path>
            </g>
        </g>
    </g>
</svg>